<?xml version="1.0" encoding="UTF-8"?>
<svg id="_레이어_1" data-name="레이어_1" xmlns="http://www.w3.org/2000/svg" version="1.1" viewBox="0 0 330 330">
  <!-- Generator: Adobe Illustrator 30.1.0, SVG Export Plug-In . SVG Version: 2.1.1 Build 136)  -->
  <defs>
    <style>
      .st0 {
        fill: #ae4e10;
      }

      .st1 {
        fill: #c4621d;
      }

      .st2 {
        fill: #1e120a;
      }

      .st3 {
        fill: #cd5e20;
      }

      .st4 {
        fill: #953f0f;
      }

      .st5 {
        fill: #b55512;
      }

      .st6 {
        fill: #be5914;
      }

      .st7 {
        fill: #f4d4a5;
      }

      .st8 {
        fill: #bd5b19;
      }

      .st9 {
        fill: #e6e6e6;
      }

      .st10 {
        fill: #ac5014;
      }

      .st11 {
        fill: #bc5a17;
      }

      .st12 {
        fill: #9b410e;
      }

      .st13 {
        fill: #983f0c;
      }

      .st14 {
        fill: #131212;
      }

      .st15 {
        fill: #cd5c1e;
      }

      .st16 {
        fill: #f6d7ac;
      }

      .st17 {
        fill: #c86b41;
      }

      .st18 {
        fill: #e8b070;
      }

      .st19 {
        fill: #f7d9af;
      }

      .st20 {
        fill: #c35e16;
      }

      .st21 {
        fill: #b65116;
      }

      .st22 {
        fill: #f9ddb9;
      }

      .st23 {
        fill: #da7a47;
      }

      .st24 {
        fill: #d47f3d;
      }

      .st25 {
        fill: #b95a1a;
      }

      .st26 {
        fill: #bc5a19;
      }

      .st27 {
        fill: #994412;
      }

      .st28 {
        fill: #121211;
      }

      .st29 {
        fill: #e6c69b;
      }

      .st30 {
        fill: #9c8b85;
      }

      .st31 {
        fill: #e9b475;
      }

      .st32 {
        fill: #4c362b;
      }

      .st33 {
        fill: #cf7430;
      }

      .st34 {
        fill: #cb6d41;
      }

      .st35 {
        fill: #99410e;
      }

      .st36 {
        fill: #db7b47;
      }

      .st37 {
        fill: #c86924;
      }

      .st38 {
        fill: #8b380c;
      }

      .st39 {
        fill: #9c4411;
      }

      .st40 {
        fill: #ececec;
      }
    </style>
  </defs>
  <path class="st37" d="M182.1,72.9c.2.5.3.9.3,1.4,0,1.3-5.9,5.6-7.4,6.7.3,2.6-1.1,5.3-4.1,8.1,4.2,2.6,8.5,5.1,12.9,7.3.4,3.5,2,3.6,4.8.2l4.4-1c2.7-5.8,8-3.8,8.3,2.4,8.7-3,11,3.7,10.3,11,1.8,1.7,2.7,3.3,2.7,5-1.5,1.5-3.7,2.3-6.7,2.3-11.6,4.9-10.1,7,4.4,6.2,4.3,1.2,8.5,2.6,12.4,4.3,1-3.1-.8-6.1-5.3-9.2v-2.5c2.3-18.1,16-6.6,18.2,5.5,5.8-2.9,9-.7,10.2,5.2,4.2,1.6,14.6,9.7,14.4,14.4s-6.2,4.5-9.4,3.6l-3.3,5.9c14,10.5.6,17.7-10.6,8.2-7.2-2-1.8,3.5,1.7,5.2,4.4,11.9-16.4,6.6-15.3-2.2l-2.1-.8c-9.1-23.9-35.2,1.3-15.2,14.5l.3,2.4c2.2,2.9-1.6,4.2-4.2,3.8h-3.1c-20.5-18.7-57.6-18.2-75.7,3.5l-3,1.6c2.1,2.3-3.2,9.2-5.9,9.3-3.3,5.6-11.4,4-12.4-3.2.3-5.5-.5-10.9-2.4-16.1,1.1-3.8,2.6-5.4,4.5-4.8l2.3-.6c8.1,9.4,21.2,3.3,20.4-8.9-1.1-17.3-25.4-13.1-22.5,3.9l-1.8,1.7c.9,3.1-2.4,9.1-4.9,10.8-5.7,4-21.4,1.1-28.1-.4-2.3,3.3-4.5,7.2-4.4,11.3,1.5,5.3.2,18.8-2.7,22.9s-1.7,1.2-2.8,1.4c2.9,2.5-3.9,7-6,4.2-2.5-.4-4.7-2.3-6.5-5.7-4-7.7-7-15.8-8.9-24.4,1-11.2,7.4-33.7,12.8-43.7s1-4.2.1-5.2c-.3-.8-.1-1.4.1-2.1,1.1-3,4.9-9.6,7.8-10.9-2.5-2.6.7-5.8,3.8-5.9-.1-.8-.2-1.5-.1-2.3.2-3.6,16.2-23.8,19.7-25.3s1.4-.4,2.1-.5c-.3-2.6,1-2.9,2.5-.8,1.6-.8,2.5,0,2.7,2.4,2.8-3.8,6.9-6.4,12.4-7.8,6.3-5.4,16.1-8.2,24.4-10.3s44-9.3,52-3.4,1.2,1,1.7,1.6Z"/>
  <path class="st8" d="M85.9,62.2l7.4,7.3c6.8,9.1,1.2,15.5-7.3,19.6-.2.9-.6.9-1,0-1.8-.7-3.1-2.4-4-5.2-27.4-28.9-60.1,20.6-21.1,32.7l1.2,2.2c1.1-2.7,3-2.5,3.5.4-1.1,1.9-2.6,3.4-3.8,5.9-3.2,4.4-10.8,3.7-15.8,2.7-12.4-2.5-16.9-10.2-21-18.9-7.9-24.4,8.3-49.7,35-53.5,9.7-1.4,19.2,1.6,26.9,6.8Z"/>
  <path class="st26" d="M306.2,101c-1.7-3-.2-11.3-.7-2.8s-3.2,15.1-9,20.6-16.6,10-23.2,8.2-6.1-5.4-4.3-8.1l.6-2.1c24.4-5.1,21.7-40.1-2.9-41.5-11.1-.6-16.6,5.9-22.5,13.8.2,1.9-.6,1.9-1.2,0-2.8-.7-10-5.1-11.7-7.2s-1-1.5,0-2.9c-.8-.3-1.2-.9-1.4-1.6-.5-1.4,5.8-9.4,7.3-11,8.1-7.6,19.5-12.1,31.2-10.9,23.6,2.5,41.2,23,37.9,45.6Z"/>
  <path class="st13" d="M121.2,261l4.9-.6c32,9.2,65.8,5.5,97-5l4.9.4c7-1.3,13.2-4.8,19.3-8.3,4.5-.8,8.6-3.2,12.3-7.2,2.3-1.6,4.9-2.7,5.6.7l1,.9s-4.7,3.6-14.2,10.9h.9c-12.5,8.6-26.9,12.8-41.6,16.4-18.5,4.6-36.9,7.9-55.9,6.3-20.4-1.8-39.7-6.3-58.9-12.8-14.1-4.8-26.4-12-37.6-21.6-2.1-1.8-3-4.6-4.4-6-.2-2,.7-2.6,2.4-1.8,17.9,15.1,40.6,20.2,62.8,25.1l1.5,2.6Z"/>
  <path class="st5" d="M55.4,217.3h2.1c4.4,6.2,9.5,11.8,15.5,16.7,3.8,3.9,7.3,5.8,12.8,6.2,10.8,7.7,19.1.4,25.6-8.5,2-1.2,3.6-2.6,4.8-4.2l1.6.6c2.6-1.9,8.4,8.6,8.2,9.9s-.4.9-.7,1.3l16.3,14.2.9,2.9c2.8,1.2,1.3,3.5-.7,5-4.9,3.6-9.7-.2-12.3-4.6-2.1,4-3.6,4.9-8.2,4.3-4.1-1.3-9-2.4-13.7-3.4-18.9-4-36.8-10.2-51.7-22.6-.8-.4-1.2-.7-1.4.1-9.5-9.1-13.8-22-14.6-34.2-.4-4-.4-8,0-12,.3-.8.2-1.5.2-1.8,7.3,5.3,2.3,13.7,12.8,26.1s2.5,2.9,2.6,4Z"/>
  <path class="st25" d="M179,65.8c16.8,1.7,31.5,6.5,46,13.2.8-.2,1.6-.2,2.3.2,2.3,1.5,11.2,9.9,13.1,11.9,19.9,21.3,34.2,43.6,41.4,71.9l-.8,1.9c0,11.2-.4,22.5-.8,33.9l-2.3,3.1c3.2,1.4.3,9.2-2.8,9-1.5,2.3-6.6.7-7-1.8-1.6-2.4-.8-3.6,2-3.1,1.7-4.3,2.4-8.6,2-12.9,3.4-6.3,4.2-13.3,2.2-21-1.1-2.8-1.2-5.6-.3-8.2-3.6-2.3-5.6-8.9-4.2-12.9.3-2.9-1.7-5.5-3.8-7.2-3.1.3-5.1-2.2-5.9-7.6-1.8-1.9-2.8-3.7-3.2-5.3-1.2-1.3-.9-2.8.9-4.4-1.9-2.9-3.9-5.8-6.1-8.7-.9-4.7-2.9-7.9-6-9.5-2.8-2.6-4.3-5.5-4.5-8.6-1.4,2.8-11.3-6.8-11.6-7.6s0-1.6.3-2.4c-16.6-10-33.4-19.7-53.3-20.9-4.8-2.7-1.1-3.6,2.5-3.2Z"/>
  <path class="st33" d="M179,65.8c-1,.4-2.4-.6-4.1,1.1,20.6,1.4,39.3,9.3,54.8,23,1.7,1.2,1.8,1.7,0,2.4s-10.1-2.8-8.7-5.4c-3.7,1.1-9.2-2.7-11.1-6-3.2,1.7-10.9-.4-12.2-3.9l-1,.6c-4.4-1-8.6-2.5-12.8-4.6-.6,1.9-1.4,1.9-1.9,0-22.1-4.1-44.8-.3-66.1,8.1s-5.3.2-8,3.3-9,4.4-13,6.7c-1.8,1.6-1.6,4.3-4.4,5.8l-1.8-6.4c-.2-2.8,1.8-5.3,5.9-7.5,3.5-2.9,6.6-3.9,9.3-2.8,3.7-1.9,6.4-3.8,10-5.4,20.8-8.9,43.1-11.2,65-9Z"/>
  <path class="st4" d="M231.2,78.9c2.1,3,12.6,7.7,11.8,10.1,4.1,4.6,8.4,9.4,12.9,14.3l9.4,13.7c1.7,0,2.9.6,3.7,1.8.9,1.9,2.5,3.4,3.4,6.2,19.9.9,31.4-12.8,33-31.1.8,2.4.9,5,.8,7.1-1,17.8-13.9,32.3-31.8,38l9.3,26.3c1.7,4.8,2.4,9.2,3.3,13.7,0,1.3-.4,2-1.2,2l-2.3-1.1c-1.4-5-2.3-9.9-2.5-14.9-3.1-15.7-11-30.3-19.5-44.4s-16.1-22.8-27-32c-3.7-3.1-7.3-5.7-9.5-9.6.3-.9,1.1-1.5,1.9-1.8,2-1.8,4.5-1.2,4.4,1.7Z"/>
  <path class="st35" d="M60.9,125.1l-4.3,9.2c-.8,1.6-1.2,3.3-3.6,3.8-14.8-3.7-24.5-15.6-28.9-29.3.3-1.6,1.5-.3,1.1.9,6.5,14.1,21.5,19.4,35.8,15.4Z"/>
  <path class="st38" d="M252.8,252.9c-7,3.7,14.1-13.3,12.3-11.9l.8-3.2c10.6-9.3,15.9-23,18-36.6l2.3-3.2-1.9-1.6c.6-4.4.6-8.9,0-13.3l1.6-2.1c.1-.8.5-1.6,1.2-2,2.6,12.3,3.1,25.2-1.5,37.6-5.9,15.9-18,28.9-32.7,36.3Z"/>
  <path class="st27" d="M104,80.1c-5.2,2.7-10.7,5.2-15.2,10.3s-1.4.4-2.5.8c-2.7.7-2.8-.9-.4-2.1-.9-4.9,11.6-4.6,7.5-14.9s-8.7-10.8-7.6-12c5.3,3.6,11.1,6.5,15.3,12.8s3.5,2.9,2.8,5.1Z"/>
  <path class="st24" d="M231.2,78.9c-1.3-.6-3.3-.7-4.4-1.7,1-5.6,6.8-7.7,10.3-11l-5.9,12.7Z"/>
  <path class="st37" d="M39.8,201c-.3-4.1-2.1-8.4,0-12,.4,4,.4,8,0,12Z"/>
  <path class="st1" d="M184,73c4.7,2.8,9.3,4.1,13.8,4,4.1,1.3,8.3,2,12.2,3.9,5.7,4.1,2.8,8.6-4,7.7-3.8,1,2.2,4.9,2.8,4.9,2.2.2,8-5.3,9.6-7.1l2.6.5c-2-1.8,10.9,6.2,8.7,2.9l11.3,10c.5,4.8,2.3,7.7,5.3,8.5,3.8,2.3,4.8,6.1,2.9,11.3l8.2,9.1-.5,2.4,9.2,12.9c2,1.6,4.2,4.5,3.8,7.2,1.9,4.2,3.2,8.5,4.2,12.9.3,5.3-1.2,8.2-4.7,8.8.3,2-.6,4.1-2.5,6.4-1.4,5.4-2.6,10.7-3.6,16h-2.3s-2.4-.9-2.4-.9l-3.2-10.2c-.5-.6-11-9.5-11.7-9.8s-11.9-1.5-12.5-1.2c-5.7,6.4-11,13.2-15.8,20.4l-2.4-.3c.7,1.6.5,1.9-1,.9-2.7.2-7.4-6.4-5.8-8.8-1.4.3-2.2-.8-2.2-3.1-1.9.4-2-.4-.2-1.1-.9-1.9,3.9-1.9,4.2-3.8l1.6-1.6c7.9.3,13.5-5.3,13.4-13l2-1.4c.9,3.1,2.9,3.9,5.9,5.5s6.9,4.1,8.7-.2-6.9-4.2-6.3-7.6c2-11,18.7,10.3,19.8-1.1s-.5-3.4-2.8-4.6c-7.3-3.6,1-5,.3-11.4,2.3.5,5.9,1.4,8.3.2s1.5-4.8.2-6.4c-3.4-4.2-8.6-4.8-12.6-7.6s-1.1-5.6-3.8-6.2-4.2,1.5-6.6,1.5l-4.6-11c-1-2.4-3.5-4.3-5.8-3.9-6.2,1-3.6,7.6-6.6,7.2-1.4,2.7-4.5,2-4.9-1.1-4.1-1.6-5.8-4.9-4.6-9.6s-3.3-6.1-5.9-5.1-2.8,1.1-3.9.3-.3-5.2-2.3-5.3-2.2.2-2.3.9c-.6,3.5-3.7,2.2-5.8,3.2s-2.4,3.1-4.8,2.8-1.9-3.8-3.2-4.4c-2.1-.9-13.5-4.7-12.8-8.4s4.7-3.8,4.9-5.8-1.7-1.5-1.5-2.4c6.3-3.1,3.8-3.3,10-7.3.6.1,1.3,0,1.9,0Z"/>
  <path class="st3" d="M105.8,170.9c-3,1.7-3.2,6.5-1.4,9.5,2.6,4.3.2,9.3,1.7,13.6s7.5,2,9.9,1c2.9,1.1,1.3,8.7-1.8,8.9l-1,.2c1.3,10.6-9.2,22.5-20.2,20.5-8.2-1.8-16.4-3.6-24.5-5.5-3.1-1.7-5.4-3.7-7.1-6.1,2.6-5.6,3.9-12.3,4.3-18.8s-4.3-5.6,4.7-19.6c4.4,2.8,8.7,2.1,13.7,2.5s11.1,1.8,14.9-1.7c2.5-2.3,4.3-5.8,5.2-8.5,2.9-1.2,4.6,2.6,1.6,3.9Z"/>
  <path class="st20" d="M114.2,204c2.6,2.4,2.5,10.2,0,12.9,1.8.6,2.8,2.4,2.9,5.3,1.5,2.5,1.7,4.4.5,5.9-1.2,0-1.3,3.2-2.2,3.4-3.9,1-4.4,5.3-6.8,7l-9.6,6.6c-4.2,2.9-10.9-2.6-14.9-3.2l-5.1-.8c-2.4-.4-23.2-19.1-23.7-23.8,1.5-.7,5.2-2.4,6-4.2,3.8,0,6.3,3.8,9.2,4.9s8,0,11.7,2.9c-3.3-2.7,14.9,4.7,18.8,1.1l7.6-7c3.5-3.3,3.6-9.1,3.7-13.5,2.3-.9,1.6,1.5,1.9,2.5Z"/>
  <path class="st22" d="M203.7,180.8c0,.4.3.8.2,1.1l.7,2.5c-1,2.4-1.2,5.4-.5,8.8-5.3,2.3-13.8,3.4-16.9-2.7l-3.2-.6-2-.9c-1.4-12.6-41.7-12.3-34.7,4.3l-1.1,1.8c.3.5.4.9.4,1.3-1.1,5.8-7.8-7.1-7-9.6l-14.2.6-3.3-1.6c4.1-7.7,11.7-13,20.3-16.5s21.5-4.4,32.4-3.1,20.8,7.1,29,14.5Z"/>
  <path class="st19" d="M146.2,195l2.4-.3c4.6,3.3,9.5,6.1,14.9,8.3,5.2,14.7-21.3,22.4-28.6,10.1l-1.6,2c-.2,3.6-2.7,1.6-4.6-.2-3.2,1.8-5.8,2.3-9,0-2.4,3.7-4.1,4.3-5.3,1.8-.1-4.2-.9-8.8,0-12.9l1.8-8.9c.9-3.5,4.4-6.4,5.9-9.3,6.1-.9,12.3-1.2,19.1-.9l2.6,9.4c.1.5.9.9,1.2,1.1s.8,0,1.2-.4Z"/>
  <path class="st28" d="M224.9,160.9c.1,5.3-1.2,10-4.8,13s-8.5,4.7-12.1,3.1c-5.9-2.6-9.4-8.1-9.6-13.6s2.8-11.8,8.7-14.2,8.7-.9,12.3,1.8,5.2,5.9,5.5,9.9Z"/>
  <path class="st14" d="M105.8,170.9c0-1.9-1.4-2.8-1.6-3.9-1.6-8,2-15.7,9.4-18.2s9.9.2,13.2,3.8,4.2,7.8,3.4,12.5-5,10.2-10.1,11.6c-5.9,1.6-10.5-1.6-14.4-5.7Z"/>
  <path class="st18" d="M130.1,122.3c-1.4,4.5-10.5-2.4-23,5.7s-3.5,1-4.6,0c-3.3-2.8,1.6-12.9,11.6-14.4s17.3,4.5,16,8.7Z"/>
  <path class="st31" d="M214.1,114c1.8.8,3.7.6,4.9,1.1,4.1,2.7,10.7,9.6,6.7,13.1s-2.7,1-4,.2c-13.8-8.3-22.4-1.1-23.6-5.2-1.8-6,10.1-10.7,16-9.2Z"/>
  <path class="st34" d="M86,89.1l.4,2.1c-7.5,8.8-15.3,17.3-21.7,28.1l-3.5-.4c-.9-.5-1.2-1.3-1.4-2.2-.6-2.9,20.1-28.4,23-28.5s1.6.4,2.2,1c.3-.1.7,0,1,0Z"/>
  <path class="st23" d="M84.9,89.1c-4.9,2-22.5,22.8-23.8,29.7-12-1.3-21.4-11.3-21.2-23.3s9.7-21.8,22-22.3c10.9-.5,22.1,6.8,23,15.9Z"/>
  <path class="st36" d="M269,118.9l-3.1-1.6c-5.1-9.6-11.8-18.3-20.5-25l-1.2-3.2c-.8-1.9.4-3.4,1.7-5.3,6.1-9.1,17.4-12.8,27.8-9.2s14.9,13.3,15.1,24.3c.1,9.7-12.1,19.3-19.8,20Z"/>
  <path class="st17" d="M269,118.9c-1.3.1-4.1,1.2-5.2-.6-5.6-9-11.6-17.4-19.6-24.5s-1.7-3-1.2-4.7h1.2c10.8,7.2,18.9,18.2,24.8,29.8Z"/>
  <path class="st0" d="M275,211c2.3,5.7-3.8,13.8-7.5,18.6-9.4,12.1-24.6,22.6-39.5,26.3-34.6,12.2-71.4,16.6-106.8,5.1,8.9-3,3.3-6.6,8.4-6.2s3.1,6.1,8.3,5.9,4.3-2.5,4.4-4.4l2.8-.7c21.8,12.1,71.9,4.6,66-27.6-2.1-2-1-6,2-6.3,1.7-5,7.4-.8,7,3.2l1.2.8c-1.1,5.8-1.9,11.7-2.3,17.8,7.4,0,14.4-1.6,21-5,2.6-3.8,5.7-6.8,9.1-9,0-3.2,1.4-6.3,4.5-9.2,5-3,8.9-6.3,12-11.3h2.5c2.5,0,4.7.9,7,1.9Z"/>
  <path class="st39" d="M265.1,241c-2.1-.8-3.6.3-5.4,1.7l-6.7,5.5c-1.6,1.3-4.3.6-6.1,1.7-6,3.6-12.4,6.5-19,6,19.2-9.3,40.7-22.9,47.1-44.9s2.5-5.8,2.8-9c.9-3,5.3-5.4,8.3-4-.3,6.8-1.9,12.2-3.9,18.1-3.5,10.2-8.9,18.6-17.1,25Z"/>
  <path class="st7" d="M128,241c-.9.2-1.9-.4-2.8-1.7l-7.4-11.2c-2-3-3.3-7.5-3.4-11.3,2.7.4,2.3-3.6,5.3-3.8s2.2,1.2,3.6,1.5,3.6-1.8,5.7-1.5,2.5,3,4.3,2.1l2.5-.2c8.7,8.2,20.2,3.7,28.5-2.9,8.4,6.7,23.8,12.5,29.7.4l2.2-.4c-.7-4.2,8.2-4.6,11-3.1.8.7,1.5,1.6,1.6,2.6.8,7.2-10.5,20.8-16.1,25.1-18.6,14-44,13.1-64.5,4.3Z"/>
  <path class="st12" d="M142.3,256.4c-7.1-4.1-12.8-10.6-17.1-17.1.8.7,2.1.9,2.8,1.7l2.5.6c23.9,16.7,62,14.6,77.7-12.4l3-1.1c5.6,1.5,1.2,15.8-.3,17.7-16.2,20.1-49.3,21.8-68.5,10.7Z"/>
  <path class="st6" d="M270,206.1c-.7,1-1.3,2.1-2,3.1-2.4,3.1-4.7,7.1-8.2,9.6s-4.7,1.9-6.2,5.1-3.2,2.2-2.6,3.9c1.4,4.4-3.8,4.2-4.8,6-3,5.3-6.1,8.4-12.2,9.5s-6.9,2.7-10.9,1.7-5,2-5.8-.1c-1.5-4,1.6-14.9,2.9-19.8-1.7-1.8-2.1-2.9.8-2.9.7-1.5,2-1.6,3.9-.2l3.1-2.9c7.2.6,13.4-.9,18.6-4.7,1-4.3,2.8-6.4,7.2-7.6.8-4.2,2.9-11.7,7.4-11.7.9-1.6,1.6-2.4,1-5.2s2-3.9,2-5.9c0-5,2-8.5,5.3-11.2,1.3-1.4,1.8-1.5,3.2-.6,4.3,2.7.8,14.2-1.7,17.9,2.2,4.8,1.9,10.1-.8,16Z"/>
  <path class="st10" d="M285.8,181c1.6,6.3.5,11.6.3,17-2.5,1.8-5.3,3.2-8.3,4,.7-6,.9-12.2.4-18.6s.8-5.1,1.2-7.8-1-7.4,1.6-10.6c3.2,5.1,3.5,10.8,4.8,16Z"/>
  <path class="st11" d="M270,206.1c0-3.8.2-7.6.7-11.7s-2.6-3.5-1.6-5.2c1.8-3.1,6.7-15.3.2-16.4,2.1-2.5,2.2-6.6,4.7-8.8.9,3.5,2.6,6.5,2.4,11s2.4,8.8.3,12.6c-7,12.3,1.8,5.4-6.7,18.4Z"/>
  <path class="st11" d="M256.8,131l-8.2-8.8c-4.1-4.4.9-7.1.1-10.6s-6.3,1.1-8.2-6.5-1.2-4,.5-5.4c2,1.8,3.2,3.9,5,6.1,2.8,3.4,5.2,6.1,6.9,10.4s4.4,3.9,4.3,7.5c.8,1.2,3.2,1.5,3.9,3.2-2,1.6-3.7,2.3-4.5,4Z"/>
  <path class="st11" d="M269.8,151.1c-1-2.2-2.4-5.3-3.8-7.2,1.4-.3,1.9,1.2,2.9,2.2,1.7,1.8,2.3,3.1.9,4.9Z"/>
  <path class="st37" d="M221.1,86.9c-6,4.2-2.6,5.1-12.4,8.5-1.6-.8-3.9-2.4-5.8-3.5s.3-3.5,1.3-4.4,3.6-1.5,6.1-.3c1.2-2.2.8-4.4-.2-6.3,3.9,1.8,7.9,3.2,11.1,6Z"/>
  <path class="st37" d="M197.8,77c-.7,1.4-2.1,1.9-3.3,1.9-2,0-3.2-1.5-4.8-2.6s-5-.9-5.7-3.3c4.9.3,9.3,2.6,13.8,4Z"/>
  <path class="st15" d="M261,195.2c-5.1,9.1-3.2,2.4-5.8,13.8-11.8,1.2.9,8.4-18.6,11.5-11.3,1.8-6.3-2-10.5,3s-4-.8-5.2-1.4l-1.6-2c-.4-9.1-2.5-18.1-6.3-27.1,1.8-1.5,15.7-23.2,18.2-22,3.7,0,8.3,2.1,12.8.8l7,6.3c8.2,7.4,4.6-.1,10,17.1Z"/>
  <path class="st29" d="M206.2,185.1c1.8,2.6,4.9,5.7,5.8,8.8,3.2,3.7,4,9,4.4,13.8s.7,11.8-3.3,14.1c-.4,1.7-1.1,4.7-2,6.3-6.5,11.6-16.4,20.6-29.9,24-17.1,4.3-41,2-53.1-11.1.9,0,2.2-.8,3.4-.4,20.8,7.1,44.5,7.8,61.9-7.2,7.6-6.5,12.4-14.9,13.7-24.4l-1.8-1.9c.5-5.1-.3-10.2-1.8-15,0-2.4,0-10.8,2.7-7Z"/>
  <path class="st16" d="M206.2,185.1c-6.1-.9,3.1,8.2.9,23.9-3.5,2.7-4.9-.2-11,3.1-1.7-.2-3.2,1.1-4.5,3.8-12,12.1-43-9.1-17.6-16.7,0,0,2.1-1.6,6.2-4.9.8-2.5,2.1-4,3.9-4.3,9-5.4-.5,6.5,18.9,2.1.7-3.8.2-6.9,1.1-10,1.3.6,1.5,2.1,2.2,3.1Z"/>
  <path class="st21" d="M220.9,222.1l-.8,2.9c-3.4-1.4-3-5-7-3.2,2.3-9.2,1.5-18.8-1.1-27.9l1-.9c5.1,9.1,10.5,19.2,7.9,29.1Z"/>
  <path class="st37" d="M193,87.8c-.8,0-1.8.2-2-.3-1-1.9,1.8-4.1,3.6-4.2s1.1,1.5,1.3,2.3c.4,2.5-.3,2.3-2.9,2.3Z"/>
  <path class="st2" d="M184,189.8c-2.5,11.7-14.4,11.9-16.9,14.2s.4,8,3,9.7c6.4,4.1,17.5,6.7,22.1-2.3s1.9-1.8,2.9-1,.8.9.9,1.7c-1.1,4.5-5,8.2-10,9-8.2,1.3-15.9-1.5-21.8-7.4-8.2,8.9-23.3,11-30.9,1.5-1-1.8-.9-5.5,1.7-5.4,3.2,5.2,7,8.3,13.1,7.5s6.6-1.6,10.2-3.4c3-1.5,6.5-8.6,2.8-10.3-5.7-2.5-11.3-3.9-14.9-8.6-2.2-2.7-2.1-6.1-.9-9.5,3.3-8.9,23.1-7.9,31.6-5.3s7.2,5.3,7.1,9.6Z"/>
  <path class="st40" d="M204.9,155.4c1.7-1.5,3.6-.4,4.3.8s.7,2.9-.6,3.9-2.7.7-3.5.1c-1.3-.9-1.9-3.3-.2-4.8Z"/>
  <path class="st9" d="M111.9,154.6c2.1-.3,3.4,1.3,3.3,2.8s-.7,2.9-2.8,3.1-2.4-.9-2.9-2.5.1-3.1,2.4-3.4Z"/>
  <path class="st32" d="M152.1,185c3.3,2.4,15.3.2,5.8,0l-1.9-1.9c-.4-1.4,20.8-3.1,19.9,3.4-1.2,8.2-31.3,4.2-23.8-1.4Z"/>
  <path class="st30" d="M152.1,185c1.1-.8,2.4-1.9,3.9-1.9,3.5-.1,7.4-.3,10.3,2.8-3,2.3-16,4-14.2-.9Z"/>
</svg>