<?xml version="1.0" encoding="UTF-8"?>
<svg id="_레이어_1" data-name="레이어_1" xmlns="http://www.w3.org/2000/svg" version="1.1" viewBox="0 0 330 330">
  <!-- Generator: Adobe Illustrator 30.1.0, SVG Export Plug-In . SVG Version: 2.1.1 Build 136)  -->
  <defs>
    <style>
      .st0 {
        fill: #e8d6c6;
      }

      .st1 {
        fill: #442f25;
      }

      .st2 {
        fill: #fdcebd;
      }

      .st3 {
        fill: #e47369;
      }

      .st4 {
        fill: #df9248;
      }

      .st5 {
        fill: #51362a;
      }

      .st6 {
        fill: #f5f4f3;
      }

      .st7 {
        fill: #231812;
      }

      .st8 {
        fill: #db8d43;
      }

      .st9 {
        fill: #fae4d1;
      }

      .st10 {
        fill: #ea7f73;
      }

      .st11 {
        fill: #39271e;
      }

      .st12 {
        fill: #483227;
      }

      .st13 {
        fill: #f48b7e;
      }

      .st14 {
        fill: #e5d6c9;
      }

      .st15 {
        fill: #faecdf;
      }

      .st16 {
        fill: #fcf2e7;
      }

      .st17 {
        fill: #ead7c7;
      }

      .st18 {
        fill: #efa592;
      }

      .st19 {
        fill: #1b1510;
      }

      .st20 {
        fill: #df7065;
      }

      .st21 {
        fill: #fcb7a4;
      }

      .st22 {
        fill: #ececeb;
      }

      .st23 {
        fill: #b23f35;
      }

      .st24 {
        fill: #d5bca2;
      }

      .st25 {
        fill: #fcf2e6;
      }

      .st26 {
        fill: #3e281f;
      }

      .st27 {
        fill: #5d4033;
      }

      .st28 {
        fill: #c77733;
      }

      .st29 {
        fill: #f28c7f;
      }

      .st30 {
        fill: #37261d;
      }

      .st31 {
        fill: #1e1813;
      }

      .st32 {
        fill: #b43e34;
      }

      .st33 {
        fill: #e9a767;
      }

      .st34 {
        fill: #eca662;
      }

      .st35 {
        fill: #dac5b2;
      }

      .st36 {
        fill: #2c1c14;
      }

      .st37 {
        fill: #c57531;
      }

      .st38 {
        fill: #d1b89c;
      }

      .st39 {
        fill: #e4d1c2;
      }

      .st40 {
        fill: #ecded1;
      }
    </style>
  </defs>
  <path class="st17" d="M281.1,193.9c-.3,1.2-.3,2.4,0,3.6,4.2,19.8,6.1,33.3-7.2,50.8-23.4,30.7-79.6,36.3-115.7,35.2-16-.5-33.8-1.4-48.3-7.9-30.2-6.6-62.6-30.9-61.3-64.2l-.8-1.4c0-.4.3-1,.3-1.4,0-3.6,5.3-1.9,5.1,1.2l2.5,2.3c7.9,39.7,55.2,51.8,90.6,55.1,42,3.9,111.4-4.2,122.6-52.9-.9-2.9-1.4-6.3,1.3-8.4-2.4-.5-2.4-.5-.7-2.2-.4-1.6.4-3.1,2.4-4.5,2-3.6,4.1-5,6.2-4.3,0-2.3.5-3.2,1.9-2.7.2.6,1.1,1.1,1.2,1.8Z"/>
  <path class="st26" d="M196.4,66.3c-.5,6.3-2.2,11.8-5.2,16.5l-2.4,2c-15.8,6.3-24.6,18.7-29.1,34.8-12,2.7-22.6-7.5-24.9-18.8-2.5,4.1-4.1,8.7-4.8,13.7-.8,1.9-1.5,2.7-3.6,2.3-4.7-.8-11.1-11.1-12-15.8l-.9.2c-3,.3-3.4-1.7-.7-3.1-.7-3.3-1-6.7-.7-10.2-2-.4-1.6-1.6,1.3-3.6-2.6-1.8-.2-8.1,3-7.1,7.9-12.2,20.9-19,36.8-19.3-3-3.9-7.7-2.7-12.2-5,17.4-7.9,45-1.1,55.4,13.2Z"/>
  <path class="st36" d="M196.4,66.3c7.3.2,13.5,3.6,15.2,10.9,3.2-.2,3.2,3.9,0,4.2,2.8,4.8-3.9,10.7-7.6,13.9-9.8,5.5-18.5,12.2-26.3,19.9l-6.6,11.2c-1,4.2-2.8,7-5.5,8.5.8.5.7.9-.2,1.2-.7.7-1.6,1.5-2.6,1.4-9.2-.9-24.3-13-26.2-22.4-2.3-1-2.8.8-1.6,5.5l-1.7,1.6c-.5,2-2,2.2-4.6.4-3.6-1.8-6.4-4.2-8.4-7.2h-2.4c-2.3-2.5-8.5-12-4.6-14.1.5-1-.6-2.5,1-3.2,2.1,7.8,6.2,13.9,13.2,17.5,1.8-7.2,2.6-14.3,8.5-18.8,1.1,12.7,10.1,22,22.4,21.7,3-14.5,12-27.6,25.5-33.3s5.3-19,12.2-18.8Z"/>
  <path class="st25" d="M78.4,91.4c7,7.8,6.8,14.9-1.9,22.6s-2.3.9-3.5,1h-3c-12.4-10-30-12.9-44.9-7.6l2,.9c3.6,14,16.7,23.8,30.7,26.5l2,2.4,5.6.6c5.4-1.8,3.3,5.3-1.3,6.5-20.1,5.4-62-24.1-48-48,6.8-7.2,19.6-11,29.8-10.7l11.9.4c7.3.2,13.8,4.1,20.6,5.5Z"/>
  <path class="st1" d="M66.9,148.8c1.5-1,2.5-.6,3.8,0,18.4,8.9,22.3,43.2,5.9,55.5-1.2.9-2.1,1.5-3.8.8,0,3-2.5,4.9-7.6,5.5-3.2.8-10.7,2.3-12.1-1-1.6,0-3.3-1.7-5.1-1.2-.2-7.2,1.5-14.5,3.7-21.9l11.2-36.5c-1.4-.8-1.1-1.5,1.1-1.9,1.3-2.9,3.1-2.5,2.8.7Z"/>
  <path class="st12" d="M309.1,95.3c6.4,5.6,7.8,11,5,19.1-5.4,15.3-25.9,31.2-42.3,31.2-5,0-7.5-5.1-3.5-7.4,1.2-.3,2.5-.6,3.9-.9l1.6-2.2c12.3-1.9,23-10.7,27-22.6l2.4-1.2v-1.3c-1.6-2.6-.6-1.8-.7-1.8-9.9-5.4-31.7.2-40.3,7.4l-3-.3-1.4,1.3c-11-6-16.9-16.6-3.5-24.2,11.7-6.4,26-5.7,39.3-3.7s10.8,4,15.6,6.7Z"/>
  <path class="st8" d="M112.7,76.3c-3.4,10.6-20.2,20.6-30.1,12.9l-2.1,2.2c-1.1,1.5-1.7.8-1.6-2.2-8.9-11.8,1.4-44.6,15-41.5,7.6,1.7,5.3,24.6,18.8,28.5Z"/>
  <path class="st4" d="M243.1,53.7c8.6,8.2,9.8,29.8-2.9,37.6-3.8,2.3-5.8,2.5-9.7.2l-2.8.7c-4.7-3.2-9.7-5.9-14.9-8.2l-1.3-2.5c.4-1.1.2-3.1,0-4.2,23.7-5.1,12-25.8,23.1-27.7s5.9,2.1,8.4,4.2Z"/>
  <path class="st38" d="M103.7,275.4c-1.3-2.7,4.3-1,6.1.2,24.2,6.3,49.1,8.2,74.6,6.2s55.9-7.9,77.6-24.4c17.7-13.5,24.6-35.5,18.7-57.1-.6-2.1-1.1-5.2.5-6.4,1.4,6.8,4.4,13.4,4.9,20.8.9,12.4-1.2,24.4-9,33.8-9.2,11.1-20.4,19.1-33.8,24.2-29.5,11.2-62.2,13.4-93.3,11.3s-26.3-1.3-46.2-8.7Z"/>
  <path class="st0" d="M113.4,84.5c-1.7,4.4-.4,9.2-.6,13.8-2.8.6-3.9-1.6-3.1-6.7-21.4,10.4-33.1,33.4-40.1,55.1l-2.7,2.1c-1.2-.7-1.6-.7-2.8-.7l-1.1,1c-10.3-1.1-20-4.1-29.1-9.2-7.4-4.6-12.6-11.5-17.4-19.2-4.6-7.4-5.4-19.4-.3-24.6-7.4,17.6,7.4,32.6,23.2,40.6,8,4.1,16.4,6.9,25.5,5.3s2.2-2.6,2.1-4c-2.9-.3-5.6.8-7.2-1-.3-2.6.7-2.6,1.8-.3.6-1.7,2.1-2.3,4.7-1.6l4.1-9.1,2.5-1.2c-1.4-1.2-1.1-2.7.9-4.5-1-2-1.2-3.8-.8-5.4,2.4-2.6,4.7-5.5,6.9-8.6,5.7-7.8-4.3-10.9-1.5-15.1l.5-2.2,1.6,2.2,2.8.3,6.2,7,16.2-12.7c2.7-2.2,5.3-2.8,7.7-1.5Z"/>
  <path class="st30" d="M279.9,192.1c-.4,1-1.1,1.9-1.9,2.7-1.5-.2-2.6-1.3-3.3-3.1-2.6-1.1-3.5-3.4-2.8-6.8-3.7-7-7.7-16.3-8.2-24.3-.2-3.2-.3-8.2,1.6-10.5-4.3-2.3-5.3-7.6-5.1-12.2s1.3-.9,2.2,0c.5-3.6,4.7-2.5,5.8.3,0,1,0,5.7,2.1,5.6,8.3-.6,16.2-3.9,23.3-8.1,12.5-7.3,29-28.1,14.9-39.8.1-.4.3-.6.5-.6,6.9,3.8,9.9,10,6.7,18.8-7.4,20.5-27.1,33.4-49,35.1l13.2,42.8Z"/>
  <path class="st11" d="M254.2,92.4c2.3.7-3.3,3.1-5.9,9s7.4,13.2,10.9,14c1.2,1.7.5,3.7-2.1,6.1l6.6,13.9-1.3,2.6c-.5-2-.9,4.7,2.9,12.2-1.4,2.5-4.9.7-6.7-1-4.3-16.8-11.4-31.5-21.8-45.6-1-2.1-1-3.7,1.5-4.1,3.1-.9,6-2.9,8.6-5.9l2.3.6c1.3-1.2,3.6-1,5-1.7Z"/>
  <path class="st28" d="M249.2,94.1l-7.5,6.6c-1.2,1-2.7-.7-3.4-1.4-2.7,1.7-8.5-5.3-7.8-7.9,6.8.6,12-3,14.7-9.4,3.9-9.1,3.8-19-2.7-27-.3-.5,0-1.5.6-1.4,11.1,9.2,12.8,25.8,5,38.4s-.9,1.7-.2,2.2,1-.2,1.3-.1Z"/>
  <path class="st37" d="M112.7,76.3l3.7,1.1c-1.3,2.1-2.1,4.9-3,7.1-9,3.5-16.4,9.8-23.9,16.8-3.5-2.9-6.4-6.6-8.9-9.9.7-3-1.5-5.7-1.6-9.2,3.2,3.3,5.6,8,11,7.9s14.8-4.7,19.2-10.4,1.1-4.1,3.6-3.5Z"/>
  <path class="st35" d="M109.8,275.5c-1.9-.5-4.4-1.7-6.1-.2-19.8-7.3-20.4-6.1-36.1-20.5s-13.1-13.6-16.5-22.3-4.8-15.2-3.3-22.8c.4,0,1-.1,1.3.1,2.1,1.6-2.9,18.8,14.7,37.9,12.1,13.1,27.9,21.6,45.1,26.6s1.4.5,1,1Z"/>
  <path class="st24" d="M64,148.2c0,.8-.9,1.3-1.1,1.9-2.6-1.5-5.8-.6-9-1.2-7.6-1.3-14.1-5.2-20.1-8.9-.3-.7.4-.7.7-.7,2.9,0,13.4,9.2,29.5,8.9Z"/>
  <path class="st16" d="M112.8,98.3c-.3,1,.6,2.2.7,3.1.5,5.3,4.3,9.5,7,14.1,2.8,4.5,7.9,7.6,12.9,8.8v-2c-.8-4.4-1.5-9,.7-13.3,2.1,2.4,2.4,4.4,2.7,6.2,1.6,6.7,6.8,11.9,12.3,15.8s14.9,9.7,16.5,5.2c.1-.4,0-.8.2-1.2,1.2-1.5,1.8-1.4,3.3-.8,3.9,1.6,7.9,9.9,9.3,13.8,3.6,23.6,17.2,34.4,36.2,47.4,16.2,11.1,32.9,15,51.5,7.5l3.3.7c.7.5.7,1.4.7,2.2-.2,1.6-1.2,3-2.9,4,2,1.8,2.2,5.4.7,7.7s-20.1,6.4-24,5.1c-5,1.6-9.8,3.5-14.6,5.8-3.5,2.5-6.3,3.9-5.2-1.6l-1.8-2.1c-.2-6.7-1.6-13.2-4.2-19.6-2.2,0-4.3-1.2-6.1-3.9-3-1.7-4.6-3.8-4.7-6.2h-2.6c-27-14.9-62.9-14.1-88.3,4.1h-1.8s.4,2.4.4,2.4c-4,3.9-7.7,8.5-8.3,14.2l-2.1,1.4c0,4.7.8,9.3,2.7,13.5,2.2,3,3,5.8,2.2,8.2,1.7,2.6,1.1,4.3-2.1,3.7s-10.2-12.7-11.1-15.8c-7.9-4.5-15.3-9.9-22.1-16.2-2.5-1.7-3-3.4-1.7-5.1,9.1-7.4,13.5-18.4,12.1-30.2-1.4-12-8.1-20.4-18-26.1,7.1-23.9,20.2-49.6,44.8-60.9.5,3.9-1.1,7.9,1.2,10.3Z"/>
  <path class="st12" d="M230.5,91.5c2.9,1.7,5.3,5.7,7.8,7.9-.4,1.3-.1,3.2,1.1,4.6,4.6,5.3,7.2,11.4,10.7,17.4,8.8,15,4.2,10.4,10.1,26.6,1.2,1.4,3.9,1,5.1,2.1,2,3.9-1.1,8.3,1.5,16.5l3.4,10.7c1.3,3.9,5.5,6.5,3.1,11.4,3.5,1,4.3,3.5,4.7,6.1-2.6,2.6-5.2,7.1-8.6,8.7-16,7.5-34.4,6.9-50-2.7-9.4-5.8-18-12.2-26.3-19.4s-13.4-18.8-15.8-30-6.5-15.8-11.5-16.4c3.9-11.4,9.7-23.3,20.2-30.1l15.3-9.9c5.2-3.4,8.6-7.9,10.5-13.5,6.9,2,12.7,6.5,18.9,10Z"/>
  <path class="st15" d="M109.7,238.6c2.1-.2,4.1,1,5.8,3.5,3.8,2.2,5.9,4.7,6.1,7.5,22.5,14.1,53,15,77.5,5.6,11.4-4.4,21.7-12.1,24.2-24.6-3.3-.2-2.5-4.1.8-4,.2.7-.4,1.6.7,2.5,2.5-2.9,5.1-3,7.7-4.3,18.1-8.8,7.7-.6,22.3-5.5-.8.3,15.6-1.8,12.6-6l-2-2.8c-1.2-1.7,2.7-4.5,4.7-4.8,1.3,16.4-6.6,31.6-20.4,41.5s-27.2,14.5-42.9,18c-32.3,7.2-65.6,5.7-97.4-3.1s-22.7-8.3-32.9-15.2c-13.3-8.9-20.7-22.1-23.4-37.4,6.2,0,14.4-.2,19.7-4.5,2.4,4.2,7,6.5,10.8,9.9,14.3,13.3,13.2,3.9,18.2,18.1s5.2,3.3,5.2,6.3,1.9,1.4,2.3,1.2.4-1.5.4-2Z"/>
  <path class="st5" d="M154.7,68.3c-10.7,2.3-26.4,17.1-30.3,30-1.9-.5-2.9-2.7-3.1-5-1.2-15.7,10.9-28.8,26.4-29.5s14.1-2.4,21.4,1.4l-14.5,3.1Z"/>
  <path class="st5" d="M147.4,97.9c-6.1-6.2-2.8-16.1,3.2-21.7s14.7-9,23.3-8c-13.1,5.8-22,15-26.5,29.7Z"/>
  <path class="st40" d="M165.5,136.1c.5.7,1.1,1.6.8,2.2s-1.4,1.8-2.5,1.4c-10.3-2.9-19-9-25.3-17.6s-1.4-4.8-1.8-7c5.7,11.1,16.5,18.8,28.8,21Z"/>
  <path class="st40" d="M133.5,122.2c1.6,0,3.3,3.3,2.2,4.7-3.6,0-17.3-8.4-15.2-11.5,4.3,2.6,7.9,7,13,6.8Z"/>
  <path class="st29" d="M69.5,122.4c.5,2.5-.6,5.2-3.4,8.2-1,3.2-2.5,5.3-4.6,6.3-1,0-1.4.3-1.8.3-14.6-2.2-26.8-10.4-33-23.5s-1.7-4.2-1.6-6.2c10.2-4.4,25.5-1,35,4.2s10.9,6.3,9.4,10.8Z"/>
  <path class="st20" d="M73,115c1.7,1.5,2.8,3.9,2.8,5.3,0,2-2.4,3.2-2.9,4.7-2.1,2-4.7,0-3.3-2.6-9-13-29.5-16.3-44.4-15,.2-3.6,26.2-11.1,47.9,7.6Z"/>
  <path class="st13" d="M303.2,111.3c-3.7,14.1-16.5,24.7-31,26-1.6.7-5.3.5-6.5-.6s-5.1-12.3-5-12.9c1.5-7.1,19.7-14.6,26.6-15.8s17.3-2.9,16,3.4Z"/>
  <path class="st3" d="M303.2,111.3c0-.5,0-1.1-.2-1.5-.6-.9-1.6-.6-2.8-.7-14.5-.8-28.3,3.9-37.8,14.9,2.4,4.3,4.3,8.1,5.3,12.9,1.7.2,3.1.5,4.5.4-.7,1.2-2.7,1.1-3.9.9-1.9-.3-3.9-.6-5.8-.3-1.6-5.8-4.9-10.9-7.6-16.9l4.4-5.7c12.5-9.4,28-14.2,43.5-8.8,2.7.9.9,3.5.5,4.8Z"/>
  <path class="st33" d="M92.1,52.5c-4.4,8.6-4.5,9.8-6.1,18.7s-1.4.9-1.9.4c-3.6-3.3-3.7-8.2-1.5-12.5s4.3-7.8,9.5-6.6Z"/>
  <path class="st34" d="M228.3,72.3c3.3-6,5-11.7,4-18.9,5.6-1.8,8.3,11.1,5.1,14.8s-4.3,5.2-9.1,4.1Z"/>
  <path class="st10" d="M72.9,125c-1.5,4.2-2.8,7.9-5,11.4s-4.7.3-6.3.5c1-5.5,4.6-10.1,8-14.5.8,1.1,2.4,1.6,3.3,2.6Z"/>
  <path class="st21" d="M207.4,194.9c4.6,3.2,7.8,5.9,10.8,10,11.5,26.3-7.9,40.2-32.3,46.7-27,7.2-80.7.8-81.2-34.7.2-7.9,5.1-13.4,10-18l3.2-.8c24.5-16,60-15.8,86.1-3.8l3.5.6Z"/>
  <path class="st18" d="M224.2,226.7c-.9,1.6-.9,2.8-.8,4-2.4,12.1-13,20.6-24.1,24.5-25.5,9.1-54.2,8.9-77.6-5.6-4.4-3.7-8.9-6.5-12-11-4.5-6.7-7.3-14.5-4.9-21.7,1.5,1.2.9,3.3,1.5,5.5,2.1,8,7.4,14.8,14.9,19.1,26.4,14.8,59.3,14.8,85.2-.5,11.3-6.7,16.2-19.2,11.9-31-.8-2.1-1.3-3.6,0-5.1,4.8,6.7,7,13.9,6,21.7Z"/>
  <path class="st31" d="M126.7,180c.2,4.2-3.2,7.1-7.1,8-5.9,2-11.7,1.9-16.2-2.1s-5.8-8.3-5.5-14c.4-8.3,6.5-14.7,14.4-15.1s14,5.4,15.3,13.3-1,6.8-.8,9.9Z"/>
  <path class="st2" d="M207.4,194.9c-2.5,2.3-5.2.6-8.1-.7-21.1-9.1-58.7-9.1-78.9,4.4-2.1,1.4-3.8,1.8-5.6.3,18.6-17.6,51.4-19.4,74.5-12.9s12.7,5,18.1,8.9Z"/>
  <path class="st9" d="M124.9,138.6c-.5,4.3-9.8-2.6-21.8,5.7s-3.4.6-4.3,0-1.7-3.3-.7-5.1c5.2-8.9,18.2-10.5,25.6-3.4s1.2,2.1,1.2,2.8Z"/>
  <path class="st14" d="M119.6,188c2.7-2.4,5.1-5,7.1-8,1.3,2.8,1,4.8-1.1,6.6s-3.9,1.8-6.1,1.4Z"/>
  <path class="st19" d="M230.8,174.8c-.5,6.1-3.8,11-8.1,13.1s-12,1.3-16.3-3.1c-7.4-7.6-5.8-20.9,3.5-26.1s11.1-1.9,15.4,1.6,6,8.5,5.5,14.4Z"/>
  <path class="st27" d="M230.5,144.7c-2.9,4.6-6.1-6.8-23.3-3.9-1,.2-1.9-.3-2.3-.7-2.3-2.3,4.3-9.5,14.7-7.8s13.6,8.3,11,12.5Z"/>
  <path class="st39" d="M121.6,249.6c24.6,11.9,52.9,13.3,78.7,3.1s17.9-12.3,23-22.1c2.7,29.5-70.1,45.6-101.7,19Z"/>
  <path class="st7" d="M188.3,234.3c5,3.7-26,25-48.8,2.6-.7-.7-.6-1.7-.2-2.2s1.7-1.1,2.7-.2c12,11.3,31.6,11.8,43.6.4s1.9-1.3,2.8-.6Z"/>
  <path class="st32" d="M144.4,208.1c2.7,5.7.2,14.4-5.2,14.5s-3.5-.9-4.5-2.8c-2.3-4.2-1.4-9.5,1.8-13s2.9-1.8,4.4-1.6,2.7,1.2,3.5,2.9Z"/>
  <path class="st23" d="M194.2,214.1c0,3.3-.4,4.8-1.5,6.4s-3.5,3.2-6.1,1.7c-5-3-6.2-13.2-.6-16.3,4.7-2.6,8.2,4,8.2,8.2Z"/>
  <path class="st22" d="M107.6,162.6c2.5-.8,4.3.6,4.8,2.1.7,2.2-.3,4.3-2.4,4.9s-3.7.2-4.5-1.6-.5-4.5,2.2-5.3Z"/>
  <path class="st6" d="M211.6,162.5c2.3-.7,4.2.6,4.7,2.2s-.3,4-2,4.7-4,.2-4.7-1.2c-1.1-2.3-.5-5,2-5.7Z"/>
</svg>