<?xml version="1.0" encoding="UTF-8"?>
<svg id="_레이어_1" data-name="레이어_1" xmlns="http://www.w3.org/2000/svg" version="1.1" viewBox="0 0 330 330">
  <!-- Generator: Adobe Illustrator 30.1.0, SVG Export Plug-In . SVG Version: 2.1.1 Build 136)  -->
  <defs>
    <style>
      .st0 {
        fill: #f9ddb7;
      }

      .st1 {
        fill: #e39947;
      }

      .st2 {
        fill: #7b3d16;
      }

      .st3 {
        fill: #e07737;
      }

      .st4 {
        fill: #f56558;
      }

      .st5 {
        fill: #f8d9b0;
      }

      .st6 {
        fill: #804119;
      }

      .st7 {
        fill: #fac884;
      }

      .st8 {
        fill: #e8c89f;
      }

      .st9 {
        fill: #edecec;
      }

      .st10 {
        fill: #0b0302;
      }

      .st11 {
        fill: #0b0403;
      }

      .st12 {
        fill: #c87a32;
      }

      .st13 {
        fill: #de7b37;
      }

      .st14 {
        fill: #ad5c1f;
      }

      .st15 {
        fill: #e08e3c;
      }

      .st16 {
        fill: #e08d3a;
      }

      .st17 {
        fill: #5d493d;
      }

      .st18 {
        fill: #b66423;
      }

      .st19 {
        fill: #9e8e87;
      }

      .st20 {
        fill: #e49540;
      }

      .st21 {
        fill: #fae0bd;
      }

      .st22 {
        fill: #f6d9b0;
      }

      .st23 {
        fill: #e7c79c;
      }

      .st24 {
        fill: #be6a27;
      }

      .st25 {
        fill: #6e3616;
      }

      .st26 {
        fill: #d88334;
      }

      .st27 {
        fill: #382a20;
      }

      .st28 {
        fill: #6f3613;
      }

      .st29 {
        fill: #783a15;
      }

      .st30 {
        fill: #ac5d21;
      }

      .st31 {
        fill: #d37c2f;
      }

      .st32 {
        fill: #f9c580;
      }

      .st33 {
        fill: #d17a32;
      }

      .st34 {
        fill: #1d130e;
      }

      .st35 {
        fill: #dd8933;
      }

      .st36 {
        fill: #e2bf91;
      }

      .st37 {
        fill: #e9e8e7;
      }

      .st38 {
        fill: #e29441;
      }

      .st39 {
        fill: #6e3612;
      }

      .st40 {
        fill: #db4438;
      }

      .st41 {
        fill: #82441b;
      }
    </style>
  </defs>
  <path class="st21" d="M180,68.1c0,.4,0,.8,0,1.1.6.5,1.1,1,1.6,1.6s.8,1.1.9,1.7c.8,7.9,1.1,15.9.4,23.8-2.1,18.7-3.4,37.5-4.1,56.5.7,13.8,2.8,28.3,18,32,1.8.8,2.8,1.6,2.2,3.7.9.4,1.5,1.2,1.8,2.5,6.6,2.5,5.8,8.6-.2,11.6s-11.5,3.5-12.7,1l-1.8-1.5c2.9-21.6-56.9-17.3-38.3,5.2l-.9,2.1c3.4,5.1,2.2,5.8-2.9,8.1l-9.5,2.7c-1.4,1.7-2.8,2.1-4.1,1.2-3.8,6.5,5.3,11,10.5,13.1l.3,2.3c1,0,1.6.2,1.8.8.1,7.7-4.7,7.8-14.3.5-7.8-1.5-15.9-1.2-24.3.9-5.9-1.4-11.3-1.5-16.1,0-1.5,1.6-3.1,3-4.7,4.2-1.3-2.1-2.1-4.8-2.2-8l-1.9-1.1c-.5-2.6-.7-12.7,3-11.9-.5-.9-1-1.9-.8-2.9,2.4-12,26.2-22.9,37.4-23.7,4.1-3.7,8.5-7,13.1-10,12.8-3,17-11.5,18-23.9l2.2-2v-26.9c-3.2-.2-3.1-4-.4-5.2l-2.1-2.9c-1.1-8.6-5.1-49.5-1.3-53.9s1-.9,1.6-1.3c2-.1,4.3-.7,5.9-1.4h23.9Z"/>
  <path class="st38" d="M216.6,79.1c1.3,1.2,1.3,2.9.3,5.1.6,4.7,1.7,9.5,3.2,14.2l-1.8,10.6,4.6,15.5c.5,3-.2,5.1-2.2,6.2-1.3,1.6-3.5,2.3-6.6,2.1-16.6,5.8-9.3,6.4,3.2,6.3l.5,2.5c-.2,1.8-1.5,2.5-3.9,2.1,1.2,6.7-.8,12.9-5.9,17.4l-.5,2.4.5,2.3c-6,7.2-5.9,19.7,2,25.6v2.4c1,.4,1.1.9.6,1.7-3.1,2.8-5.8-.6-7.5-3.2-3.1-.5-4.5-1.8-4.2-3.6-1.5-.6-2.7-2.1-4.7-2.6-7.7-2-12.8-8-14.9-15.7-2.9-11-3.2-22-2.2-33.5l3.5-38.7c.9-10,.8-19.4-.7-28.8,12.6,1.4,25.7,3.7,36.7,9.9Z"/>
  <path class="st1" d="M150.1,69.5c-3.5,18.9,1.5,39.7,1.8,58.2l-1.6,1.4c-5.3-.3-5.4,3.2-.5,10.4.4,1.1.3,2.5-.3,3.5s-16.1,9.1-18.5,9.3c-3.3-.3-5.9-2.5-7.8-6.6-3.1-1.1-4.5-2.7-4.2-4.8l.3-1.4c12.9-.8-5.5-9.5-10.8-6.4-2.5,1.4-4.6,1.6-6.4.7l-1.7-2.2c1.2-10.8.3-21.6-4.5-31.2,2.8-6.3,6.9-12,12.1-17.1-1.2-1.5-.9-2.9,1-4.2,2.3.9,4.4-.2,6.8-1.2,11.1-4.6,22.7-7.6,34.3-8.3Z"/>
  <path class="st6" d="M109.1,79c.5.7.8,1.4.5,2.1s-1.4,1.3-1.6,2.1l-6.3,7.4-1.6-.5c-6.7,6.3-11.9,14.1-15.2,22.7l-2.5,1.2c-5.1,13.6-7.7,20.5-7.7,20.5-8.3,2.1-16.7,4-25.2,5.8-8.8-.4-17.5-.4-26.1.1-5.7-11.7.3-22.9,9.8-30.5,16.7-9.4,33.1-18.9,49.4-28.6.1.9,0,.9-.4-.2,8.6-3.7,17.7-5.9,26.9-2.1Z"/>
  <path class="st41" d="M248.8,81c.1,1-1.4.6-1.3.6,2.9.3,9.7,4.9,11.3,7.4,2.9-.3,10,3.6,10.9,6.7l10.4,6.8c9.9,2.9,28.2,17.4,26,28.6-1.3,6.4-10.9,3.7-10.2-2.4-7-1.5-13.8.2-20.4,5-9.5,3.3-18.5,5.8-20.5-6.5l-2.3-3.3-2.4-.8-6.1-14.6c-2.6-6.6-6.3-11.8-11.2-15.5-.6.5-1.5,1.1-2,.8-1-.6-10.5-10.3-11.2-11.4l.4-2.4c9-5.3,20.2-3.9,28.8,1Z"/>
  <path class="st29" d="M82.2,81.1c5.9-1.5-11,8.6-11.7,9.1-9.4,6.5-19,11.8-29.3,16.7-20.4,9.8-21.9,33.8-15.7,31.8s13-.2,19.7-.2c10.8,0,17.8-5,28.6-5.2,1.3-3.9,2.6-8.9,5.1-12.5s.7-5.9,3.4-6.9c.7.3,1.8.9,1.6,1.4-2.8,10.8-7.1,23.6-10.8,34.3s-13.4,35-32.4,24.6c-16-8.8-20.4-30.3-22.2-45.5,4-20.6,26.1-27.2,41.7-36.2,7.5-4.3,14.5-8.3,21.9-11.6Z"/>
  <path class="st16" d="M220,80l12.8,13c6.5,5.7,11.2,13.1,14,22.3,2,3.6,2.3,6.8.9,9.4,1,6.4,2.4,12.8,4.2,19.2l-1.1.9c-1.1,1.9-3,1.6-5.6-.9l-2.3.2c-2.9,4.7-8.3,10.2-12.7,13.9s-4.2,3.2-6.5,3.7c-2.2,1-4.8,1.3-7.8.9-3.1,1-5.9,1.3-8.4.8-6.3-4.5,8.2-4.2,4-21.7l6.3-.2,2.1-1.7c15.4,8.7,12.4-.9,1.7-6.8l-.9-2.4c-.4-2.4.8-5.2,0-7.9l-4.5-14c6.6-17.2-6-17,.4-29.7.8.4,2.6.1,3.4.9Z"/>
  <path class="st36" d="M242.7,257.4l1,2.3c-3.1,5.1-7,9.5-11.8,13.2-7.2,2.3-14.4,5-22.3,6.9-17.8,4.4-35.7,7.7-53.9,5.5-20.3-2.4-40-5.5-58.5-12.4-.8-1.9,1.2-1.5,2.3-.5s-1.2,0-2.2-.6c-4.2-2.5-12.4-9.9-10-14.7h3.7c45.1,22.8,104.1,21.5,149-1l2.6,1.3Z"/>
  <path class="st28" d="M312.7,130.8c.7,4.5.6,8.9-.3,13.2-3,6.1-5.4,12.5-7.3,19.3l-4.3,7.2c-2.8,2.6-5.1,6.7-9.2,6.4-4.8,0-9.2,1.2-13,3.6-1.3,3.8-7,1.3-9.5-.7s-6.7-8.4-8.5-12.3c-1,0-1.6-.4-1.9-1.2-4.7-13.5-8.7-27.4-11.1-41.7-3.5-11.2-6.8-23.5-14.9-31.7,0-.8.8-.9,1.1-.6,7.9,6.2,15.1,21.9,18.6,31.5,5.3,9.3,8.9,19.4,10.6,30.3,11,35.5,38.1,13,42.1-13.7,2.7-18-1.8-22.1-14.7-32.9-7.4-3.3-14.2-7.3-20.9-11.8-4.1-1.4-7-4.9-10.9-6.7-1.4-1.2-1.9-2.1.1-2.2l27.6,14c8.4,4.2,15.8,9.4,21.6,16.7s3.9,8.8,4.6,13.4Z"/>
  <path class="st18" d="M278.7,180.5c.1-.8.5-.8,1-.2,1.4-.4,2.4-.3,2.9.5-.9,1.4-2.9.6-4.9,1,8.3,22.9,13.6,45.8-3.9,65.4l-2-.5c-1.7-4.2-3.8-6.5-6.4-6.8l-1.5-1.7-.4-3c11.8-17.8,9-44.5-2.8-61.3-1.9-3.2-1.9-5.3,0-6.3,4,5.4,9.9,14,18,13Z"/>
  <path class="st39" d="M100.1,90c0,2.4-1.1,4.8-3,7.1-4.2,8.4-7.8,16.9-10.9,25.7l-3,3c-2.7,14.8-7.8,40.9-18.9,51.4-.7.7-1.9.7-2.9.5-.4,3.4-6.9,6.4-9,3.1-5.1-.9-10.1-1.9-15-4.2-3-1.9-5.8-3.2-8.4-6.6-5.8-7.7-9.9-16.1-10.7-25.4-.4-4.3-.4-8.6,0-12.9.4-.8.2-2.1.3-3,.4-2.8,3.9,12.5,3.7,9.6,1,11.1,5.3,20.4,12.9,28.6s10.1,8.8,17.1,7.6c7-1.2,12.5-7,14.4-13.7s2.8-6.4,4-9.8c2.8-8,4.8-16.1,7.5-24.3l4.3-12.9c3.1-9.4,9.1-19.2,17.7-23.9Z"/>
  <path class="st14" d="M67.3,239.4l2.1-.6c4.7,4.9,9.7,9.4,14.9,13.6,2.8-.2,5.1,2.4,3,4.7,2.6,6.3,7.9,10.9,13,15.8-1.3.3-2.2-.5-3.1,0-9.9-3.7-19.8-7-28.9-13.7-11-8.2-19.9-19.5-21.8-32.8,1.9-1.3,3.7.3,5.3,4.8,6.1,1.9,10.7,3.7,15.4,8Z"/>
  <path class="st24" d="M61.4,177.8c2.3.3,2.6,1.4.8,2.8.1,2.2.2,6-2.7,6,0,2,0,4.4-.3,6.5-2.8,17.1-3.8,29.2,8.3,43.4l-.2,2.9c-3-.3-5.5-2.2-8.6-3.6s-6.9-1.1-9-3.8-1.1-4.6-3.2-5.5c-6.6-14.1,4.4-34.1,5.8-45.7,2.8-.3,6.6-1.7,9-3.1Z"/>
  <path class="st30" d="M273.7,247.2c-5.7,6.3-10.7,12.7-19.5,16.8-7.3,3.4-14.8,6.7-22.3,9.1-2.3-2.2,5.5-5.2,10.8-15.6-2.1-2.5.1-5.6,3.1-4.2,2.5-3.7,5.9-6.9,10.2-9.5,2.4-3.2,5-5,7.9-5.6,1.3-.2,2.7-1,3.9-.4s6.6,7.5,6,9.4Z"/>
  <path class="st25" d="M312.4,144c-1.1,9.7-4.5,19.7-11.6,26.5-1-3,3-5.4,3.3-8.1.5-4.9,1.3-8,4-12.3s.7-6.3,4.3-6.1Z"/>
  <path class="st25" d="M291.6,176.9c-.2,1-1.3,1.2-2,1.8l-10,1.7c-.3.1-.7.1-1,.2-2.2-1.7,11.8-6.9,13-3.6Z"/>
  <path class="st2" d="M248.8,81l10.1,5.8v2.2c-4.4-2-7.6-5.9-12.2-7.4,1.1-.9,1.7,0,2.1-.6Z"/>
  <path class="st29" d="M52.4,180.9c-5.6.6-10.5-1.4-15-4.2,3.8-.2,6.8,2.7,11.2,2.8s4-.4,3.8,1.4Z"/>
  <path class="st2" d="M312.4,144l.3-13.2c.7,4.2,2,9.3-.3,13.2Z"/>
  <path class="st29" d="M18.3,144.7c-.3-4.1-2.1-8.9,0-12.9.4,4.3.4,8.6,0,12.9Z"/>
  <path class="st2" d="M289.7,178.7c-2,1.5-4.6,2.1-7.1,2.2s-2-.4-2.9-.5c3.1-1.2,6.6-1.9,10-1.7Z"/>
  <path class="st22" d="M247.8,245.2c2.2,2,1.6,4.6-2,8.1-1.2.9-2.4,2.8-3.1,4.2-6.6,1.9-12.2,5.9-19.3,8.3-34.7,12-71.6,12.5-107.1,3.5-10.8-2.7-20.1-6.4-29-12.2-.7-1.7-2.6-2.8-3-4.7-1.3-.1-1.9-.9-2.5-1.9-1.3-2-4.3-14.5-.5-15.3,2.4,1.1-.2,3.9,1.9,6.8,2.6-5.4,7.7-7.2,12.8-5.9,11.7,2.9,11.6-1,27.6-1.1s15.2,13.2,19.4,2.8c1.1-.7,2.2-.6,2.9.6,1,7.7,2.5,15.3,4.4,22.8h2.4c17.1,21.1,32.4-4.6,31.2-22.6l2-1.3,1.3-2.1c4.8-.6,9-3.3,12.2-6.8l2.5.2,1.2-1.9c4.4,1,8.8,1.8,13.3,2.2,7,3.7,14.9,5.7,23.8,5.9,3.5,1.7,5.8,4.9,6.8,9.5-1.1-.3-.8,0,1,1Z"/>
  <path class="st0" d="M210.7,195.3c11.3,1.1,36.2,12.2,38,24.3.1,1-.5,1.9-1,2.8,3,1.5,4.1,4.8,3.6,10l-1.1,11.3-2.3,1.5c-.3.2-.8.5-1.5,1-2.6-1.7-2.4-5.7-4.4-8-3.9-4.6-17.5,0-26.4-7.6-8.6,0-6.2-1.6-13.9-2.1-1.3-.7-1.9-2.3-1.6-4.8-4.6,12.5-20,13.6-29.3,5.7s-5.3-4.6-2.7-7c-.4-1.3-.3-2.2.2-2.8l1-1.7c5.3-.9,11.9-3.2,14.4-8.2-2.8-1.3,1.4-7.3,4.1-6.1l11.4-2.7c2-.5,3.8-1.7,3.8-3s.7-4.6-1.1-5.2-3.6.4-3.8-.7.7-2.5.8-3.5c7.5,3.2,5.7,5,11.7,6.8Z"/>
  <path class="st20" d="M151.9,127.6c0,1.5.2,3.7.4,5.2v26.9c-2.7,27-12.7,23.7-20.8,28.5l-12.5,7.4c-1.9.1-1.5-.2,0-1.1l.2-2.3c12.2-8.7,8.1-31-8.7-29.8l-1.4-1.7-2.3-.2c.7-4.9,0-9.8-2.1-14.7l.6-1.9c-1.3-4.9,12.1-7.1,13.7-3l5.1,3c2.1,1.2,3.2,6.2,6,6.6,8.7-1.1,9.7-6.7,18.1-8.5.4-4.9-7.6-9.4-2.3-13.9s4.1-1.6,6-.4Z"/>
  <path class="st13" d="M102.2,190.7c2-.8,4.6-.2,7.6,1.9l3.7.8c2.5-.6,4.3-.2,5.4,1.2v1.1c-12.1,7.1-27.4,6.1-36.7,26.6-3,3.1-8.1-1.7-10.6-4.3s-8.1-10.2-5.3-13.4c-2.4-5.3,1.9-8.9,6-12.2,7.8-6.2,21.6-7.1,29.8-1.7Z"/>
  <path class="st33" d="M66.5,204.6c2.8,7.7,7.4,15.4,15.9,17.6-1.7,3.7-.8,9.2-1.1,13-.5,5.9,1.7,11.5,3.1,17.2-2.4,2.7-16.2-11.9-17-13-5.8-7.1-10.7-15.3-11.9-25-1.1-9.7.4-19.4,4.1-27.8,2.2-1,3.3,1.1,3.5,6.2,2.4,3.8,3.5,7.7,3.5,11.7Z"/>
  <path class="st27" d="M187.9,203.6l-4.1,6.1c-3,4.4-7.6,7.2-13.8,8.2l-1.7,1.7-.2,2.8c-1.9.3-2.9-.8-3.1-3.3,0,2.1-.7,3.2-3,3.3-2.5-1.2-2.6-2.2-.3-3.8-4.9-1.5-9.1-3.8-12.4-7.1-1,.8-1.8,0-2.3-2.1-1.5-2.2-3.4-4.4-4.2-7.3-1.6-5.7,1-10.7,6.5-12.9,9.5-3.7,20.1-3.8,29.8-.9,7.3,2.2,9.9,8.2,8.9,15.2Z"/>
  <path class="st34" d="M168.1,222.4c2.4,6.1,9,9.2,15.9,9.8,13.5,1.2,12.1-10.8,16.3-10.5s2.4,1.5,2.1,3.3-.5,2.4-.7,3.5c-4.1,4.8-9.6,8.5-16,8.7l-1.9,2c-6.1.5-14.3-4.5-18.7-8.4l-8.4,5.4-2.7-.9c-2.7,5-8.8,3.6-12.9,1.7-5.5-2.4-11.4-4.7-13.8-11s-.3-2.4.3-3.4,1.9-.5,2.6-1.1h2.6c3.8,12.3,20.7,10.4,26.7,1.1l2.3-.2c2.5-5.2-.8-5.9,2.6-6.8s1.3,1.2,3.5,6.8Z"/>
  <path class="st5" d="M149.2,211.5l4.4,3.6c2.9,1.1,5.6,2.3,8,3.5.2,1.1.3,2.6.3,3.8-4.3,8.9-17.3,12.5-26,7.2-3.2-2-3.4-6.1-5.7-8.1,1.1-.9,1.8-2.4,3.6-3.1,4.2-1.5,8.6-1.9,12.5-3.9s.4-3.9.5-5c.5.8,2,1,2.3,2.1Z"/>
  <path class="st40" d="M154,235.2c.7,4,.3,8.4-1.2,13.1.2,5-.7,9.3-2.7,12.9-7.9-13.9-4.3-22.1-7.2-23.4l-1.8-.8c4.4-.7,8.8.1,12.9-1.7Z"/>
  <path class="st1" d="M152.3,159.7c-.4-8.9-.4-17.9,0-26.9,1.5,8.8.9,18.1,0,26.9Z"/>
  <path class="st10" d="M223.8,161.7c4-2.4,7.8,4.6,9.1,8.1s3,12.4-1.2,13.7c1.6,3.5.6,4.5-2.7,6.1,1.5,3.5-6.1,6.6-9.1,7.1s-7.4-.2-9.6-3c-5.4-2.8-8.1-8.8-8.3-14.7s1.4-11.9,5.7-15.5,12.2-4,16.2-1.8Z"/>
  <path class="st3" d="M247.6,222.4c-3.6-10-11.8-16.8-21.9-20.8-5.4-2.1-10.9-3-15-6.4,0-.6-.3-1.1-.5-1.7,6.4,3.4,13.5.4,18.7-4.1.7-1,1.5-1.9,2.7-2.4,1.9-.7,13.6,0,15.9,1.3,8.5,4.5,14.7,12.8,11,22.6s-6.9,14-10.8,11.4Z"/>
  <path class="st32" d="M220.8,130.8c6.2,1.5,14.9,10.3,10.5,14.1s-8-3.2-13.4-3.3c-3.6-2.9-13.7,1.5-14.9-2.6-1.8-5.9,12.4-9.7,17.8-8.3Z"/>
  <path class="st15" d="M102.2,133.8l.5,1.3c-3.3,3.5-4.3,6.4-3,8.7,2.6-1.7,4.5-1.6,5.7.1,2.6.3,4.1,15.3,4.3,14.9-.2.5-1.1,1-1.4,1.4s.5.6.9.5l-.7,2.4c-7.6,3.3-10.1,11.8-8.6,19.4l-1.6,1.9c.7,8-5,.6-6-4.8-4.3-7.7-8.9-15.2-13.8-22.4l.9-7.6-1.2-.6c2.5-7.6,4.2-15.3,5.2-23.1,3.7-12.7,9.1-24.9,16.9-35.9,3.2-1.7,4.5-5.5,7.9-6.8-1.3,5.6-7.1,8.4-9.8,14.9-1.3,3.1,1.8,5.6,2.5,8.1,2.3,8.3,2.9,19.7,1.5,27.6Z"/>
  <path class="st7" d="M119.1,140.9c-5.3-.3-10.2,0-13.7,3-3.1.3-5.2,2.8-7.2,1.3-3.4-2.7.3-8.9,3.9-11.4,7.2-4.8,16.3-4.2,22.4,1.5s2.3,3.5.8,4.7-4.4.7-6.3.9Z"/>
  <path class="st2" d="M252.5,123.9c6.9,2.6,2.7,12.5,11.7,10.4l11.8-2.7c-1.9.4,13.1-9.4,22-3.9.5,1.6-1.1,3.8,1.1,4.4s3.1,1.2,4.4.4c2-1.3.3-3.4.4-4.8.3-5.1-1.8-7.1-5.2-10s-8.5-10-13.2-11.8-11.4-5.8-15.9-10c2.9,1,5,1.9,8,4.3,7.8,6.4,10.8,2.8,16.7,9.3s10.1,7,11.7,12.6c7.3,25.6-11,54.1-27.2,52.4-11.7-1.3-16.1-12.5-18.5-23.4s-4.6-18.4-7.8-27Z"/>
  <path class="st31" d="M260.7,167.6c3,14.1,8.2,3.9,12.1,37.9,1.4,11.8-2.4,23.4-9,32.7s-11.6,11.3-18.1,15.1c0-2.8,1.5-5.3,2-8.1,1.3-7.4,2.5-15.5-.1-22.8,3.6-1.3,4.7-5.2,6.8-8.2,4.5-6.4,4.3-13.5-1.5-19.1-8.6-8.3-12.9-7.1-24.1-5.6.2-2.2,2.3-4,2.7-6.1,6,1.8,10.6.6,13.9-3.6,2.3-5.3,5.6-9.3,9.8-12-1.6-7.3-3.7-14.5-6.2-21.6l1.7-1.6-3-14c-.5-2.2-.2-4.3,0-6.1,2.3,7.6,5.1,15.3,6.4,23.7,1,7,5.2,12.8,6.6,19.2Z"/>
  <path class="st35" d="M250.8,144.7c1.6,7.4,7.4,20.8,6.5,24.2s-2.1.6-3,1.5c-3.7,3.4-5.2,8.5-8.5,12.3-4.4,5.1-14.5,4.1-14.2.7,1.7-8.1-.2-17.5-7.9-21.8,1.5-6.2.5,1.1,9.3-9.7s5-2.9,6.3-5.5,1.7-3.8,3.2-4.3c4.9-1.4,5,2.1,8.3,2.6Z"/>
  <path class="st12" d="M79.3,149.6c1.2,7.2-8,30.1-14.4,32s-1.9-.3-2.7-.9c-.1-1-.4-2-.8-2.8,5.6-5.9,10.4-12.7,12.8-21l9-30.9c1.5,1.9,1,4.5.3,7.1l-4.3,16.6Z"/>
  <path class="st26" d="M98.3,184.4c2.8-.5,5.9,3.8,3.9,6.3-13.2-1.6-22.2-4-31.6,6.2-2.1,2.3-4.6,4.4-4.1,7.7-1.5-4.3-5-8.1-6-13.1s.6-4.1-1-4.8c.9-1.9-.2-5.1,2.7-6,8.1-2.4,15.3-23.9,17.1-31.1-.8,4.1.8,8,3.7,11.6,5.8,7.2,10.8,15.1,13.6,24.3,1.3,1.7,1.9.7,1.7-1.1Z"/>
  <path class="st4" d="M185.7,237.2c.7,13-5.7,35.2-21.7,33.7-6.2-.6-10.9-4.6-13.9-9.8-.2-8.9.8-17.6,3.9-25.9,3.9-1.7,7.3-4,10.9-7.3,5.9,5.8,13.1,9.5,20.8,9.3Z"/>
  <path class="st23" d="M168.3,219.6c0-.7-.9-2.3-.3-3.3,6.1-.8,11-3.5,15.8-6.5,3.2,4.2-12.4,11.4-15.5,9.9Z"/>
  <path class="st11" d="M119,194.5c-5.9,2.3-12.2-.4-16.8-3.8-.9-2.1-3.4-4-3.9-6.3-2.6-9.7.9-20.4,10.9-23.7s10.4.9,13.6,3.7,5.5,7.8,5.4,13.3-2.9,14.3-9.2,16.7Z"/>
  <path class="st17" d="M151.1,197.5l1.7-1.7c10.1,1.3,17.1-2.6,1.7-1.2l-1.4-1.9c.2-1.7,2.4-1.1,4-1.1,5.4-.2,21.9-2.8,22.3,3.5s-26.5,8.6-28.2,2.5Z"/>
  <path class="st19" d="M151.1,197.5c-.2-.9-1.3-2-.5-3s1.5-1.9,2.4-1.9l8-.4c2.6-.1,5.1.7,6.1,3.2-5.1,3.2-10.8,3-16,2.1Z"/>
  <path class="st8" d="M161.6,218.6c-4.7,1.2-11.1-2.5-12.4-7.1,3.9,2,7.9,3.8,12.5,4.9.4.6-.2,1.8,0,2.2Z"/>
  <path class="st37" d="M210.2,167.2c1.9-.8,4.1-.3,5,1.4s.5,4-1.6,5.2-3.9.5-4.9-1.3-.6-4.4,1.5-5.3Z"/>
  <path class="st9" d="M106.2,167.2c2.3-1.3,4.3-.1,5.1,1.7s.3,3.8-1.5,4.9-3.5.4-4.5-.8-1.5-4.5.8-5.8Z"/>
</svg>