<svg width="150" height="150" viewBox="0 0 150 150" fill="none" xmlns="http://www.w3.org/2000/svg">
<g clip-path="url(#clip0_94_78)">
<path d="M67.6425 20.1601C71.5931 15.9466 78.2817 15.9466 82.2323 20.1601L134.15 75.539C140.138 81.9256 135.61 92.3786 126.855 92.3789H124.937V122.379C124.937 127.902 120.46 132.379 114.937 132.379H89.9374V98.3789C89.9374 95.0652 87.2511 92.3789 83.9374 92.3789H65.9374C62.6237 92.3789 59.9374 95.0651 59.9374 98.3789V132.379H34.9374C29.4145 132.379 24.9374 127.902 24.9374 122.379V92.3789H23.0194C14.2652 92.3786 9.73707 81.9256 15.7245 75.539L67.6425 20.1601Z" fill="#262626"/>
</g>
<defs>
<clipPath id="clip0_94_78">
<rect width="150" height="150" fill="white"/>
</clipPath>
</defs>
</svg>
