<?xml version="1.0" encoding="UTF-8"?>
<svg id="_레이어_1" data-name="레이어_1" xmlns="http://www.w3.org/2000/svg" version="1.1" viewBox="0 0 330 330">
  <!-- Generator: Adobe Illustrator 30.1.0, SVG Export Plug-In . SVG Version: 2.1.1 Build 136)  -->
  <defs>
    <style>
      .st0 {
        fill: #944621;
      }

      .st1 {
        fill: #fb9e81;
      }

      .st2 {
        fill: #b15517;
      }

      .st3 {
        fill: #f2b878;
      }

      .st4 {
        fill: #fce6c8;
      }

      .st5 {
        fill: #f4f4f3;
      }

      .st6 {
        fill: #7c3c1e;
      }

      .st7 {
        fill: #753312;
      }

      .st8 {
        fill: #b85817;
      }

      .st9 {
        fill: #1b1610;
      }

      .st10 {
        fill: #261c14;
      }

      .st11 {
        fill: #4f2611;
      }

      .st12 {
        fill: #b05218;
      }

      .st13 {
        fill: #723517;
      }

      .st14 {
        fill: #e8816f;
      }

      .st15 {
        fill: #4e2612;
      }

      .st16 {
        fill: #874120;
      }

      .st17 {
        fill: #5f2e15;
      }

      .st18 {
        fill: #77391c;
      }

      .st19 {
        fill: #864020;
      }

      .st20 {
        fill: #b25617;
      }

      .st21 {
        fill: #45210f;
      }

      .st22 {
        fill: #1b1510;
      }

      .st23 {
        fill: #8f4017;
      }

      .st24 {
        fill: #542811;
      }

      .st25 {
        fill: #964619;
      }

      .st26 {
        fill: #864222;
      }

      .st27 {
        fill: #fceeda;
      }

      .st28 {
        fill: #6f3518;
      }

      .st29 {
        fill: #fa9c82;
      }

      .st30 {
        fill: #f7f7f6;
      }

      .st31 {
        fill: #fdddb3;
      }

      .st32 {
        fill: #dd8636;
      }

      .st33 {
        fill: #964417;
      }

      .st34 {
        fill: #a24b19;
      }

      .st35 {
        fill: #b05017;
      }

      .st36 {
        fill: #9f4a1a;
      }

      .st37 {
        fill: #c75116;
      }

      .st38 {
        fill: #fcab90;
      }

      .st39 {
        fill: #fce0ba;
      }

      .st40 {
        fill: #dea366;
      }

      .st41 {
        fill: #c55016;
      }

      .st42 {
        fill: #4e2511;
      }

      .st43 {
        fill: #5d2b13;
      }

      .st44 {
        fill: #ec8976;
      }

      .st45 {
        fill: #91451b;
      }

      .st46 {
        fill: #813e20;
      }

      .st47 {
        fill: #efcb9e;
      }

      .st48 {
        fill: #673015;
      }

      .st49 {
        fill: #dd8637;
      }

      .st50 {
        fill: #934621;
      }

      .st51 {
        fill: #632f15;
      }
    </style>
  </defs>
  <path class="st17" d="M184.1,56c17.3,6.1,27.2,28.4,15.7,45.3s-9.9,6.4-13.6-3.3l-2.3-3.8c-4.3,9-11.3,15.9-20.9,20.6l-3.1,3.7c-.9,3-2.3,4.8-4.3,5.4-2,1.8-8.4-.2-10.7-1.3-7.4-3.6-11.6-13.6-13.6-21.1l-2.5,4.2c-2.4,10.1-4.8,16.6-12.3,4.4s-3.8-32.9,6.2-43.1c13.7-15.6,42.4-18.2,61.4-11.1Z"/>
  <path class="st21" d="M204.3,66.9c3-.8,4.5,2.5,4.1,5.2,12.5,13.9,6.2,37.4-8.1,47.9-3.7,2.7-10.8,7.3-14.7,4.1-1.7-1.7-2-4.4-1-8-.9,3.9-2.6,5.6-5,5.1.1,1.6-.5,3.1-1.4,4.4-6,5.7-11.7,11.5-17.2,17.4-3.2.3-10.8-2.6-11.6-6-4.4,2.2-10.4-5.1-12.9-8.8s-7.5-12.6-3.9-16.3c-.1-2.2.9-2.9,2.3-1.3l4.9,9.8c.9,2.3,2.7,2.9,5.4,1.9,3.8,2.3,7.3,2.9,10.5,1.7,5-18.9,20.1-10,27.3-33.6,5.5,4.5,6.4,10.6,9.3,16.4,12.2-9.6,13.6-27.5,4.6-39.3s-7.7-7.7-12.4-10.6c-1.1,0-1.4-1-.3-.9,7.1,2.7,14.4,5,20.2,10.9Z"/>
  <path class="st48" d="M255.3,149c1.5,2.5,2.7,5.4,3.6,8.7,1.1,3.6,2.5,5,4.3,4,4.7,2.5,8.7,6.1,11.9,10.9,6.9,8.7,12.2,17.6,16.1,26.5,4.1,11.5,3.5,24.5-1.5,36.7-3.1-4.1-4.7-8.4-8.2-11.4-.3.2-.4.4-.4.6l-2.1-.3c-.4-3.8-1.9-6.6-4.5-8.4.5,8.4-.8,16.7-3.9,25l-2.6,1.6c1.3,3.7-3.6,12.6-8,11.1l-.6-2.9c6.9-12.2,12.4-26.2,8.3-40.3l1.2-2.8-2.1-2c-4.9-20-10.6-39.8-17.1-59.4-1.4-3.7-1-5.9,1.3-6.7,3.1-.8,6.6,7.1,4.2,9.1Z"/>
  <path class="st33" d="M243.1,103.8c-.3,1.8-1.5,3.5-3.6,5.2,5.5,7.4,8.5,16.3,11.3,25s.3,2-.5,2.9c2.6-.8,3.6,2.1.7,3-.4,2.9.4,5.6,1.3,8.8l13.2,42.9c1.7,5.6,3.2,11,3.3,16.4-.3,2.5-2.6,4.3-5,2.9l-2.1-1.4c-.4-5.4-1.3-10.9-2.8-16.6l-2.9-3.6c-9.6-37.2-14.3-55.8-14.3-55.8-3.7-15.2-11.6-28.7-23.6-39l-1-3.5c-1.4-3.4-2.2-7.2-2.4-11.2,1.1-.6,1.8-1.6,2.2-3l-1.6-1.8c1-5.1,4.7-18.2,9.9-20s1.7-.3,2.7.8l.3,3.1c-4.6,7.5-8.1,22.5-5.6,31,2.2,1.5,3.6,3.4,4.3,5.8,2.8-.4,3.4.7,2,3.1,2.6.2,3.9.3,5.6,2.3,14.9-11.6,17.2-29.3,10.5-46.2-11.5-29-30.2-6.8-33.9,13.3l-2.1,1.7c.3,1.6,0,2.2-.8,2-.9-1.7-3.6-3.1-4.1-5.2,4.7-9.6,9.7-19.3,18.2-26.3s13.8-4.8,19,1.1c14.2,16.2,15.4,40,3.4,58-1,1.5-1.8,2.7-1.8,4.1Z"/>
  <path class="st20" d="M115.6,72c-.6,3-6.1,13.8-9.4,9.2-.2-8.9-2.8-16.7-7.7-23.3-1.8,1.5-2.7.6-2-1.6-1.6.2-3.3-.1-5.2-1-12.2,5.4-8.8,29.1-.5,37.3l-.3,2.4c.8.4.7.8,0,1.1,2,2.1-2.3,5.9-4.2,6-4.7.2-9.8-11-11.4-15.4-5.3-15.1-1.5-29.5,6.8-42.4l3.3-3.4c12-7.2,19.8,1.1,26.3,11.3s8.9,15.1,4.4,19.8Z"/>
  <path class="st24" d="M281.1,224.9c.4,10.4,5.5,24.4,18.4,26.1-5.2,15-19.8,21.2-34.6,17.8-.8-.4-1.7,0-2.8,1.4-2.8-1.7-5.4-2.6-8.1-3.2-5.6-1.3,3.3-11.7,6.9-7.9-1.6,7.8,14.1,9,18.8,5.1-.2-1.6,1.3-2.8,4.3-3.7-3.6-1.2-11.9-4-9.2-8.5-1.2-2.6-2.7-4.8-4.2-6.6-1.8,1.4-3.5-.4-2.6-2.8,2.1-7.2,4.7-14.7,4.8-22.8s-1.9-6.8.2-10.8c1.2,5,5.8,7.1,6.8,11l1.2,4.8Z"/>
  <path class="st7" d="M53.9,214c.6,25,12.8,43.5,34.4,56.5,40.2,24.3,104.9,24.1,145.9,1.7l4.9-.4c1,3-6.2,9.6-8.7,7.1.3.9.3,2.1-.4,2.4-5.2,2.5-10.8,4.9-16.5,5.6-14,3.1-28,5.6-42.7,5.5h-10.6c-34.1-.1-78-10.9-98.7-40.9-4.7-6.9-8.4-14.5-9.2-22.9-2.3-23.8,3.2-33.9,9.7-54.7,2.1-1.6,2.7-.7,2.7,1.8-4.1,12.2-7.2,24.5-9.1,37l-1.6,1.2Z"/>
  <path class="st51" d="M273.1,135c8.3,11.6,14,25.7,12.6,41.7-3.5-2.1-8.5-9.9-13.6-10.1-3.1,1.1-4.1-2.2-1.1-3.6l2.2-1.5c10.8,5.8,7-6.7,2.8-12.2h-2.3c-4-7.9-9.7-13.9-16.8-18l-1.7.8c.6,4.5,2.4,8.9,5.3,13.1.4,3.2-.5,4.7-2.7,4.6-1.3,1.8-2,1.3-2.5-.8l-4.2-9.1c.1-.9-.4-2.1-.7-3,0-4.3-1-9.2-3.3-14.6,4-15.3,20.5,6.4,25,12.4l1.2.2Z"/>
  <path class="st25" d="M90.4,96.1c1-1.5,2.3-1.3,3.9.5.5,0,7-5.7,7.1-6.1,2.7-8.4.4-21.6-3.5-29.5l.6-3.1c6.9,4.5,7.5,14.6,9.4,23.2,2.7-2.4,5.7-6.1,7.7-9,.8-.5,1.1-.2.8.8l.7,1.6c-4,7.6-5.3,16-4.4,24.6l-1.1,1.1c-2.3-.7-3.4-3.1-3.2-7.2-7.5,5.4-14.1,12.3-19.3,19.9h-2.4c-1.3,1.5-1.8,1-.8-.8,1.4-1.5.4-4.7-1-6.1-16.1-17-19.1-45.1-3.2-61.6,1.1.1.8,1,.2,1.9-10.9,17.3-11.9,38.5,2.8,53.8,2.5,1.1,4.4-3.1,5.8-3.9Z"/>
  <path class="st34" d="M86.7,112.8c0,4.2-1.5,8.5-4.1,12.8-6.5,21.5-12.4,43.3-17.6,65.2l-2.4,3.1c-2.9,8.5-3.9,17.1-3,25.9l-1.8,1.9c-3.9,3.3-5-4.6-3.9-7.8-.6-7.9,5.1-25.9,7.9-34.9s2.1-4.1,0-5.1c4.8-15.5,14.2-51.4,24-62l.8.8Z"/>
  <path class="st42" d="M155.5,124c-1.5,5.5-8.7-1.2-11.5.3-7.6,3.9-8.9-16.6-11.5-12.4l-1.4.2.3,9.5c-2.2,6.3-9.6,0-13-3.5s-10.3-13.4-6.7-18c-.4-9.5.1-18.9,4.9-27.3-.7-3,1.8-6.1,4.9-5.8h1.3c.8.5.9,2.1,0,2.8-3.8,2.6-4.8,6.6-6.6,10.4-4.6,9.3-3.6,29.3,8,35.5,1.5-7.5,3.1-14.7,9.3-18.6-.2,14.6,9.3,26,22.2,26.8Z"/>
  <path class="st43" d="M274.9,252.1c-1.4.9-3,.4-4.8-1.6-1.2,3.6-3.2,5.9-6,6.7,1.3,1.1,1.2,2.3-.5,3.8,4.5,1.7,9.3,2.3,14.4,2l1.1,1.1c.3-.9.5-.8.8.1-2.2,6.3-14.3,4.1-19.3-.7s.1-4.1-2.7-3.7-5.2,4.2-3.5,5.4c2.4,1.7,5.2,2.5,7.6,3.8l.9-1.7c.3-.5,1.5-.5,1.8-.2s.3,1.5.4,1.8c1.3,2.1,4.7,2.7,7.5,3.7.4,2.3-2.4,2.3-3.5,3.4l-1.9.6c-3.8-2.6-7.9-4.9-12.2-6.9-2.4,1.9-4.7,3.2-7.8,3.5,1.3,2.4.6,2.8-1.8,1.8v2.3s-11.3,5.6-11.3,5.6c-1.8,4.2-7.2-1.1-3.6-3.9,3.2-1.7,5.8-5.3,8.7-7.1,1.9-3.7,4.9-6.8,9.1-9.2,3.6-4.2,7.6-7.1,11.9-8.7,2.3-2.4,5.6-4.2,6.1-8.7s1.5-1.8,1.9-2.4c.7.8,1.7,1.4,2.7,1.6,2.8.6,4.8-6.9,5.3-1.5-2,3.2-2.7,6.1-1.2,9.2Z"/>
  <path class="st15" d="M243.1,103.8c2.2,3.7,5.3,7.4,9.2,9.8,9.1,5.7,15.1,13.3,20.9,21.3.1.2-.4,1.1-.6,1l-1.4-1.1c2.2,1.8-17-21.4-21.4-15.1s6.6,15.2.6,17.2c-3.8-9.5-6.7-19.2-13.2-28,1.5-2.7,3.5-4.4,5.9-5.2Z"/>
  <path class="st13" d="M269,276c-3.1,3-7.3,4.4-11.2,6.1-7.3,2.1-14.7,3-22.2,2.9l-1.8-2.1c-.4-1.7,1.1-2.7,2.7-3.5l8.6-4.4c2.5.4,3.1-.2,1.8-1.8,2.1-2.4,5-3.8,7.8-6,4.4,3.2,13.3,6.2,14.2,8.8Z"/>
  <path class="st15" d="M233.9,282.8c7.1.2,14.2.9,21.3-1.7s2.2.3,2.6.9c-13.9,6.1-29.6,8.3-44.5,4.9,2.1-2.3,12.4-5.7,17-8,.6,2.6,1.1,3.8,3.6,3.9Z"/>
  <path class="st11" d="M257.7,149.8c2.7.6,4.6,4,2.3,6.2l9.1,6c1.7-1.9,2.2-1.5,1.9,1,0,1.3.2,2.6,1.1,3.6,3.7,4.3,7,9.1,10.5,13.9,4.4,6,6.4,12.2,8.6,18.6,0,1.1-.9,1.1-1.3,0-6.1-14-14.6-26.5-26.9-36.2-1.8.6-.3,2.5-1.8,4.2-2.9-5.8-5.9-11.8-6-18.1.8.2,1.7.4,2.5.8Z"/>
  <path class="st45" d="M121.4,67c-.8,2.4-3.8,3.8-4.9,5.8-.2-.3-.5-.6-.8-.8.3-11.4-6.1-22.4-14.7-30.2s-15.9,2.3-16-.9c4.4-4.6,11.5-5.1,17-.9,7.8,6,13,14.6,17,23.7s1.2,2.9,2.5,3.3Z"/>
  <path class="st6" d="M152.5,66.5c-13.7,6.6-25.6,15.5-31,30.6-2.5-2.2-2.7-4.8-2.4-7.8,2.4-22.7,24.8-35.2,45.9-28.3-5.4.9-8.6,3.7-12.5,5.6Z"/>
  <path class="st46" d="M144.7,102.8c-7.2-8.6-3.8-20.3,3.4-27.2s13.8-9.6,22.8-8.5c-14.4,7-24.2,18.7-26.2,35.7Z"/>
  <path class="st8" d="M111.6,100.1c1.6,10,7.7,19,17.9,23-.5-5.5-1.2-10.1,1.5-15.2.4,1.2,1.3,2.6,1.5,3.9,1,10.6,7.6,20.6,16.9,25.2l1.3,1.3c1.1,1.2,1,2.7-.3,4.7l2.1.6,3.2,21.3c2.5,9.8,8.2,17.3,12.9,3.8l5.9-32.9,3-3.8-1.5-1.8,3.7-9.1c2.9-3.4,3.7-8.6,6.4-13.2,1.4,5.2.5,10.7-.3,16.1,2.7,1.6,5.8,1.1,8.6,0,13.8-5.8,19.8-18.1,20.9-32.7l2.3-.2c27.1,22.8,25.6,42.7,34.5,75.1,2.6,9.2,5.3,17.9,7.2,26.8,1,5.2,2.1,10.4,3.3,15.6-2.3,1.4-3.7,3.6-4.2,6.8l-3.5,5c-1.8,2.7-3.6,3.5-5.6,2.6l-1.1-2.1c17.9-22.8-19.3-39.7-29.2-14h-2.4s-2.7.6-2.7.6l-10.3-6.6-.9-2.6-4.5-.5c-28.7-9.2-61.2-7.9-87.1,8.4.8,3-1.6,3.8-4,2.4l-2.2.2c-5.1-13.3-22.1-19.9-32-8-5.2,6.3-5.3,12.8,1.3,18.1l-1,2.2c-2.8,1.7-5.7-1.3-7.4-3.7-4.5-6.4-5.6-16.2-2.8-23.4.8-7.4,2.5-14.6,5-22.1,7.4-22.2,7.8-40.2,19.1-59.1s15.6-19.3,23.9-23.7c-.6,5.1.5,7.9,1,10.9Z"/>
  <path class="st36" d="M217.1,76.9c-1.1,4.5,2.1,9.7.2,14.2s-1.1,2.1-1.1,3.9c-1.1,28.2-31.9,37.7-30.6,29.2,10.9-1.7,19.9-9.6,24.2-18.8,5.2-11.3,4-23.1-1.3-33.2,0-.8.6-1.5.8-2l2.4.6c1.2,3.1,3,5.2,5.5,6.2Z"/>
  <path class="st40" d="M177.4,132l-1.6.3c-4.3,7.4-14.1,20-24.2,11.1.7-.7.3-.8-1.3-.3-.3-1.9-1.9-3.8-1-6l10.3,5.1c2.8-2.1,3.5-4.8,5.8-7.1,4.8-4.8,9.9-8.9,14.1-13.8,2.1,3.5-1.2,7.5-2.1,10.9Z"/>
  <path class="st23" d="M268.9,208c5.8,16.4-.7,31.8-8.8,46-6.4,6.8-13.2,12.8-21,17.9-19.4,11.3-40.7,17.6-63.8,18.6-8.9.4-16.8.9-25.9,0-28.7-3-57.9-10.2-78.9-31-11.7-11.5-18-26.8-17.7-43.3,0-1.1.4-2.1,1.1-2,.2,3.1.6,6.4,3.9,7.8l2.8,2.3c5.9,19.4,21.8,31.6,39.3,40l6.5,4.2h3.1c30.2,19.4,76.8,18.9,106.8-.5h2.9c2.7-1,5.1-2.7,7.1-5.1,19.2-10.1,35.1-26.4,35.6-49.1l2-2.6c1.5-1.3,2.9-2.8,5-2.9Z"/>
  <path class="st19" d="M286.9,214.6c-5.6-16.5-12.9-16.9-17.6-35.9,12.2,7.6,18.7,21.3,19.6,35.4-.3,1.5-.9,1.6-2,.6Z"/>
  <path class="st2" d="M229.1,99l.6-2c9.1-5.6,12.7-19.1,10.9-29.5l1.5-2.5c-1.9-.5-3.1-2.5-3.7-5.8-1.5-3.1-4.3-4.5-8.4-4.1-.3,1.9-.8,2.5-1.9.8-7.1,3-9.1,13.2-11,21l-1.9,2.4c-2.6-3.2-4.8-5.9-6-9.2.3-10.8,6.8-21.7,15.4-28.5s13.9-2.1,17.9,4.2c12.7,19.9,11.4,44.5-7.9,58.1-2.3-1.9-3.9-3.3-5.5-4.9Z"/>
  <path class="st12" d="M263.9,210.9c.3,13.4-4.5,26.1-13.7,36.3-6.6,7.3-14.4,12.3-22.9,17.2s-4.9,4.3-8.1,3.6l.2-2.9c7.8-8.1,10.8-19.6,9.7-30.7l1.7-2.3c-.1-1.7.1-2.9.8-3.8,5.8-.4,10.7-2.3,14.8-5.7l2.5.4c4-3.7,7.7-6.9,8.8-13.2s3.7-1.7,3.3-3.4c-1.3-5.3-2.4-8.5-2-13.5,1.3,5.8,4.7,11.8,4.9,18Z"/>
  <path class="st29" d="M242.2,65c2.8,11.6-.6,23.9-9.3,32.7s-2.6,1.2-3.7,1.2c-.9-.8-1.4-2.1-2-3.1-6.5-5.2-4.2-30.2.5-34s1.6-.9,2.6-.9h2.7c2.6,2,5.7,3.3,9.3,4Z"/>
  <path class="st44" d="M230.3,61c-3.9,8.2-6.8,17.5-4.8,26.9.6,2.9,2.8,5.3,1.6,8-2.2-1.1-4.1-2.8-6-5-1.9-12.5,0-24.9,7-34.9l1.9-.8c3-.5,3,5.3.2,5.9Z"/>
  <path class="st1" d="M96.5,56.2c.4.3.8.6.9.9,3.3,11.2,6.8,23.5-.7,33.7s-4,5.4-6.2,4c-12.7-9.9-11.3-40.7.7-41.6s3.9,1.2,5.3,2.9Z"/>
  <path class="st14" d="M98.5,57.8c5.8,9.9,7.2,21.9,4.6,33.5l-8.5,7.6c-2-.7-2.8-2.2-4.2-2.9,0-.3-.1-.8,0-1.1,2.9-4.6,13.9-8.5,5.9-32.4s-1.4-4.5.1-6.3c.5.6,1.4,1.2,2,1.6Z"/>
  <path class="st48" d="M274.9,252.1c2.7,4.8,7.4,5.8,12.8,7.5-1.8,3.7-5.2,3.8-7.9,4.6-.5-.1-.7-.2-.8-.1-5.4-1.7-10.4-4-14.9-6.9,2.3-3.4,3.3-7.2,6.5-10.6.8,2.9,3.5,3.8,4.4,5.4Z"/>
  <path class="st28" d="M276,149.2c3.9.1,8,14.9,4,15.5s-6.3-1.4-9-1.8c-1-.4-1.5-.7-1.9-1-3.2-1.7-6.4-3.6-9.1-6-.7-2.4-2.5-4-2.3-6.2,4-10.9-8.8-12.6-2.6-17.7l1.2-.7c2.5,1.8,4.1,4.9,4.7,9.3,4.5,3.8,8.9,7.6,13.4,11.5l1.5-2.9Z"/>
  <path class="st26" d="M276,149.2c.4,3.6,3.1,6.2,2.9,10.6-1.5-1.1-3.6-2.5-4.4-4.1-3.2-6-9.2-8.1-13.9-12.3s-1.9-9-5.5-11.3c.8-.7-1-3.3.4-3.1,8.9,1.4,16.1,13.3,20.5,20.3Z"/>
  <path class="st35" d="M72.8,221.2l2.3-.8c5.9,4.6,11.2,8.1,18.7,5.2l1,2.3c2.5,1,2.5,2.2-.2,2.9-2.1,12.6,3.1,25.3,11.6,34.4l.2,2.9c-2-.1-4-.7-6-1.7-21.2-10.5-35.9-21.6-42.6-44.7-1.3-14.8-1.7-14.7,4.8-27.8-.7,6.8.6,13.4,3.2,20s4.1,5.1,7,7.2Z"/>
  <path class="st18" d="M279,264.1c-6.3,1.3-12.6,1-17.9-2.2.3-2.2,2-3.3,2.9-4.7,1.8-.6,3.8-.3,5.7,1,4.7,3.2,9.5,2.1,9.2,5.9Z"/>
  <path class="st16" d="M245.2,275c.3-.7,1.4-1.3,1.8-1.8l16.8,2.3c-1.2,3.1-19.4,3.4-18.7-.5Z"/>
  <path class="st51" d="M269.1,162c-4.8,0-8-2.3-9.1-6,3.9,0,7.2,2.6,9.1,6Z"/>
  <path class="st4" d="M202.3,198.3c5.1,2.1,9.3,5.6,13.9,8.7,3-.9,4.9,2.4,4,5,1.4,3.3,2.9,7.9-1.5,9.2-7.5-.1-13.8,2.1-18.9,6.7-2.1.4-2.8-.8-2-3.7l-.6-3.2h-1.4c-2.5-5-5.1-6.1-7.6-3.2-.4,1.9-1.4,3-3,3.3-.2,1.5-1,2.3-2.4,1.8-5-2-10.2-3.6-15.4-4.6-8.3,3.7-16,4.2-23,1.7-4.1,5.7-4.9,4.3-6.1-2.1-1.7-.5-3.4-1.2-5.2-2.1-1.9,1.4-3.7,2.5-5.5,3.1-1.1,2.6-1.1,5.4-.1,8.4-1.9,2.2-4.9,1.5-8.8-2.1-4.2.4-8,0-11.6-1.2-4.2-1.6-6.3-3.9-6.4-6.9-1.8-2.9,2.5-9.7,6-8.6,1.1-.9,2.7-1.6,4-2.4,27.1-17.2,61.8-14.2,91.6-8Z"/>
  <path class="st37" d="M106.7,208.6c-2.5,2.6-4.1,5.8-6,8.6,1.2,3.3-2.7,9.8-6,10.8-2.4-1.3-5,1.4-7.8.9-5.9-1.1-10-4.6-14.2-7.7-1.5-3.6-7.2-5-6-12.3s5.9-13.1,12.8-15.1,11.2-1.3,15.5.9,9.3,10.2,11.7,13.9Z"/>
  <path class="st41" d="M249,222.9c-11.3,10.6-15.2,3.3-18.1,9.1l-2.3-1.2-6.8-16.8c-.8,0-1.3-.7-1.6-2.1-1.8-1.1-2.7-3.6-4-5,2.1-2.9,3.6-6.6,6.4-9.5,4.6-4.9,12.1-6.8,19-4.8s11.2,6.5,13.1,12.9-2.5,12.3-5.6,17.4Z"/>
  <path class="st22" d="M124.9,178.5c-.2,7.9-4.6,14.3-11.5,15.8s-13.5-1.9-16.5-8.6,0-21.1,10.2-23.9,9.7.5,12.8,3.5,5.1,7.7,5,13.3Z"/>
  <path class="st9" d="M229,179.5c-.5,8.2-5.6,14.2-12.7,15s-14.1-3.9-16-11.7,2.2-18.8,11.5-21.1,9.4.9,12.4,3.8c3.6,3.4,5.1,8.2,4.8,14Z"/>
  <path class="st3" d="M177.4,132c-2.6,9.9-4.2,20-5.5,30.6-.6,5-2.9,14.7-8.1,15.3s-9.5-7.9-10.2-13l-3.2-21.9c-.3-5.4,7.3,3.5,10.6,1.6,5.9-3.3,9.8-9,15-13.4.9-.9,1.5-.4,1.4.7Z"/>
  <path class="st27" d="M202.3,198.3c-3.7,1.4-8.5.8-12.8-.4-7.4-1.9-14.5-1.9-22.1-2.2-18.3-.9-36.1,1.6-52.8,9.3-1.5.7-2.6,2.7-3.9,1.2,19.3-17.8,54.2-18.7,79.2-12.8,4.7,1.1,8.4,3.3,12.4,4.9Z"/>
  <path class="st32" d="M122,142c-1.9,4.5-10.9-2.9-22,6.2s-3,.8-4,0c-2.6-1.9.7-11.2,10.2-13.4s17.1,4.1,15.8,7.1Z"/>
  <path class="st49" d="M228.2,148.6c-3.3,3.2-7.4-7.7-23.2-4.8-1,.2-2.1-.3-2.5-.8-2.2-2.7,4.6-10.4,15.8-8,7.4,1.6,13.3,10.2,9.8,13.6Z"/>
  <path class="st47" d="M230.9,232c1.9,12.5-1.7,27.1-11.6,35.9-23.3,20.6-87,22.7-112.9.3-10.7-9.3-15-24.2-11.8-37.3,3,.3,3,6.4.1,7.1,3.8,11,7.4,17.1,18.4,21.8l2.5,2.2c14.3,4.8,28.9,7.5,44.3,7.5s20.8-1.3,30.7-4.3c1.8.7,3.6.7,5.7,0l1-2.6c19.4-6.6,31.6-23.5,23.8-43.8,0-1.7.2-3.4.7-4.9,4.2,4.7,8.1,11.4,9.1,18Z"/>
  <path class="st38" d="M242.2,65c-4.3,2.5-8.8-.5-11.9-4l-.2-5.9c1.4-2.2,4.6-2.4,6.8-.9,4,2.8,4.4,6.9,5.4,10.8Z"/>
  <path class="st39" d="M221.8,214c4,13.7,6.9,24-3.5,36.9-6.1,7.7-13.9,10.9-22.1,14.3-2.1.6-4.1.7-6.1.4,0-6.6-2.6-8.6-7.9-5.8-3,0-6.4,0-4.8-3.8l.3-2.5c-10.5,4.3-22.5,3.7-32.6-1.4,1.7.6,2.4,1.7,2.4,3.6,1.2,2.7-1,3.3-3.5,3.1-8.4-6.2-10.9-6.5-7.3-1.1,1.1,1.4-6.7,8.5-7.3,8.6-2.3.7-7-2-8.3-4.1-5,1.1-8.1-.4-9-5.5-1.4-2.2-3.5-2.5-6.3-.7-5.3-4.3-9-10.3-11.1-18v-7.1c-.1-.8-.1-2.2,0-2.9,1.4-4,3.7-7.4,6-10.8,12.1,10.3,12.5,4.4,18.6,6.2s4.1,4.2,7.5,3.5c0-2.8-1.5-6.4.8-7.9l1.8,1c-1.8,12.5,8.7,11.9,7.1,0l1.8-2c.8,1.5,1,2.9,2.1,4.7,1.3-2.3,1.7-4.1,3.6-4.5s3,1.3,4.7,1.7c6.4,1.3,12.4-2.7,18.6-3.5s13.7,5.2,17.9,4.7l2,1.3c.5,8.9,8.5,9.7,8.1.1l1.9-1.5c.4,1.5,2,3,.8,5.5,3.7-1.3,4.9-4.2,8-5.4s9.1,0,13.1-2.2,1.1-5,1.2-6.8c.8.5,1,1.4,1.6,2.1Z"/>
  <path class="st50" d="M197.2,220.9c.6,3.9-.4,10.5-5.4,10.3s-6.7-6.6-6.5-10.2,1.4-6,4.1-6.7c4.8-1.3,6.9,3,7.9,6.6Z"/>
  <path class="st0" d="M138.4,217.9c.2,3.1,1.1,6.3-.5,9.4s-3.2,4.2-5.8,3.8c-5.5-.9-5.1-9.4-4.5-12.2s3.1-4.8,5.3-5.1,4.3,1.9,5.4,4Z"/>
  <path class="st30" d="M104.1,167.3c2-1.2,4.1-.5,5.3,1.3s.8,4.3-1.5,5.6-3.8.6-5.2-1.6-1-3.9,1.4-5.3Z"/>
  <path class="st5" d="M210.2,166.6c2.6-.3,4.2,2,4.3,3.9s-1.3,4-3.7,4.1-3.7-1.2-4.1-3.3.6-4.3,3.5-4.7Z"/>
  <path class="st31" d="M147.5,255.7c2.2-1.3,5-1.3,8.2,0l12.1.4c3.7-1.2,6.9-1.3,9.6-.2,2.1,3.3,6.1,1.4,9.4.7s5.5,4.9,4.7,7.9c2,.9,3.4.5,4.8.6-33.6,13.8-101.1,4.7-101.6-27.2,6.3,5.3,3.6,10.5,10,16.5,2.5-1.1,4.7-2.5,6.9-1,4,2.6,2.7,6.2,3.9,7.2,2.2,1.9,5.6-3.3,8.5,1.9s2.6,2.3,4,2.3,1.7-2.2,2.8-2.9c1.8-1.2,3.7-1.5,4-3.4s-1.8-2.9-2.1-4.6c-.5-2.6,2.8-2,4.3-1.9,3.2.1,6.1,7.8,10.6,3.8Z"/>
  <path class="st10" d="M177.4,256c-10.2,3.6-20.3,2.9-29.9-.3-19.8-10.7-12.7-13.9-10.6-11.8,9.8,9.4,24,12.9,37.1,8.9s13.5-11.2,16.3-9.3c4.2,2.8-10.9,11.4-12.9,12.5Z"/>
</svg>