<?xml version="1.0" encoding="UTF-8"?>
<svg id="_레이어_1" data-name="레이어_1" xmlns="http://www.w3.org/2000/svg" version="1.1" viewBox="0 0 330 330">
  <!-- Generator: Adobe Illustrator 30.1.0, SVG Export Plug-In . SVG Version: 2.1.1 Build 136)  -->
  <defs>
    <style>
      .st0 {
        fill: #5c1d0b;
      }

      .st1 {
        fill: #efeeee;
      }

      .st2 {
        fill: #b63e25;
      }

      .st3 {
        fill: #f59575;
      }

      .st4 {
        fill: #f78f6f;
      }

      .st5 {
        fill: #fcc39e;
      }

      .st6 {
        fill: #551a0a;
      }

      .st7 {
        fill: #fdd0b2;
      }

      .st8 {
        fill: #f78f6d;
      }

      .st9 {
        fill: #f78c68;
      }

      .st10 {
        fill: #fa9575;
      }

      .st11 {
        fill: #201814;
      }

      .st12 {
        fill: #fbf2e7;
      }

      .st13 {
        fill: #f08969;
      }

      .st14 {
        fill: #f38364;
      }

      .st15 {
        fill: #f68662;
      }

      .st16 {
        fill: #f38465;
      }

      .st17 {
        fill: #f88f6e;
      }

      .st18 {
        fill: #fca17f;
      }

      .st19 {
        fill: #ec8566;
      }

      .st20 {
        fill: #e55739;
      }

      .st21 {
        fill: #c74e34;
      }

      .st22 {
        fill: #f68462;
      }

      .st23 {
        fill: #f06040;
      }

      .st24 {
        fill: #1f1814;
      }

      .st25 {
        fill: #ea8061;
      }

      .st26 {
        fill: #fcc39f;
      }

      .st27 {
        fill: #f99878;
      }

      .st28 {
        fill: #4e1208;
      }

      .st29 {
        fill: #f26745;
      }

      .st30 {
        fill: #f99775;
      }

      .st31 {
        fill: #efecec;
      }

      .st32 {
        fill: #bc432a;
      }

      .st33 {
        fill: #3e150b;
      }

      .st34 {
        fill: #e57759;
      }

      .st35 {
        fill: #c54d34;
      }
    </style>
  </defs>
  <path class="st22" d="M266.7,82.4c10.1,5,28.2,11.2,32.8,21.2v4.8c-1,1.9-1.4,4-2.1,6.1-1.1-.4-.1-1.5-.1-1.4-1.5,5-6.4,14.9-11.7,15.3-3-.8-3.5-3.9-1.5-9.4-1.4-5.2-3.9-10.1-7.4-14.8-2.1-3.7-2.6-7.9-1.6-12.5-3.6-3.1-7.7-5.6-12.6-7.4-1.1-2.8.2-3.4,4.2-1.8Z"/>
  <path class="st34" d="M284.5,186.8c14.9,41.8-12.5,72.3-51.4,85.1-43.3,14.2-96.3,12.9-139.1-2.8s-27.9-13.9-37.5-26.5c-5.9-7.8-10.2-16.4-11.2-25.7-1.5-11.3,6.3-9.9,7.9.2l2.3,3.8,2.9,1.7c5.5,12.3,15.3,22.3,27.4,28.3l1.6,2.9c4.8.8,9.5,2.6,13,5.9l4.7-.6c43.9,13,110.1,15.2,148.8-12.2,17.6-12.5,25.3-31.3,21.9-52.4l1.7-2.5c-1.6-6,3.4-10.1,7.1-5.1Z"/>
  <path class="st17" d="M266.7,82.4h-1.2c-8.1-.5,9.1,3.1,11.5,8.6,1.1,2.6-1,5.4-.3,8,2,6.7,7.8,11.7,9.3,18.5.7,3.4-2.3,7.5-.3,10.8.9,4.1-6.6,7.6-10.1,8.9-17,6.1-27-8.8-30.2-23.4l1.5-2.6-2.1-.5-2.6-16.6c-1.6-5.7-6.7-2.6-10,0-2,2.5-4,3.6-6.1,3.4,1.9,1.6,1,5.1-1.4,5.7h-3.2c-10.6-6.2-22.1-10.7-34.5-13.4l-1-1.3c-7.2-1.5-9.4-3.3-6.3-5.4l5.3.2c11.1,1.8,21.8,5.4,32.6,10,2.5-2.3,4.3-4.3,6.4-6.6,11.3-12.7,29.3-10.9,42.8-4.2Z"/>
  <path class="st4" d="M110.4,91c-1.4.8-2.7-.1-4.1-2.7h-2.7c-8-7.8-19-8.1-29.3-5.4s-14.8,4.7-13,16.3c-3.2,9.4-4.4,18.8-3.5,28.2,1.1,3,2,5.9,2.7,8.9l-2.4,1.5c-10.1-2.2-15.5-9.6-20.8-17.7s2.2.8-.7.2c-2.5-5.3-5.9-10.7-3.7-17.8s32.8-21.2,42.3-23.9c13.7-3.9,28.4.6,35.1,12.4Z"/>
  <path class="st13" d="M70.3,144.2l1.7,1.7c-9.3,17.5-15.2,35.8-17.8,54.9l-2,2.9c2,2.1,3,5.1,2.8,9,1.3,3.2,1.4,5.9.2,8.3-3.7-1.5-4.6-8.9-6.6-9.9s-3.1.4-3.2,1.8-.5,3-.4,4.1c-4-19.6,7.2-48.9,15.8-68.1s.2-3.4.3-4.6c1.1-2.4,7.5-2,9,0Z"/>
  <path class="st21" d="M285.6,128.4c4.9-4.4,9-9.9,11.4-16,.9.9.4,1.6.4,2.1-4.5,13.3-14.5,24.8-27.9,29.8-.6,4.2-8.6,2.6-10-1-2.3,2.9-6-.5-8.3-2.5-5.6-5.2-8.3-13.6-10.3-20.7l1.6-1.8c-2-2.3-2-3.6,0-3.9,0-2.1,1.3-3.1,4.2-3,1.6,10.1,9.1,28.3,24.7,25.1s10.1-4.4,14.1-8Z"/>
  <path class="st3" d="M184.9,83.3l-4.8.5c-.4,0-.2,1.8,0,2.1,1.3,1.4,5.8.4,5.7,2.7l-1.1.7c-4.3-.8-8.6-1.5-12.8-1.9-4.2,1.8-8.9,2.5-14.2,2l-21,3.9c-4.4,2.1-8.6,2.8-12.6,2.1l-13.3,5.5c-2.2-1.2-3.6-3.6-3.9-7.3-2-2-2.1-3.7-.6-5.3,1,1.1,2.8,2,4.1,2.7s2.3,2.6,3.7,2.1c6.9-2.6,13.1-5.7,20.3-7.5,16.9-4.2,34-5.1,50.6-2.4Z"/>
  <path class="st35" d="M88.4,116.2c.8.4,1.4.9,1.8,1.7,1.1,2.3-7.8,19.7-10.5,22.5s-6.6,6.6-9.4,3.8c-2.2.8-6.8.7-9,0-11.3-3.7-19.6-13.3-24.7-23.8.2-.4.5-.7.6-1.6,6.5,8.3,12.2,15.5,23.2,17.5l1.7-1.8c12.1.7,16.9-13,19.8-22.5l2.2-.7c2.3,1.3,3.7,2.9,4.1,4.9Z"/>
  <path class="st25" d="M269.6,144.2c3.8,13.2,12.5,29,14.9,42.6-1.6.3-3.7-.5-5.5.7s-1.1,3.4-1.6,4.5h-1.4c-8.2-24.1-12.3-36.1-12.3-36.1l-1.9-6.8c-3.1,1.1-5.1-4.6-2.2-5.9,2.8.7,7,2.1,10,1Z"/>
  <path class="st8" d="M277.3,192c1.5,11.1,1.8,22.8-3.2,33.5-5.9,12.8-16.2,22.5-28.8,28.8-42.4,21.1-101.1,20-145.1,5.5-3.7-3.3-8.2-5-13-5.9-14.4-6.4-26.1-18.2-31.8-32.9-2.2-5.6-2.9-11.3-3.1-17.2,1.4-1.2,3.3-1.3,5.6-.2l5.5.4c6.4-12,13.5-21.4,28.7-19.5s18.5,11,20,21.2c2.6,17.2-15.5,26.4-30.6,23.9,6.5,3.7,13.2,7.4,19.9,11,7.2,5.7,9.3,7,18.1,6,12.5-1.5,14.5-2.6,19.2-14.4.9-.2,1.7.1,2.4.9h2.5c8.4,12.2,22.1,16.4,35.8,10.1l2.5,1c8.2-4.1,16.5-8,24.9-11.8,2.9-.6,5.5.4,8,3.1,4.2-2.8,7.6-6.2,10-10.4-9.9-17.4-5.3-38.4,16.4-42.1,4.1-.7,8.1-1.9,11.8-3.4-.8-9-.1-16.4,7.2-22.8-.8-3.6-.3-6.1,1.5-7.3,3.8,5.7,14,34.9,15.6,42.9Z"/>
  <path class="st9" d="M100.2,259.7c-4.5-1.5-9-3.5-13-5.9,5.3-1,10.7,1,13,5.9Z"/>
  <path class="st10" d="M185.9,88.5c13.6,2.8,28.1,5.9,38.7,14.7.7-.5,1.6-1.1,2.1-.8,2.5,1.5,7.2,5.7,9.5,7.9,3.3,2,5.4,4.7,6.4,7.9,2.3,9,6.5,22.2,17,25,.5,1.9,1.1,4.2,2.2,5.9l.7,7.9c-17.1,16.5,2.3,23.4-14.6,26.1s-10.7,3.4-16.1,5.3-10,12.7-9.9,19.5,2.8,11.4,5,16.8c-.5,5.1-10.9,12.3-11.6,12.4-3.3.4-4.1-5.7-9.5-2.2-2.7,1.7-5.6,2.2-8.3,3.5s-13.8,8.2-15.4,5.5c-.6-2.8,1.7-6.1,4.7-5.1,0-2.5,1.1-5,3.6-7.5,1.2-3.8,3.1-6.3,5.6-7.5l-.6-3.1c5.9-4.3,9.7-9.5,11.4-15.4-.2-3.1.2-5.6,1.4-7.6.6-.2,1-.3,1-.4-.2-3.4-3.2-8.2-5.1-11l1.1-2.1c-.2-2.7.2-2.8,2.1-1l2.2-.3c24.7,17,32.8-29.9,4.5-23.3l-1.9-1.5c-4.8,2.2-3.1-3.7-1.9-6.8-2.2-7-.9-11,3.9-12.1,1.7-2.3,4.7-2.5,9-.7,4.1,2.9,7.5,3.5,10.1,1.8.9-10.7-14.4-15.1-21.1-9.1.8,2.5-3.1,6-5.4,4.2-4,2.6-3.4-2.7-2.7-5.9,4.7-8.6,5.6-12.9,0-21.1s-14.1-16.4-26.4-18.1c-5.5.9-7.3-.1-5.6-3,4.8.4,9.2.2,13.9,1.2Z"/>
  <path class="st2" d="M246.8,111.3c.2,2.3-2.4,2.3-4.2,3l-2.2-.8c0-3.4-2-6-5.9-7.9-4.3-2.1-7.2-4.8-8.5-8.1,2.8-4,10.7-10.7,15.2-8s2.6,2.5,2.9,4.5l2.7,17.3Z"/>
  <path class="st19" d="M242.7,114.3c.4,1.2-.4,2.7,0,3.9l-18-15c-.2-2.3.2-4,1.4-5.7,5,3.2,10.2,6.4,14.9,10.7s1.1,4.4,1.7,6.1Z"/>
  <path class="st27" d="M106.3,88.3c2.7,6.6,1.8.7,4.1,10.9,9.6-.9,7.8-3.3,13.8-3.8-1.5,2.8-4.2,4.9-8.2,6.3l-7.8,5-2.9-.4c-1.6-.9-3.8-1.1-6.8-.6l-1.2-2.2c-.9-1.8.6-3.7,4.4-5.6-8.9-12-13.9-7.8-15.1,12.3l-2.3,1c-3,11.1-9.3,27.6-23.7,25-6.8-3.9-5.8-21-3.4-28.4s3.4-11.2,1.6-17.2c.6-1.8,2.5-4.5,4.2-5.4,14.3-7.3,32.5-9.2,43.4,3.1Z"/>
  <path class="st30" d="M105.2,106.3v2.5c-14.1,10.3-23.4,30.6-15.2,46.9.3,9.1,2,18.6,10,24.1,1.8,3.8,4.8,6.5,9,8.2,2.1,6.3,5.4,11,9.8,14.2,2.8.5,4.5,1.6,5.2,3.4.6-1.7.9-4.5.9-8.5l1.3.7c3,.2,3,3.1.1,4,1.4,7.9,5.9,12.8,11.8,17.8l-.7,2.2c3.1,1.5,5.8,8.2,3.8,10.9-.9,0-1.4.9-1.9,2l-2.3,5.4c-2.3,5.4-5,6.1-9.8,6.7s-14.6,4.1-20.7-.7-5.4-4.2-9-5.7-8.6-5.7-13.6-7.4-5-3.5-6.5-6.2c12.5,1.6,25.3,1.2,31.4-11.3,3.3-6.7,1.3-12.4-1.7-18.5s-10.7-11-18.1-11c-8.1,0-15,3.8-19.2,11.1l-4.8,8.6c-4.5,0-9-.1-12.7-2.1-.5-16.5,6.5-32.7,13.5-48.4s4.2-7.2,4.6-11.1c10.7-3.7,17.2-17.8,18-28-4.6-3.2,4.4-15,8.8-12.7,2.7.5,5.5.3,8.6-.7.6,1.5-.4,2.4-.7,3.5Z"/>
  <path class="st18" d="M172,87.3c-.3.6,1,1.5,1.8,1.3,6.4-1.6,11.4,2.1,16.5,3.6s4.9,3.1,7.7,6.3c5.7,6.4,13.5,13.4,11.5,23.4s-7.1,11.6-3,13.4c1.6,1.7,3.4,2.3,5.6,1.9l1.7,1.9c-6.3,5.6-.2,8.5-2.5,14.6s-1.3,1.7-1,2.7.9,1.1,1.4,1.6l.4,2.4c-5.4,5.4-7.4,13.4-4.1,20.5l-1.1,2.3c-.7.4-1.4.7-2.1,1-.4.8-.9,1.2-1.7,1.2-21.8-24.3-79.7-17.5-79.3,20.3-16.6-2.1-11.9-16.4-19.2-18s-4.8-5.6-7.2-7.6c-4.3-3.6-6.8-6-7.5-12s-2.9-6.1-1.9-10-2.6-5.4-2.4-8.1c.7-7.3-5.5-4.3,4.5-27.2s9.2-12.7,14.9-16.5,12.6-8.4,19-10.9c15.2-5.9,31.7-9.3,47.8-8.1Z"/>
  <path class="st32" d="M97.2,103.5c-4.7,3.4-8.4,6.9-8.8,12.7-2.5-.7-4.9-2-4.1-4.9,1.7-6.2,1.2-25.5,10.7-21.6s7.5,4.7,9.9,8.5l-7.6,5.4Z"/>
  <path class="st15" d="M266.7,207.5c-.6,7.9-4.4,12.7-9.9,16.3-8.8,5.7-19.7,4.6-26.6-3.4s-7.3-10.8-5.8-16.9,5.2-11.8,11.6-14.3,16-3.8,22.8,1.8c4.5,3.7,8.3,10.6,7.9,16.5Z"/>
  <path class="st9" d="M104.7,216.1c-1.6,6-8.2,8-13,9.1-9.4,2.1-17.3-2.6-20.6-11.2s-3.2-8.9-.5-13.8c5-9.2,17.9-11.4,24.6-7s11.8,14.2,9.5,23Z"/>
  <path class="st28" d="M144.1,224.8c9,9.5,21.7,9.3,33.8,7.4l2.2,1.6c3.1-.8,6,2.1,6.6,5-1.6,1.4-2.6,4-4.7,5.1-9.1,4.6-20,5.7-29.3.2s-8.1-7.4-11.6-11.3c-1.8-3-2.7-7.5-3.8-10.9,1.4-3.6,7.3-.4,6.8,2.9Z"/>
  <path class="st11" d="M207.1,183.2c-5.1-9-2-19.2,4.7-25.1,5.7-1.8,11.1-2.3,15.9,1.3s5.5,7.3,5.8,12.8c.4,6.7-3.2,13.4-9.6,15.6-4.5,1.6-13.8.8-16.9-4.5Z"/>
  <path class="st20" d="M207.9,197.7c3.4,18.1-9.7,19.1-12.1,26.1-3.2-1-1-.8-1-.6,0,1.5-3.9,2.7-5,.8-1,1.4-2.2,2.6-3.9,3.2-4.4,1.7-11.8,2-16.6,2.1s-20.4-.6-22.6-2.1-2-1.4-2.6-2.5c-2.1-.6-4.2-3.2-6.8-2.9-5.5-6.4-13.3-9.8-11.1-20l2.3-.3c10.3,28.4,75.4,28.3,75.6-5.7.2-.7,1.7-.9,2.7-1,1.9-.8,2.5,1.8,1.1,2.8Z"/>
  <path class="st7" d="M205,184.2c3,5.9,6.6,12.2,4.4,18.9-1.4-1.7.2-4.3-1.5-5.4-.2-.9-.8-1.9-1.1-2.8l-2.3-.5c-5.7-11.4-18.9-17.6-31.4-18.5l-2.2-2.1-7.6.2-.7,1.4c-11.9,1.2-25.2,5.5-31.8,16l-2.4.5c2,2.2.4,5.2-2.2,6-2.1-1.4.3,10.1-2.1,7.8v-9.7c.5-21,47.8-37.9,73.1-18l8,6.3Z"/>
  <path class="st5" d="M233,140.3c-1.6,8.9-5.2-1.5-19.2-1.2s-4.4.6-6.7-.4-.9-2.5-.7-3.4c1.6-1,3.5-3.7,5.4-4.2,3.6-4.9,13.2-1.8,17.5,1.7s4.9,4.2,3.6,7.3Z"/>
  <path class="st14" d="M233,140.3c-4-7.7-12.6-11-21.1-9.1-4.9-2.8,11.8-8.7,20.2.3s3.6,7,.9,8.8Z"/>
  <path class="st33" d="M195.8,223.8c-1.9,5.6-4.7,11-9.2,15-2.8-.5-4.5-3.2-6.6-5l.3-2.2c3.4-2.1,6.6-4.7,9.5-7.6,1.9-.6,3.5-2.1,5.7-2.2.5.7.2,1.7.2,2Z"/>
  <path class="st23" d="M171,173.8c11.5.3,22.7,4.4,30.8,13,2.4,2.5,4.2,5.1,5,8.1-2.5,3.4-.9,8.3-2.9,12.5s-8.5,9.8-14.5,12.2c-15.3,5.9-32.2,5.5-47.2-.6-10.6-4.3-10.9-11.2-16-17,.3-1.2,0-2.8-.1-4,0-2.3,1.4-4,2.2-6,1.5-2.1,3.7-.9,6.5,3.5,2,1.1,4.1,1.7,6.4,1.6,1.4.7,2.1,2.1,2.1,4.3l1.8,2.8c2.5.6,4.5,1.5,6,2.7.9,1.6,0,2.8-2.4,3.4-.9.9,20.3,8.4,24.3,6.9s5.5-6.2,6-9.3l2.2-.8,1.8-1.5c10.1-.5,7.6-13.1-.8-14.2l-1-2.1-2-.8c-2.8-5.8-7.9-9.5-15.4-11.3-.8-.6-1.8-1.7-1.5-2.5s7.4-.8,8.8-.7Z"/>
  <path class="st24" d="M124.5,183.9c-4.4,5.5-11.9,5.8-17.6,3.1s-8.1-8.8-7.7-15.2,3.8-12.8,10.6-14.7,13.2.2,16.5,6.7,2.7,14.4-1.8,20.1Z"/>
  <path class="st26" d="M122.3,132c10.9,12.2-6.2,2.8-18.4,11.2-1,.7-2.7.4-3.4-.3s-.9-1.5-1.2-2.4c-1.6-1.6-1.3-2.8,1-3.1-.7-1.6.8-3.2,2.1-4.3,4.7-4,15.5-6.2,19.9-1Z"/>
  <path class="st16" d="M116.2,127.3c2.4.4,6.5,2,6,4.6-8-2.7-16.1-.5-22.1,5.4-2,1.9-3.6,0-1.8-1.9,1.1-1.2,2.1-2.9,2.7-4.4,3.6-5,9.6-5.5,15.1-3.7Z"/>
  <path class="st30" d="M116.2,127.3c-5.5-.8-10.7.3-15.1,3.7,3-7,10.2-6.1,15.1-3.7Z"/>
  <path class="st30" d="M100.2,137.3c-.1,1-.3,2.2-1,3.1-1.7,0-2.3-1.2-2.7-2.6s1.1-1.4,1.9-2.3c.2.9.9,1.5,1.8,1.9Z"/>
  <path class="st12" d="M189.9,224c-1,4.1-5.3,8.6-9.8,9.8-8.4,2.1-33,3.7-36-9,15.4,2.9,30.8,4.2,45.8-.8Z"/>
  <path class="st31" d="M212,163c1.6-1.9,4-1.2,5.4,0s.9,3.7-.4,5.3-3,.8-4.4,0-2.1-3.3-.5-5.2Z"/>
  <path class="st29" d="M171,173.8c-2.6,0-5,.7-7.9.9,7.9,2.4,18.1,7.2,18,14.3l-.2,2.2c-5.4,2.7-4.2,10.4.3,13.4v2.2c-.7,4.6-2.7,9.4-7.3,11.9s-7.4.3-10.9-1l-13-4.7c-1.9-.7-5.4-2.9-3.4-4.8,1.5.1,3.3-.9,4.5-1.6v-2.3c9.5-6.7.2-21-7.4-8.4l-2.4.9c-.7.7-1.1,1.6-1.9,2.2-11.1-2.8-5.9-6.4-11-7.3,5.9-13.7,30.1-20.6,42.6-18.1Z"/>
  <path class="st0" d="M181.1,206.8c-3.9-1.9-5.6-5.9-5.7-9.4s2-7.2,5.7-8.4c5.1.1,8.6,3.3,10,7.7s0,6.2-1.9,8.2-5.6,3.2-8.1,1.9Z"/>
  <path class="st6" d="M151.1,206.7c-3.1.5-6.2.4-8.2-2.2s-2.4-4.9-1.7-7.6c1.4-5.1,6.7-9.8,12.1-7.1s4.1,6.4,3.4,10-2.7,5.3-5.6,6.9Z"/>
  <path class="st1" d="M108.2,161.8c2.3-.8,3.9.9,4.3,2.3s-.4,3.9-2.2,4.5-3.4-.2-4.1-1.7-.5-4.2,2-5.1Z"/>
</svg>