<?xml version="1.0" encoding="UTF-8"?>
<svg id="_레이어_1" data-name="레이어_1" xmlns="http://www.w3.org/2000/svg" version="1.1" viewBox="0 0 330 330">
  <!-- Generator: Adobe Illustrator 30.1.0, SVG Export Plug-In . SVG Version: 2.1.1 Build 136)  -->
  <defs>
    <style>
      .st0 {
        fill: #120d0c;
      }

      .st1 {
        fill: #fde2df;
      }

      .st2 {
        fill: #f99a8a;
      }

      .st3 {
        fill: #f98e76;
      }

      .st4 {
        fill: #2a221d;
      }

      .st5 {
        fill: #ece0d7;
      }

      .st6 {
        fill: #fddadb;
      }

      .st7 {
        fill: #fdfaf9;
      }

      .st8 {
        fill: #f98f76;
      }

      .st9 {
        fill: #f18673;
      }

      .st10 {
        fill: #140f0e;
      }

      .st11 {
        fill: #fde3e1;
      }

      .st12 {
        fill: #fdf5ee;
      }

      .st13 {
        fill: #fddbdb;
      }

      .st14 {
        fill: #e6ddd6;
      }

      .st15 {
        fill: #f4f3f3;
      }

      .st16 {
        fill: #ececec;
      }
    </style>
  </defs>
  <path class="st5" d="M45,239.5v-8.5c0-.1,0-.2,0-.4,1.5-8.2,3.3-16.1,5.9-23.9s.7-1.1,1.3-1.3c1.6-.4,2.1,1.1,2.3,3s0,.5,0,.8c-8.2,24.9,4.1,46.6,25.3,60.2,40.5,26,128.4,26.7,167.9-2.3,17.9-13.1,27.8-33.2,20.5-55-6.5-19.1-13.7-38.1-21.7-56.7-4.1-9.5-9.9-18.3-17-25.9s-.3-.4-.4-.6c-.8-2.2.1-3.4,2-3.9s.8-.4,1.1-.7c13.1-18,20.6-46.1,20.5-68.1,0-.2,0-.4.1-.7.4-1.2.8-1.7,1.7-1.6s1.5.9,1.6,1.8c2.6,27.7-3.7,48.3-17.9,73.2-.5.8-.3,1.8.4,2.5,7.1,6.8,12.5,13.7,17,22.2,9.8,18.8,17.9,38,24.3,58.4,3.5,11.1,5.2,23.5,1.9,34.6-5.6,18.9-20.4,32.7-38.1,40.8-41,18.8-92.1,19.2-135.4,8-12.8-3.3-24.4-8.1-35.4-15.4-6.5-4.3-11.9-10-17.1-15.9s-8.5-15.4-10.5-24.1,0-.3,0-.5Z"/>
  <path class="st12" d="M123.1,47.6c6.2,14.5,10.6,29.6,13.3,45.3.8,13.2,2,18,3.7,14.2.8.6,2.2,1.7,3.9,1.4,13.3-2,26.3-1.6,40.2-.3,1.3-24.8,9.8-64.5,32.9-77.7s14.3-3.3,20.5-.9c10.7,4.1,17.2,14.2,18.3,24.7-1,.3-1.5,1.6-1.5,3,1.1,22.6-9,50-21.3,68.7-1.1,1.2-2.3.9-3.6.6,8.4,8.5,14.6,18.1,19.5,29.5,7.7,17.9,14.2,35.6,20.6,54s2,36.2-11.1,50c-10.8,11.4-24.9,18.4-40.1,23-38.1,11.4-87.3,10.1-124.5-4.4-28.4-11.1-51.9-37.5-41.5-68.7s-.2-3.5-1.2-4.2l5.1-14.8c6-17.5,17.4-46,32.4-58.1-11.2-17.8-19.2-36.8-21.6-57.5s0-12.7,0-19c-.2-10,8.4-24.6,20.4-27.3s18.1-.3,25.2,5.8,7.3,8.5,10.4,12.8Z"/>
  <path class="st14" d="M140.1,107.1c0,.8.9,2.1.3,2.4s-2.4.9-3.1.8c-1-.2-1.1-1.8-1.1-3.1-1.1-19.7-5.5-38.5-13.6-56.3s-.5-2.8.5-3.2c9.2,12.8,15.5,43.5,17,59.5Z"/>
  <path class="st3" d="M125.1,113.4c-9.1,3.3-16.3,6.5-24.1,11.3-9.9-14.5-21-46.4-13.3-61.7s4.2-5.5,6.4-6.2c9.3-3,17.7,8.4,21.4,16.3,5.8,12.5,9.1,26,9.5,40.3Z"/>
  <path class="st8" d="M224.9,122.8c-8.4-4.3-16.2-7.9-25.7-10.5,0-15.7,6.9-44.2,20.8-53.8,2.7-1.9,5.7-2.9,9.1-2.1s5.4,2.9,7,6c7.8,15.8-2.4,44.6-11.2,60.4Z"/>
  <path class="st13" d="M242.9,248c-8.8,2.5-18.8-.7-24-7.3-2.8-3.6-1.9-9,.3-12.3s3-3.1,4.9-4c4.9-2.1,7.4-2.2,12.6-2.6,9.6-.7,19.2,5,18.1,14.6s-5.9,9.8-12,11.6Z"/>
  <path class="st7" d="M179.9,226.8c-2.3.6-5.2-1.9-5.8-4.2l-1.9,1.8c-5.6-.7-11.5-1.1-17,.7l-2.2-1.3c1.1,2.5-.8,3.4-3,2.3-2,1.2-4.3-.3-7-.3-3.7,0-8.1,2.4-11.8.5-8.2-4.2,15.7-23.4,47.6-15.3,6.4,1.6,21.2,6.1,20.2,14.7-4,3.2-14.6,1.8-19.1,1Z"/>
  <path class="st13" d="M89.6,247.3c-6.5-1.5-12.3-5.6-13.4-12.5s3.3-12.3,9.4-14.3,11.1-3.1,16.5.6,8.4,7,7.8,12.7c-1.2,10.1-10.9,15.7-20.4,13.5Z"/>
  <path class="st0" d="M129.2,207.3c-.3,9.2-6.7,15.2-14.8,14.5s-13.8-8.3-12.5-16.9,7.2-13.4,14.5-12.9c7.6.5,13,6.9,12.7,15.3Z"/>
  <path class="st10" d="M226.8,209.2c-1.2,8.3-8.2,13.4-15.3,12.5-8-1-12.4-7.9-11.8-16s7-14.4,14.8-13.7,13.5,8.3,12.3,17.1Z"/>
  <path class="st9" d="M174.1,222.6c2.4.3,4.8,1.8,5.8,4.2,2.7,6.6-6.9,11.6-12.3,13.7-1.4.9-.3,4.1-.7,5.3-1.6.1-3.2.5-4.8,1.1,0-2.1.3-4.3-.3-6.8-6.1-1.8-14.7-7.6-11.8-13.9s2-1.8,3-2.3l3.6-.3c-1.3,6.5,16.6,5.9,14.5-.7h3.1Z"/>
  <path class="st4" d="M166.9,245.8c.8,5.5,6.1,7.6,11.1,7.9,12,.6,9.7-10.6,14.5-7.7s-1.9,11-12.9,11.7c-5.9.4-10.7-1.9-14.9-5.9-8.2,8.3-21.9,7.7-27.7-1.9s-.7-3-.3-4,2.4-1,2.7-.4c2.7,4.8,5.9,8.2,11.3,8.2s10.2-1.9,11.5-6.9c1.4-2,.9-3.8,1-6.1s2.9-.8,2.8,0c-.3,2.3.8,3.6,1,5Z"/>
  <path class="st11" d="M127.9,170.4c-.6,4.2-9.6-1.7-22,5.4-1.2.7-3,.5-4-.2-3-2.1,1.8-11,10.8-12.4s15.7,3.1,15.1,7.2Z"/>
  <path class="st1" d="M223,176.1c-13.1-7.4-19.7-1.8-21.9-4.8s-.6-2.7.5-3.8c7.5-7,20.3-5.4,25.2,3.7.8,1.5.5,3.5-.3,4.5s-2.2,1.1-3.6.4Z"/>
  <path class="st6" d="M247.1,237.5c-2.1,4-7.4,5.5-11.3,5.2s-8.1-2.7-10-6.5-.8-5.8.7-8.3c2.6-4.3,12.1-7.2,18.2-2.2,3,2.5,4.7,7.3,2.4,11.8Z"/>
  <path class="st2" d="M174.1,222.6c-2.6-.5-.4,2.9-1.4,4-3.9,4.3-12.8,4.2-17.3,1-.8-.6-.2-2.7-.5-3.2s-1.1-.9-2-.6c6.5-2.9,14.2-2.1,21.1-1.2Z"/>
  <path class="st15" d="M110,197.6c2.3-.8,3.9.7,4.2,1.9.4,1.8-.2,3.7-1.9,4.3s-3.3-.2-3.9-1.7-.5-3.7,1.7-4.5Z"/>
  <path class="st16" d="M208.3,197.4c1.9-.2,3.2,1.2,3.5,2.3.5,2.1-.6,4.1-2.3,4.3s-3.9-.5-4.2-2.7.7-3.6,3-3.9Z"/>
</svg>