<svg width="150" height="150" viewBox="0 0 150 150" fill="none" xmlns="http://www.w3.org/2000/svg">
<g clip-path="url(#clip0_94_77)">
<path d="M107 17C115.837 17 123 24.1634 123 33V116C123 124.837 115.837 132 107 132H43C34.1634 132 27 124.837 27 116V33C27 24.1634 34.1634 17 43 17H107ZM56 91C51.0294 91 47 95.0294 47 100C47 104.971 51.0294 109 56 109H94C98.9706 109 103 104.971 103 100C103 95.0294 98.9706 91 94 91H56ZM56 66C51.0294 66 47 70.0294 47 75C47 79.9706 51.0294 84 56 84H94C98.9706 84 103 79.9706 103 75C103 70.0294 98.9706 66 94 66H56ZM56 41C51.0294 41 47 45.0294 47 50C47 54.9706 51.0294 59 56 59H94C98.9706 59 103 54.9706 103 50C103 45.0294 98.9706 41 94 41H56Z" fill="#262626"/>
</g>
<defs>
<clipPath id="clip0_94_77">
<rect width="150" height="150" fill="white"/>
</clipPath>
</defs>
</svg>
