<?xml version="1.0" encoding="UTF-8"?>
<svg id="_레이어_1" data-name="레이어_1" xmlns="http://www.w3.org/2000/svg" version="1.1" viewBox="0 0 330 330">
  <!-- Generator: Adobe Illustrator 30.1.0, SVG Export Plug-In . SVG Version: 2.1.1 Build 136)  -->
  <defs>
    <style>
      .st0 {
        fill: #402510;
      }

      .st1 {
        fill: #fde8c0;
      }

      .st2 {
        fill: #df9b61;
      }

      .st3 {
        fill: #91481e;
      }

      .st4 {
        fill: #974d22;
      }

      .st5 {
        fill: #7b3b1a;
      }

      .st6 {
        fill: #904f29;
      }

      .st7 {
        fill: #fdd194;
      }

      .st8 {
        fill: #bd6f39;
      }

      .st9 {
        fill: #ba6e3b;
      }

      .st10 {
        fill: #1d1a19;
      }

      .st11 {
        fill: #fba170;
      }

      .st12 {
        fill: #fde2b3;
      }

      .st13 {
        fill: #fbbb78;
      }

      .st14 {
        fill: #f5b774;
      }

      .st15 {
        fill: #fdcf93;
      }

      .st16 {
        fill: #fceac3;
      }

      .st17 {
        fill: #fcc27e;
      }

      .st18 {
        fill: #fddfa4;
      }

      .st19 {
        fill: #a96f50;
      }

      .st20 {
        fill: #fcdfaf;
      }

      .st21 {
        fill: #c7773f;
      }

      .st22 {
        fill: #d89e5f;
      }

      .st23 {
        fill: #fddea9;
      }

      .st24 {
        fill: #fddeab;
      }

      .st25 {
        fill: #fcedc8;
      }

      .st26 {
        fill: #fcd9a4;
      }

      .st27 {
        fill: #fcf4d7;
      }

      .st28 {
        fill: #1b1918;
      }

      .st29 {
        fill: #a3592e;
      }

      .st30 {
        fill: #f1f0ef;
      }

      .st31 {
        fill: #fde4b7;
      }

      .st32 {
        fill: #c9773d;
      }

      .st33 {
        fill: #fb9d6e;
      }

      .st34 {
        fill: #e2a463;
      }

      .st35 {
        fill: #f0efef;
      }
    </style>
  </defs>
  <path class="st22" d="M256.7,140.2c3,2.8,6.6,8.8,6.3,12.7,5,7.4,9,15.5,12,24.3,2.2.7,3.2,1.9,2.9,3.8-.3-.3-2.7-.1-2.4.8l5.6,15.6c7.5,20.9,3.2,42.2-13.8,57-12.3,10.6-27,17.3-43.1,21.4-39.8,10.3-81.4,10.2-121-1.3-18.7-5.4-33.2-12.6-45.5-27.3-8.5-10.1-12.6-22.9-10.7-35.9s5.9-19.5,9.5-29.6-2.7-.9-3.2-.7c-.6-1.9.6-3.3,3.6-4.2l6.8-14.6,2.6-1.2c2.1-2.1,2.7-1.5,1.8,1.7l.4,4.4c-8.2,22.1-15.5,43.5-.9,64,13.8,19.3,39,28.4,61.7,32.7,28.7,5.5,49,5.2,77.6-1.1,44.3-9.7,77.6-35.8,57-82.9l-13.4-29.6,1-2.7c-3-.3-5.3-4.1-2.8-6.3,1.4-.8,3-1.2,5-1.1,1-2.8,1.8-2.7,2.9-.1Z"/>
  <path class="st27" d="M229.7,71.4c-1.4,1.6-3.8.9-7.2-2-7.1,1.1-12,1.3-18-3.3,9.1,24.5-29.5,41.8-42.5,19.1-.5,9.6-1.8,14.8-11.2,19.2s-31.1,5.8-37.3-3.4-.4-19.3,8.5-25.9c-4.4-.2-8.1,2.5-11.2,8.2-5.8,3.5-11.3,1.6-16.5-5.6-2.6-.6-4.3-1.7-5-3.3,8.5-5.1,10.5,2.3,17.5-6.5s11.2-11.9,19.5-12.3l11.7-.6c2.4-.1,6.1,2.8,8.5.9,5.9-4.5,11.8-9.1,19.6-9.2,28.1-.5,24.5,10.3,34.1,9.4s16.9,1.3,21.4,4.8,5.6,7.3,8.3,10.6Z"/>
  <path class="st25" d="M229.7,71.4c.7,0,1.6,1.3,3,1.1,11.2-1.5,17.7,6.2,23,13.9-.9,2.5-2.7,2-5.3-1.7-9.1-6.1-15.6-6.6-25.9-2.6-11-.7-16.8,3.2-24.5,10.7-9.7,5.3-20.1,9.1-31.2,11.3-4.5,1.4-6.9,9.7-4.2,13.4-6.1,10.4-14.1,6.3-22.1.7-4.7-1.3-8.8-4-12.5-8-2.2,1.9-6.7.6-7.8-2-.8.6-1.3,1.3-1.4,2.2,8.4,4.1-1.2,16.2-6.2,18.5-8.4,3.8-23.2-3.9-20.1-14.2-4.3,4.9-10,4.5-14.8.6-5.4-10-15.7-12.2-20.2-.4l-2.3.4c0-7.8,6.1-14.6,13.7-17.4,6.8-2.5.1-6.9,11-19.8s4.2-3.6,7.2-3.7c9.5-.3,9.4,9.2,16.5,8.9s6.4-7.8,11.7-9.6,5.5-1.6,7.5,1.7c-6.2,5.6-14.7,9.7-12,19.5s16.8,11.3,28.4,10,20.2-5.9,18.1-17.6c-.3-1.8,2.3-5.9,3.8-4.2,3.4,3.9,5.9,8.7,11.2,10.3s12.6-.1,18.4-2.9c9-4.4,14-13.9,10-23.4s.2-2.1.6-2.5c2.2-2.1,5.9,3.9,11.4,3.8s7.1-2,10.2,0,3.2,3.1,4.9,3.2Z"/>
  <path class="st16" d="M255.7,86.4c.8,1.5,1.1,3.2,1,4.9-1,1.8-.7,4.4,1.2,5.4-5.3,9.6-12.5,19.3-24.5,19.2-3.7-3.1-7-6.5-10.1-10.2,3,14.1-17.8,29.9-28.6,16.4l-2.3.2c-5.2-11.3-11.9-15.6-20.2-13.1-2.3,16.9-23.5,25.8-35.8,12.8s-7.1-8.2-6.4-11.8c1.4.7,3.2,1.1,4.5,2.6,2.6,2.7,6.2,2.2,9.2,3.9l9.5,5.5c2.8,1.6,7.1-1.4,9.7-3.4-.6-2.5-1.8-3.8-2.8-5.9,4.8-4.8,1.1-8.7,8.5-10.9,10.1-2.9,20.6-4.8,29.6-10.5,4.4-2.8,7.5-7.2,12.3-9.6,4.5-2.2,9.9-.9,14.8-2.1,8.7-2.1,10.6-5.9,25.7,3s2.4,3.7,4.5,3.5Z"/>
  <path class="st20" d="M273.7,116.4c4.1,3-1.3,11.5-3.8,15.1-1.8,3.7-4,5.3-6.5,4.9-.3,3.1-2.5,4.4-6.7,3.8-.9.3-2.1-.2-2.9.1-6.3.9-12.6,1.5-9.3-6.9-1.6-1.9-4.3-3.5-8.1-4.7-2.6-4.8-5.8-9-9.5-12.5-3.7,9.5-19.3,20.4-28.7,13.4-2.2-1.7-5-4.7-3.5-7.4,7.4,5.5,16.7,3.8,22.6-3.5,2.8-3.5,5.8-6.2,3.7-11.7s.1-3.7,1.6-3.4c6.4,1.1,5.9,9,11.9,10.7s3.6-1.4,5.5-1.9c6.4-1.5,9.4-5.9,12.6-11.4,1.2-2.2,4.5-3,3.1-7s.2-2.8,1.1-2.8c0,1.6-.2,3.2.7,4.6s2.6,0,4.5,1.7c4.3,3.8,12,11.7,11.8,18.8Z"/>
  <path class="st4" d="M67.4,150.1c-2.5-3.1,1.5-5.8,3.8-2.9.6.2,1.2.5,1.2.7,0,2.1-3.5,10.6-4.7,12.9s-.7.3-1.3.2c-2,5.7-5.5,10.8-7.9,17-1.5.9-3.7,2.5-5.1,3-19.1,7.9-42.3-4.3-47.7-21.3s.8-6.4,2.8-7.7c1-1.3,6.5-7.5,7.3-7.5s1.2.2,1.8.5c10.3,11.9,38.9,24,47.7,5.8l2.2-.7Z"/>
  <path class="st3" d="M317.7,146c2.8,3.3,12.1,8.8,5.3,19.4-9.7,15.2-28.6,22-45.2,15.5s-3.3-1.7-4.5-2.7c-3.7-8.8-7.7-16.8-10.4-25.4-.6-1.9,0-2.5,1.4-1l2.4.4c12.4,15.9,36.8,4.1,48.3-7.8l2.8,1.5Z"/>
  <path class="st31" d="M122.2,108.2c17.8,16.5-14.7,35.5-27.6,18.7-2.1,1.8-3.6,4.4-4.4,7.6-3.4,1.4-6.4,3.3-8.8,5.7-1.3,3-5,3.3-6.2.1-4.2,3.3-11.3-3.3-14.2-6.9s-8.1-12.6-4.5-16.2c.3-.7.6-1.3.8-2,1.4-3.7,3.1-7.3,6.2-8.9s9.3-2.2,12,.5,3.7,5.7,6.4,7.6,8.3,2.4,11.3-1.3,4-1.5,3.7-.4c-.7,3.5-1.5,5.8,0,8.7s15.2,11.5,19.9,3.2c5-8.8,7.2-4.4,6.3-10.8s-2.5-2.1-3.7-4.1c-.6-1,1.9-1.6,2.7-1.7Z"/>
  <path class="st21" d="M310.5,139c2.6,2.3,5,4.4,7.3,7-1.9-.2-3.2,1.1-4.7,2.6-15.9,16.2-42.7,17.8-48.7,3.3l-1-.3c-1.5-4.4-3.7-8.2-6.7-11.4,1.2-2.4,5.1-2,6.7-3.8,1.2.7,2.1,1.5,2.6,2.2,3.1-2.9,6.5-4.6,10-5.3,8.5,1.2,16.9,2.8,25.3,4.8,3.3-.3,6.4,0,9.2.9Z"/>
  <path class="st8" d="M75.1,140.4c3.2,2.3-.9,7.9-4,6.9-1.4.4-3.4.8-3.8,2.9-3.7,1.4-7.4,1.9-11.1,1.5-9.9-3.3-19.9-5.6-30.1-6.8-3.5-.8-7.5-3.3-4.6-6.7,10.5-8.6,21.9-16.6,34.9-21,1.4,10.9,7.9,20.5,18.7,23.1Z"/>
  <path class="st32" d="M67.4,150.1c-1.2,6.5-7.3,10.9-14.3,11.5-14.5,1.3-27.7-5-37.6-16-2.8,2.3-4.5,4.7-7.1,6.4-.9-1.4,11.7-12.7,13.1-13.9,1.6,7.7,10.8,3.1,25.1,8.7s17.6-2.8,20.8,3.3Z"/>
  <path class="st9" d="M310.5,139c-10.9,3.5-11.8-1.3-25.9-2.1s-8.5-2.9-11.7-.9-4.8,5.6-9.1,4.4c-.2-1.3-.3-2.8-.4-4,4.7-5.3,10-12.5,10.3-20,13.8,4.8,25.8,13.2,36.8,22.6Z"/>
  <path class="st14" d="M219,147.9c3.7.5,10.7,1.7,9.8,6.1,4-.3,3,4-.3,5.6-4.4.5-8.9.7-13.4.6-14.7,5.3-29.2,6.2-43.7,2.8l-38.3.4c-9.3-1.6-18.5-2.3-27.7-2.1-5.2,3.4-10.5,5.6-16.1,6.6-3.5,9.1-3,16.5-.7,25.7l16.3,9.7c9,10,2.2,22.8-8.4,28.4,4.6,9.5,12.1,13.8,22.6,11.9l2,1.8c3.8-1.2,9.2,4.2,8.7,8.1,23.2,19.3,67.1,16.3,82.3-11-2.9-1.3-1.4-3.8,1.7-3.8.7-1.2,2.1-1.7,4.2-1.5,3.3-3.6,6.8-6.6,11.7-8-17.4-19.3,1.4-36.3,22.6-32.8-1-6.4-2.5-12.6-5.6-18.4.1-9.3-4.6-13.1-12.4-17-2.8-2.5-5-5.7-1.4-8.1l-1.3-.5c-.6-3.3-2.5-5.7-5.7-7.3-1.3-3.4,3.9-5.1,6.9-5.3,5.4,3.5,11.1,5.5,17.2,6l1.6,1.8c11.2,25.4,33.4,60.2,10.9,87.8-8,9.8-18.7,16.5-30.4,21.6-38.1,16.3-98.1,16.2-136-1.3s-42.9-30.9-38.2-58.6c2.1-12.2,5.9-23.4,10.3-34.4l-.5-1.8c1.9-5.5,4.2-10.7,6.9-15.7,8.9.9,15.9-1.3,23.3-6,.5,0,8.9,5.3,7.4,6.9-2.9,4.3-2.6,5.7.7,4.2,1.7-1.4,3.4-2.1,5.1-2,1.2-1.2,2.8-1.4,5-.6,7-2,13.7-5.3,19.8-9.2,7.2,6.9,13.4,12.1,23.7,13.3s22.5-3.8,31.7-11.9c3.7,2.2,7.4,4.4,11.1,6.4,4.4-.9,8.6-.8,12.5.2,1.9-.7,3.3-.3,4.2,1.2Z"/>
  <path class="st18" d="M194.7,122.2c2.9,4.3,5.8,8.8,11.7,7.5,9.2-2,15.5-6.1,19.1-16.5,6.1,2.7,8.4,8.4,11.9,13.7,1.7,2.5,7.9,1.9,8.9,5.5s-1.7,5.1-.6,7.7c3,.2,5.5-.1,8,.3-1.5.6-3.3,1.3-5,1.1l-2.1,1.7c-5.9-1.4-11.4-3.9-16.4-7.5-11.1,12.4-29,10.7-39.4-1.8-14.4,19.3-41.8,19.2-56.8.6-10.5,12.1-26.7,12.4-38.3,1.5-3.5,2.9-11.2,8.8-14.4,4.2-.7-7.5,8.5-3.7,8.3-9.8s4.3-7,6-5.1c6.9,7.2,15.2,8.4,23.6,2.6s8.9-9.7,4.7-15.5-2-1.1-2.5-2.1.2-1.4.8-2.1c2.1-.2,5.7,1,7.8,2,2.2,2.4,3.9,5.1,6,8.2,4.3,6.2,12.3,9.1,19.7,7.1,6.9-1.9,12.8-7.7,14-15.5s2.7-3.9,5.2-4c5.5-.4,10.5,2.7,13.6,7.2l6,8.9Z"/>
  <path class="st34" d="M248.7,141.5l2.8,6.3c-20.3.4-13.9-11.4-25.7-2.5.2,3.9-3.9,4.3-6.8,2.6-1.2.3-3.7,1.1-4.9.7-10.4-3.9-7.1,6.2-22.7-6.9-14.7,16.8-42.7,17-55.8-1.7-3.4,4.9-8.8,5.2-13.1,7.6s-7.1,3-11.4.8c-2.4,2.1-6.1,1.3-5.9-2.2-2.4-1.8-5.8-1.9-7.6-5.3-6.9,6.4-14.8,7-23.7,6.2-.7,6.3-3.9,10.9-5.8,15.7-.2-.9-.9-1.4-1.8-1.7l4.8-13.9c2.4-1.3,2.9-4.6,4-6.9,2.1.5,4.1-.2,6.2-.1,5.6.1,10.4-2.9,14.9-7.4,5.1,6.2,11.9,9.4,19.4,9.1s13.8-4.4,18.8-11c6.5,10.2,16.7,15.6,28.1,15.5s21.7-5.5,28-16.2c5.7,8.1,13.7,12.5,23.3,12s12.3-5,16.4-9.4c5.2,4.1,11.6,7.9,18.5,8.6Z"/>
  <path class="st29" d="M264.3,151.9c-.6.1-1.1.4-1.4,1-1.3-4.3-5.3-8.1-6.3-12.7,4-1.2,6.7,9.3,7.7,11.7Z"/>
  <path class="st13" d="M213.9,238.8c-1.1-2-1.1-4.5,0-7.5-.4-4,.3-7.5,2-10.3-3,0-2.9-3.2-.2-4.1-.5-6.2,2.5-11.9,8.2-14.1l.2-2.5c9.9-6.5,10.4-23.5-1.3-28.1l-.8-2.3c-4.2-3.1-10.7-.5-14.6,2.3-16.5.4-32.8-.3-49.1-2.2-9,.7-17.9,1.2-26.9,1.4-2.9,1.1-5.3,1.2-7.3.5-2.2,1.4-9,0-10-2.7-2.6-1.3-5.8.3-7.8,2.2,2.3,2.3.2,4.1-2.2,2.1-3.7,2.3-6,5.9-6.9,11-2.5,6.3.1,11.4,7.9,15.2,1.2-1.5,1.9-.9,1.3,1l4,3.1,4.8,17c1.5,1.1,2.1,3.1,1.7,6,1.2,3.7,1,6.4-.6,8.1,3,1.7,7.1,7.7,4.8,10.7-14.8,1.7-19.9-1.1-27.3-14.4,3.6-2.8,6.8-4.2,9.4-7.4,4.8-5.7,5.5-16.1-1.1-19.9l-15.8-9.2c-1.2-17-4.4-9.3,1.5-27.9,3-2,7.6-.9,9.8-3.2,8.9-9.3,21.5-1.8,40.8-2l33.2-.5c10.2,3.2,20.5,2.9,30.7.3l11.7-3c4.3-1.1,14.4,1,15.3-1.9s-.3-1.7-.6-2.5c.2-2.8,2.3-2.9,4-1-1.1,9.3,9.4,6.2,14.4,16.7,1.3,2.8.2,6.6,2,9.4,2.8,4.4,5.2,17.5,5,18-1.9,4.2-4.5-2.6-19,3.3s-8.9,5.8-10.1,10.5c-3.2,11.8,12.2,17.9,4.3,20.6-10.7,3.6-7.4,10-15.6,7.3Z"/>
  <path class="st26" d="M215.9,220.9c.3,6.3.5,12.5-2,17.9s-1.5,2.9-1.7,3.8c-15.7,27.3-59,30.3-82.3,11-3-3-5.7-5.9-8.7-8.1-1.7-4-4.1-7-4.8-10.7l.8-1.1c4.3-.5,8.7-1.5,13.1-3.1,3.2-.7,5.2,0,5.9,2.1h2.5c7.9,8.9,19,7.1,27.7.3,7.6,5.5,16.4,8.3,24.6,2.3l2.5.5,2.1.5c3.8,8.6,10.7-.3,8.7-6.9.2-.8,9.9-12.1,11.6-8.6Z"/>
  <path class="st11" d="M255,215.9c-1.5,3-4.3,6.2-7.3,7.7-7.5,3.7-18.3-1.4-19.7-9.8s4.5-8.1,7.7-10c5.5-3.3,10.8-2.3,15.4,1.8s6.2,5.8,3.9,10.4Z"/>
  <path class="st33" d="M103.8,215c-1.6,6.5-8,9.6-13.9,8.6s-10.9-5.7-10.7-11.7,3.6-7,6.2-8.5c4.2-2.4,7.6-1.5,11.9.3s7.8,5.8,6.5,11.3Z"/>
  <path class="st2" d="M129.9,253.6c23.6,16.7,65.9,14,82.3-11-1.4,8-9.6,13.9-17.4,18-21,11.2-48.7,9.3-64.9-7.1Z"/>
  <path class="st15" d="M232.8,153c-1.2.7-2.6.8-4,1-2.6-2.8-8.8-3.7-9.8-6.1,2.1-.5,5-1.3,6.8-2.6,2.2-.6,4.4-.1,5.6,1.7s1.6,4,1.4,6.1Z"/>
  <path class="st7" d="M105.2,146.2c1.8,1.4,4,1.2,5.9,2.2-1.2,2.4-4.6,4.5-7.7,4.6s-2.2-2.8-2-4.2,1.8-2.7,3.8-2.6Z"/>
  <path class="st17" d="M222,169.8l-1.5,1.7c-21.3-2.2-20.2,33.5,1.5,29.6l1.8,1.6c.4,0,1,0,1,.8-3.7,1.2-4.6,4.1-6.1,7.1l-3.1,6.2c-3.1-2.2-6.4-6.1-5.8-10.1-2.5-.3-4.8-1.9-6.9-4.7-7-4.2-10.5-6.3-10.5-6.3-3.8-.8-6.3-2.4-7.7-4.8l-2.7,1.4c-18.2-4.1-39-2.1-53.6,10.3l-3.1.2c-.2,3-1.7,6-4.4,9-1.3,3.9-3.2,6.9-5.7,8.8-3,1.3-4.2-14.1-8.7-20.1l1.9-1.3c16.5,8.2,26.9-13.3,15.6-25l.2-2.5c5.3-3.9,12.3-2.1,18.9-2.8,25.6-2.8,17.7.6,32.2.7l33.4.4c1.9-2.5,15.5-3.4,13.4-.3Z"/>
  <path class="st24" d="M149.2,207.8l1.9,1.3c1.2,6.3,6,10.5,14.4,12.4l.5,1.1c-1.3,1.7-1.9,4.1-1.9,7.2,3.3,2.9-2.3,6.5-5.3,7.7-7.7,3.2-16.6.7-20.5-7,.2,1.3-.7,1.8-2,2.2-13.2-1.4-11.8,5-19.9,2.1-1-4.7-2.2-9.9-1.1-14.1,1.8-7.2,5.4-13,10.1-17.8,1.1.2,2.2,0,3.3-.8,6.7,3.6,13.5,5.5,20.6,5.8Z"/>
  <path class="st23" d="M215.7,216.9l.2,4.1c-3.8,2.1-5.9,6.2-9.9,9.1,1.8,5.3-1.4,11.7-7.1,11.9s-5.4-3.9-5.4-6.1c-1.5-1.1-1.3-2.9.4-5.4-6.4,12.9-29.1,10.2-27.2-6s.4-1.4,1.4-1.7l1.1-2.4c7-1.5,11.2-5,12.9-10.4l2-1.1,1-2c6.4,1,12.7,2,19.1,3.1l5.8-3.2c2.4,3.5,5.6,6.5,5.8,10.1Z"/>
  <path class="st28" d="M114.2,169c3.3.4,7.3.5,10,2.7,8.8,7.1,8.8,21.5-.4,28.7s-12,2.7-17.3.1-.9-.7-1.3-1c-9.4-3.7-9.6-22.2-1-26.2.5-.8,2-.9,2.2-2.1,1.9-2,5.3-3.5,7.8-2.2Z"/>
  <path class="st10" d="M222,169.8c7.9,2,11.7,9.1,11.5,16.9s-3.8,12.7-9.6,16.1c-8.5,2.3-16.5-1.3-19.5-9.3s-1-16.4,5.3-21.3,8.2-3.4,12.4-2.3Z"/>
  <path class="st17" d="M104.2,173.3c-5.5,8.2-5.8,18.8,1,26.2-4.8-1-9.9-3.2-10.9-8.7s4.3-16.4,5.3-16.9c1.4-.8,3.1-.6,4.6-.6Z"/>
  <path class="st17" d="M114.2,169c-2.8-.3-5.2,1.6-7.8,2.2.2-1.9,2.1-2.7,3.6-3s3.6-.8,4.2.8Z"/>
  <path class="st0" d="M168,222.8c.5,2.2-.3,4.9.7,7.3,2,4.8,7.3,6.4,12.1,6.5,11.9.1,10.1-11.4,14.3-7.6,1.9,1.8-1.1,5-1.7,6.9-7.7,6.9-19.6,6.3-27.1-1.3-9,9-23.2,7.8-30.2-1.9,0-1-.2-2.1.3-3.2s1.7-1.3,2.8-.7c2.2,1.2,2.8,8.7,14.1,7.8s9-2.3,10.6-6.9l.6-6.2c-1.7-2.8,2.8-4.2,3.4-.8Z"/>
  <path class="st1" d="M184.7,191c1.2.4,1.9,1.1,2.1,2-3,6.1-8.6,9.1-16.9,8.9-8-.5-14.2,1.4-18.6,5.9h-2.2c-2.5,6-20.1-4-20.9-3.8l-2.2.4c-.5,0-1.2-.7-.7-1.5,14.7-14.9,40.8-17.1,59.4-11.9Z"/>
  <path class="st12" d="M209.8,206.8c-1.6,10.6-16.2,1.6-25.9,2.2-2.4-.8-6.6-3.6-6.9-6.2-1.4-.3-2.8,0-4.4.8l-1.7-1.7h-1c2.7-1.2,16.9-5.1,14.8-10.9,10.3,2.9,19.5,7.6,25.1,15.8Z"/>
  <path class="st5" d="M170,201.8h1c-.7,2.8-3.6,3.6-8.6,2.2l-4.5.8c-.2,1.4-.8,2.7-2,3.9,2.3,2.1,23.1,1.2,17.1-3.7-1.3-3.3,1.3-2.9,3.9-2.3,2.8,1,6.5,2.7,6.9,6.2.8,8.3-10.1,12-15.9,13.9s-1.7-.3-2.3,0c-1.5,1.2.4.7-1.8,6.9v-7.2c-7.7-1.7-16.2-6.6-14.8-14.8,3.3-8,14.2-5.9,20.8-5.9Z"/>
  <path class="st30" d="M109.6,175.2c1.9-.7,3.8.3,4.3,1.5.8,2.1.4,4.3-1.5,5.1s-4.1.2-4.8-1.6-.3-4.2,2-5Z"/>
  <path class="st35" d="M211.9,175.5c2.4-1.1,4.5.4,5,2s0,3.9-2,4.7-3.6,0-4.5-1.4-.8-4.3,1.5-5.3Z"/>
  <path class="st6" d="M177.1,202.7c-1,.3-2.2-.2-3.1.5,1.8,1.5,2.8,2.7,2.6,4.2-.6,4.6-16.7,5.2-20.5,1.4.9-1.8,3.1-2.4,6.4-1.9-2.5.5-4-.2-4.5-2,3.2-2.3,6.4-.9,13-3s4.2.2,6.1.9Z"/>
  <path class="st19" d="M157.9,204.9c2.8,0,8.2-.7,9,1.6s-9.4,2.5-11,2.2c-.7-.7-1.4-1.1-.8-2.2s1.7-1.7,2.8-1.7Z"/>
</svg>