<?xml version="1.0" encoding="UTF-8"?>
<svg id="_레이어_1" data-name="레이어_1" xmlns="http://www.w3.org/2000/svg" version="1.1" viewBox="0 0 330 330">
  <!-- Generator: Adobe Illustrator 30.1.0, SVG Export Plug-In . SVG Version: 2.1.1 Build 136)  -->
  <defs>
    <style>
      .st0 {
        fill: #483423;
      }

      .st1 {
        fill: #fbc08f;
      }

      .st2 {
        fill: #eecfa3;
      }

      .st3 {
        fill: #ed6a23;
      }

      .st4 {
        fill: #6a3614;
      }

      .st5 {
        fill: #e6770a;
      }

      .st6 {
        fill: #9c8a7f;
      }

      .st7 {
        fill: #f17a1d;
      }

      .st8 {
        fill: #fdebca;
      }

      .st9 {
        fill: #db6f05;
      }

      .st10 {
        fill: #d56f07;
      }

      .st11 {
        fill: #ea7b0b;
      }

      .st12 {
        fill: #f28f13;
      }

      .st13 {
        fill: #ed8a13;
      }

      .st14 {
        fill: #673414;
      }

      .st15 {
        fill: #ee8912;
      }

      .st16 {
        fill: #e9e6e7;
      }

      .st17 {
        fill: #5f3110;
      }

      .st18 {
        fill: #eaa177;
      }

      .st19 {
        fill: #6b3514;
      }

      .st20 {
        fill: #171313;
      }

      .st21 {
        fill: #582c0d;
      }

      .st22 {
        fill: #69503d;
      }

      .st23 {
        fill: #e97c07;
      }

      .st24 {
        fill: #6c3613;
      }

      .st25 {
        fill: #fadcb0;
      }

      .st26 {
        fill: #f39316;
      }

      .st27 {
        fill: #f0d0a1;
      }

      .st28 {
        fill: #fcefd5;
      }

      .st29 {
        fill: #322315;
      }

      .st30 {
        fill: #fddaa6;
      }

      .st31 {
        fill: #ed8212;
      }

      .st32 {
        fill: #130e0f;
      }

      .st33 {
        fill: #6c3715;
      }

      .st34 {
        fill: #5f300f;
      }

      .st35 {
        fill: #f6971a;
      }

      .st36 {
        fill: #fcd89c;
      }

      .st37 {
        fill: #f3b185;
      }

      .st38 {
        fill: #fcd9a1;
      }

      .st39 {
        fill: #ec8510;
      }

      .st40 {
        fill: #e77d08;
      }

      .st41 {
        fill: #6b3615;
      }

      .st42 {
        fill: #fcc396;
      }

      .st43 {
        fill: #dfdddd;
      }

      .st44 {
        fill: #e8820e;
      }

      .st45 {
        fill: #fde6bb;
      }

      .st46 {
        fill: #d46a04;
      }

      .st47 {
        fill: #fce3b9;
      }
    </style>
  </defs>
  <path class="st12" d="M219.9,73.6l1.8-1.3c6,3.6,12,7.1,18,10.7l.2,2.4c2.7-.4,2.7.4.4,1.8,5.7,5.4,9.8,13.3,13.3,20.6s3.9,8.2,5.8,12.4,12.4,28.8,12.2,32-.8,1.9-1.5,2.7l-.6,2.4c-8.7,6.3-16.8,13-24.5,20.3,3,3.9-11.6,5.3-12.5,5.1-2.4.2-2.9-1.1-1.6-4l-1.9-1.6c1.5-9.1-3.5-18.7-13.6-18.5l-1.5-1.9c-1.9-1.2-2.3-3.6-1.4-7.3-.3-2.9-1.1-5.7-2.5-8.3-7.3-4.1.2-5.5,5.1-4.4,1.1-2.2,3.1-2.4,6-.7,15.8,9.8,7.8-6.4-1.2-7.9l-.9-2.2c-2-.5-4.2-.9-6.3-1.2-1.7-4.9-5-8.7-9.9-11.4l.2-2.4c-.7-4.4-2.2-5.4-6.1-7.2-6.3-3-14.3-4-21.3-4.9-5.1-1.5-3.6-10.8-2-15.2,11.9-1.3,23.7,0,35.6,4.1,4.5-.3-.6-4.1-2.8-5.3-8.5-4.6-20.5-5.8-30-6.7-4.5-.2-5.7-10.2-2.2-12.2,15.6,1.1,32.5,1.9,45.7,9.7Z"/>
  <path class="st46" d="M60,246.6c-3.1-4-2.1-10.6,2.9-12.3,9.6,8.3,20,16.1,32,20.3l4.6-.4c13,4.5,26.7,7.3,40.4,8.4-5.7-1.9-10.3-5.1-13.9-9.5l1-2.3,1.8-.4c30,16.7,81.4,10.9,86.9-28.7l2.1-2c2.8-6.6,3.8-1.2,3.6,4.3-.7,16.2-14.5,32.1-29.1,38.1,24.4-2.7,52.8-11.4,70.1-29.3,8.9-9.2,14.8-21.8,16.5-34l-1.3-.3c0-3.1.2-6.4.9-9.9l-2.6-1.7c-.3-1.3-.3-2.4,1-2.7l-1.6-10.6,1.8-1.7c.9-2.6,4.9-2.2,6.8-.8,5.8,11.3,7.6,25.3,5.9,38.6-3.6,28.6-28.9,48.9-54.8,57.9-47.8,16.7-100.2,15.5-147.2-2.5s-19.8-10.7-27.7-18.5Z"/>
  <path class="st26" d="M155.1,64.3c3.4,2.8,2.3,10.5-2.1,11.8-13.2-.2-24.6,3.2-34.3,10.1h-2.5c-1.5.9-3.5,1.3-6.1,1.1-8.9,9.3-10.4,18.7-.4,27.6.7,3.3,2.4,5.5,5,6.7,2.7,2.5.8,4.1-5.7,4.7l-.4,2.2c-6.1,2.2-11.8,7.6-7.4,13.6,1.3.2,2.6.6,2.8,2-.6,4.7-.5,9.3.4,13.6-1.9,1.9-3,3.6-3.1,5.1l1,2.3c-2.4,4.6-2.3,9.9-1.5,15l-1.7,1.8c-3.1,2.6-13.5-.5-13.9-4.8-2.8.8-4.4-3.1-3.2-5.3-5.8-6.4-11.3-13.2-16.4-20.2-1.9-3.4-5.3-10.1-4.8-13.5,8.1-4.4,9.7-6.7,6.3-15.5,4.1-8.5,8.8-16.5,14.3-24.2l-.6-2.2c1.2-2.4,6.8-10.2,9.4-7.9l1.4-3.4,14.3-9.9,3.6-.3c14.9-5.2,29.9-10.2,45.8-10.4Z"/>
  <path class="st17" d="M174.2,63.9c.3,3.2,0,6.5.9,10.2,7.3-.4,41.1,4.6,37.5,14.5s-2.4,1.8-4.3,1.3c-11-2.9-21.7-5.4-33.7-4.6-.5,3.8-.2,7.6-.2,11.9,5.2-.2,36.4,5,28.6,14.1-.4,2.1-1.4,2.4-3.3,2.1-8.2-2.5-16.3-3.7-24.3-3.8,0,9.1-1.8,17.6-5.1,25.5-13.3,14-16.6-18-16.8-25.7-6.8,0-13.5,1.1-20.2,3.2-4.3,1.4-11.6.5-10.6-5.1,1.3-8,22.8-11.3,29.8-12l1.4,1.9c.9-3.7.9-8.4,0-12.1l-3.4,1.9c-10.2.4-20.2,2-30.1,4.8-4.1.2-8-3.1-4.4-5.9,7.5-9.9,26.4-10.9,38.2-12.1.6-3.5.6-6.6.8-9.6,6.3,0,12.6-.8,19.1-.4Z"/>
  <path class="st13" d="M79.9,80.4l-2.2,1.4c-26.9-7.7-37.1,26.1-12.9,37.5,3.7-7.3,8.1-14.1,13.1-20.4l3.2-.4c.8.3.4,1.9-.2,2.7-4.2,5.1-7.2,11-10.7,16.4s-.9,7,.3,11.2-4.3,9-8.5,10.3c-.3,3.8,3.1,5.4,3.8,8.3,3.1,12,15.1,15.2,15.9,24.5l-2.1,1.1c-6.4-6.2-13.4-11.4-20.8-15.5l-1.1-2.4c-2.1-.4-3-2.2-2.6-5.1l2.7-9.8c-.3-1.4,1.2-2.9.9-4.9-13.8-6.3-23.4-19.7-24.9-34.7s1.1-10.1,2.4-14.9c4.8-11,18.1-15,29.6-13.5s14.3,3,14,8.3Z"/>
  <path class="st34" d="M109.2,74.7c-5.9,4.6-13,9.1-19.3,13.5-2.1.7-4.3-.5-6.6-3.6-2.3-1.1-3.5-2.5-3.4-4.3-10.7-9.7-29.2-8.4-40.1,1.5s-1.5,3.8-3.5,3.7c5.4-19.8,24.6-33.8,47.4-27.7s19.8,7.9,25.5,16.9Z"/>
  <path class="st21" d="M288.8,80.4c.4,1.1.2,1.9-.9,2.1-12.1-8.6-25.6-8.6-39-3.2-.4,2.6-2.7,4.8-5.1,3.3,1.6,2.6-1.7,4.2-4,2.9l-20-11.9c14.5-17.8,41.3-24.8,60.2-6.3s6.2,8.6,8.7,13.1Z"/>
  <path class="st44" d="M288.8,80.4c11.4,19.8,5.3,42.6-14.9,53.8-2.4-.2-4.2-2.5-5.3-6.9-2.1-3-2.5-5.4-1-7.2-.8-.4-.8-.8.2-1l.3-2.5c18.3-13.6,5.2-40.2-16.9-35.7l-2.1-1.6c11.2-8.2,27.4-7.6,38.7,1.2s1.2.5,1.2,0Z"/>
  <path class="st9" d="M50.1,171.9c1.4,1.4.8,2-1,1.1-.5,3-.7,7-.5,11.9-1,7.6-.2,15.3,2.4,23.3,0,0,1.7,5.2,5.1,15.5l2.5.5c8.6,12.6,22.3,21.5,35.9,28l.5,2.4c-11.8-3-21.5-11-32.1-18.8-3.1,3.1-3.1,7.4-2.9,10.8-11.6-11.3-20.3-25.8-20.5-43.1s3.9-23.7,7.4-34.6c1.5.2,2.6,1.2,3.1,3.1Z"/>
  <path class="st10" d="M252.1,98.1c5.2,5.4,9.5,11.8,12.8,19.2l2.7,2.8,6.3,14.1c-4.5,1.6,2.3,10.5,5.1,22.6-1.6,2.2-7.2,0-9-1.8-1.1-6.3-4-12.2-6.3-18.6-5.4-14.8-11.9-28.5-19.8-42s-2.1-5.1-3.6-7.1c-.1-.9.3-1.9,1-1.7,3.1.7,9.2,8.5,11.4,11.5s-.2.5-.6,1Z"/>
  <path class="st41" d="M279,156.8c1.1,4.7,5.2,9.1,4.9,14.3-1.5,1.7-4.6,1-6.8.8l-1.6,1.9c-7.8,1.2-15.5,3.3-23,6.3-4.6,1.2-7.1.4-7.5-2.4-.5-1.5.3-2.9,1.6-4.1l13.8-12.1c2.9-2.6,6.2-5.1,9.6-6.5s6.7.6,9,1.8Z"/>
  <path class="st33" d="M57.8,155c10.9,2.7,17.4,13.6,24,16.8s2.4,3.9,3.2,5.3c1.7,3.8-3.1,3.8-6.1,3.7s-12.2-3-11.9-5.9l-2.2,1.4-7.6-2.1c-3.2.2-5.5-.5-7-2.2-.9,0-2.4.3-2.9-.7s-.1-1.7-.2-2.4l4.2-13c1.6-3.1,5.1-4.4,6.6-.8Z"/>
  <path class="st39" d="M57.8,155c-2.1-.5-4.6.4-6.6.8,1.7-5.4,3.1-11.2,6.7-15.8.8,3.6-1.9,6.4,0,15Z"/>
  <path class="st35" d="M116.1,86c.6.8.3,2.8,1.3,3.3s2.8.8,4.3.4c10.8-3,21.5-5,32.3-4.5.9,3.8.8,8.3,0,12.1-4.3-.1-32.3,4.5-29.1,11.9s19.7-4.3,30.6-1.6c1.3,6.5.3,29.7,9.9,28.4s6.8-21.6,8.3-28.4c11.8-2.2,21.5,4.8,29.3,3.6l7.3,5.6c2.7,2.1,3.3,5.3,4.5,8.1,1.1.5,4.2-.3,4.3,1.2-1,1.6-3.1,2.3-6.1,2.1-7.3,1.8-14.4,8.4-1.4,5.9,2.2-.1,3.6.2,3.5,2.8-2.2.3-4.4,0-6.9.2,0,1.9,2.7,1.7,3.4,3.1,3.8,7.5,3,10.1,2.3,16.6l-.8,2.2c-11.8,3.4-13.4,20.4-4.2,27.6v2.5c2.7,1.4,1.7,3-1.1,2.6-1.4,2.4-2.3,1.9-2-.8h-2.7c-5.2-5-12.1-7.5-18.9-9.5l-1.2-2.4-3.4,1.1c-15.1-3.7-31.2-1.7-45.1,5.2l-3.6-.4c-3.7,1.3-3.5-3.2-3.3-6l-1.7-1.4c2.7-13.8-11.3-25-22.6-14.5l-2.4-.2c-1,0-1-.9-.7-1.2l1.4-2.2c1.5-2.4-1.2-5.3-.5-8.1s1.3-6.6-.2-9.2c-.2-2.9,1.9-4.9,6.5-6l5.9-1.4c12.9,0,15.8-2.2,2-6.8-3.1.4-5.2-.2-6.6-1.6.7-1.8,3.4-.8,5.3-1.2,0-2.8-3.5-2.9-4.6-4.6-.7-5.5-4.7-7.5-7.5-11.6s-1.5-11.2.5-14.7,4-5.6,6.1-8.3,6.1-.8,7.4.2Z"/>
  <path class="st31" d="M277.1,171.9l1.9,13.1c-.3,1.1-2.5,1.2-3.1,1.9l-1.8,2.6c-8.3,3.7-20.6,5.1-29.7,4.6-3.5.1,9.4,8.9,11,8.4l.5,2.4c2.3,2.9-2.4,5.1-4.9,5.8.6,2.1-1,2.3-5,.7l-4-.4c.2,3.1-2.1,2.1-4.2,1.1-7.5,1-20.3,1.7-21.5-8.1l-2.5-3.3c-2.6.6-3.1-1.6-2.9-3.9-2.9,1.3-5.6-2.8-3.2-5.1l1.1-2.6,1.9-1.2c7.4,2.8,14.8-1.1,17.6-8.4l2.4-.7c0,4.2,1.7.6,10.2,1s2.7-1.6,3.9-2c8.8,3.7,19.5-6.8,32.1-5.8Z"/>
  <path class="st32" d="M213.9,156.8c7.6-1,13.8,3.8,16.1,10s1.3,8,.8,11.9c-1.8,4.7-4.5,8.6-8.4,10.4s-9.7,2.3-13.5-.1c-6.1-3.9-8.5-10.4-7.9-17.3s5.6-14,12.9-15Z"/>
  <path class="st36" d="M219.1,126.2c5.9.9,10.8,4.7,12.7,9.9s.3,3.8-1.1,5c-2.8,2.4-10-4.7-15.5-4.2-3.9-2.4-10.8,1.9-12.4-1.9s7.3-10.2,16.3-8.9Z"/>
  <path class="st37" d="M253.8,97.2c.4,1.9-.4,2.3-1.7.9.8,1.3-10.6-12.3-11.9-10.8-.3-.4-.1-1.3-.4-1.8.9-1.4,2.9-1.8,4-2.9-1-.2,0-1,1.4-.6s11.2,13.7,11.1,14.6c-.3,2-1.4,2-2.4.6Z"/>
  <path class="st40" d="M218,219.7c-2-2.1-2.9-5-2.9-8.6-1.6-3.8-2-7.2-1.2-10.3,7,2.8,1.1,8.5,12,9.3s7.3,1.5,11.4.2,3.4,1.6,4.8.8h2.1c4.5,5.9,20.4,21.6,23.6,7.6-5.6-1.4-11-3.2-16.3-5.3l-.4-2.6c0-3.3,3.5-2.9,4.9-5.8l2-1.4c6.1,1.7,16,3.2,18.8-4.1l2.2-.6c1.1.6,1.2,2.3.9,3.9-3.1,19.3-15.5,34.6-32.6,44.3-18.9,10.7-40,16.6-61.9,17.7,1-3.4,4-3.4,6.3-4.4,17.5-7.6,28.5-23.4,28.3-42.6-1.1.6-.9,1.8-1.9,2Z"/>
  <path class="st23" d="M100.1,212.8c1.3-1.3,2.9-1,4.9.9,2.3-2.1,4.2-2.4,5.5-.9-.4,4.1-.2,8.1.5,11.9l2.3.6c1.6,7.8,5.1,14.2,10.5,19.1v2.4c2.8,1.5,3.8,2.9,3.3,4.1,4.1,8,14.3,8.7,22.6,14.8-18.6-1.5-37.7-4.4-54.7-11.1s-32.3-18-38.9-30.9l-2.7-6.3c1-3.2,5.6-3,5.7.5l2.3.3c1.9,5.7,4.8,7.4,8.7,5.2,5.6-3.2,10.8-7,15.6-11.4l2.2.8c1.2-1,3-1,5.4-.2,3.1-1.2,5.4-1.1,6.8.2Z"/>
  <path class="st27" d="M213.9,200.7c2.7,6.1,4.1,12.4,4.1,19,0,14.1-8.7,26.3-21.4,33.7-19.6,11.4-50.6,10.4-69.4-2.5-.8-1.6-2.5-2.4-3.1-4.1l3.7-.5c28.5,11.9,72.6,7,81.9-26.8l2.5-2.8c-1.7-1.6-2.4-4.1-2-7.6-1.4-3.9-1.9-7.8-1.6-11.5l2.5-.8c.8,1.3,2.3,2.6,2.9,3.9Z"/>
  <path class="st14" d="M275.9,186.9c1.8-.5,3.1-.4,4,.3s.8,1.9.6,3.2l-1.5,8.4c-1.9,10.9-17.4,8.3-22.9,6.1-4.1-1.6-14.7-6.5-14-10.3s1.1-2.5,2.3-2.4c11.2,1.1,21.3-2.1,31.6-5.3Z"/>
  <path class="st1" d="M79.9,80.4c4.1,1.3,7.1,5.1,10.1,7.9-3.5,2.5-5.8,7.2-8.8,10.1-6.6,6.6-10.6,15.2-15.6,23.4-13.1-5.8-20.2-18.3-14.7-30.8,5.5-12.4,17.1-14.4,29-10.7Z"/>
  <path class="st20" d="M127.8,178.9c2.2,7.2-6.7,13-13.2,13.6s-11-.3-10.5-4.6c-2.8,2-6-3.3-5.1-6.1-1.2-6.5-1.6-13.4,2.2-19.1s9.2-6.6,15.1-5.5c10.3,2,13.7,14.2,11.6,21.6Z"/>
  <path class="st7" d="M85,177.1c4.1,2.4,9.3,3.6,13.9,4.8,2.2,1.4,3.1,4.6,5.1,6.1l1.2,1.9c-.2,7.4-1,14.8-2.5,22l-2.5.9c-4.2,1.7-8.5,2.9-12.2,0-2.8,0-2.6-1.5,0-2.1.7-2,1.4-4.1,2.1-6.3.3-12-2.9-16.1-9.3-12.2h-5.7c-1.7,3.2-10,1.2-10.2-2.5l-1.9-1.3c-.5-3.3-.4-14.2,4.1-13.6l10.4,3.5c2.8.9,5.9.7,7.6-1.3Z"/>
  <path class="st38" d="M101,142c-.9-.5-2.6-.6-3.1-1.5-2.8-5.2,3.8-12.6,11-14.4,10.6-2.5,19.9,5.2,17.3,8.7s-15.8-1.3-25.2,7.1Z"/>
  <path class="st26" d="M154,97.3v-12.1c1.5-3.1,1.5,15.1,0,12.1Z"/>
  <path class="st42" d="M267.8,119.1c-.6,0-1.2-.1-1.7-.4-1-.5-10.7-17.1-12.2-19.9s-.1-1,0-1.6c6.1,6.3-15-19-10-14.6,1.6-1.5,2.9-2.7,5.1-3.3,11.2-2.9,22.6,1.2,27.7,11.9,4.7,9.7.9,22.5-8.9,27.8Z"/>
  <path class="st18" d="M267.8,119.1l-.2,1c-.4,0-2.5,1.1-2.9.3-4-7.8-8.3-15-12.5-22.3.5-.3,1.1-.6,1.7-.9,6,6.3,9.6,14.3,13.9,21.8Z"/>
  <path class="st5" d="M49.1,173.1c2.1,1.5,3.3,3.8,3.5,7.1,0,2.4.5,4.6,1.5,6.7-.3,1.3-1.3,2-3,2-.6,16.8,8.4,18.3,22.1,14.1l2,1.6c3.2,0,5.5,3.8,2.9,6.1.2,2.2-1.2,3.6-4,4.2l-12.5,4-2.4-1.1c-1.5,0-2.6-1.3-4.6-.3,1.7,2.2.7,4.7,1.5,6.2-10.6-15-9.5-30.9-8.6-48.4s0-1.4.2-1.7c.4-.5,1.1-.3,1.4-.5Z"/>
  <path class="st11" d="M67,174.8c-3.2,6.6-1.3,8-2.2,14.9-2,2.4-10.9.8-10.7-2.8-.9-.4-2.6-1.3-3.9-1.5,1.4-7.8-.6-5.5-1-12.4.4-.3.6-.8,1-1.1,5.9-.9,11.4,1.1,16.9,2.9Z"/>
  <path class="st47" d="M207.8,191.7c.5,2,2.2,3.3,3.2,5.1-2.9,5.6,2.5,7.3,1.1,19.9-.9,2.3-1.4,2.9-3.4,4s-9,2.6-9.7,0l-2.4-1.1c-3.9,10.9-19.6,9.8-27.1,3.6-2-1.7-5-4.3-2.4-6.4-.5-1.4-.4-2.5.3-3.1l.8-1.3c5.6-.5,10.6-2.7,13.8-7.3-1.2-1.6-.9-4,1.1-7.1-.1-2.5.4-4.2,1.7-5.1,1.2-1.2,2.2-.5,3.2.3,5.6-1.5,12.3-2.6,17.8-2.2.4.5,1.5.5,2,.8Z"/>
  <path class="st28" d="M183,178.9c2.6,2.5-1.2,7.1-4,7.9l-1.8,1.7c-9.7-2.4-18.9-2-27.7,1-1.8,2-3.7,3.1-5.5,3.3-.5,2.5-1.2,3.8-2.2,4.1l-16.2-3.8-1.5-2.1c-1.9-2.5,4.3-8.7,6.9-6,15.8-8.7,34.8-11.1,52-5.9Z"/>
  <path class="st15" d="M131,184.9c-2.7,1.5-5.3,3.4-6.9,6l-.2,2.8c-7.4,6.4-11.4,16.1-10.9,25.9l-1.8,2.1c2.7.8,2.5,1.9,0,3.1-2.3,1-.2-10.4-1.5-11.3-2.6.9-3.9,3.2-5.5,2.1l-3.9-2.7c1.7-3.9,2.4-8.2,1.8-12.9,2-4.7.2-11.1,2-12,4.4,2.8,9.5,3.5,14.9,1.5s7.5-5.6,8.9-10.6l3.3,6Z"/>
  <path class="st8" d="M205.8,190.9c-1.5,3.7-13.4,1.1-19.3,5.2-.3-2-1.3-2.5-1.7-3.3-2.6.9-5.9-3.4-5.8-6,.3-3.1,3.3-4.9,4-7.9,8.3,2.5,17,5.3,22.8,12Z"/>
  <path class="st24" d="M251.1,210.7c5.5,3.7,12.2,3.6,19,6.7-.1,3.4-3.5,9.7-8,9.2-5.9-.6-19.3-11.5-20.1-15.6.7-4.4,10.8.9,9-.3Z"/>
  <path class="st16" d="M210.3,163.5c2.2-.4,3.8,1,4,2.9s-.6,3.6-2.8,4-3.4-.3-3.9-2.2.3-4.3,2.7-4.7Z"/>
  <path class="st30" d="M124.1,246.8c-7.8-3.8-10.4-14.7-13-22.1s.1-2.1,0-3.1c1.8-1.9,4.7-1.5,8.6,1.2,2.8,0,5.6-.6,8.2-1.6l2.1,1.4h2.5c8.6,10.7,22.5,4.9,31.8-1.7,9.2,6.8,26.5,13.3,32.4-.2h2.2c4.3-1.1,10-1.4,13.2-4.1-2.3,20.9-23.4,34.7-44.3,36.9-15.1,1.6-30.4-.2-43.8-6.8Z"/>
  <path class="st4" d="M88,210.7v2.1c-3.6,2.7-19,17.2-23.9,12.8s-3.8-5.1-4.9-7.7c6.1-3,13.2-3.4,18.9-7-.9-3.7,12.2-5.2,9.9,0Z"/>
  <path class="st43" d="M106.1,163.8c2.1-1.2,4.2-.3,5,1.4s.5,3.8-1.5,4.9-3.2.3-4.4-1-1.4-4,.9-5.4Z"/>
  <path class="st19" d="M54.1,186.9c3.3,1.5,7.4,1.5,10.7,2.8s6.4,2.2,10.2,2.3c3.5.8,6.5.3,8.8-1.5,7,.8,7.4,5.9,2,10.2-2.3,1.8-8.3,5.8-10.7,3.9-5.4,1-18,5.4-22.6-1.4s-4-10.4-3.4-15.3,4.1-1.1,4.9-1.1Z"/>
  <path class="st3" d="M88,210.7c-.8-1.2-2.6-1.6-4.4-1.2l-5.5,1.3c-.4-2.3-2.1-4-2.9-6.1,1.6-1.8,15.8-6.9,12.4-10.9s-2.3-1.7-3.5-1.4c-3.6,1.1-6.5-.2-9.1-.3,10.3.6,7.2-5,10.3-3.9s3.3,1.2,3.8,2.6c2,5,6.1,18-1.2,20Z"/>
  <path class="st0" d="M179,186.8c2.3,1,4.7,4,5.8,6,1.8,4.5-.9,8.2-2.9,12.2l-1.7,2.3c-4,2.7-8.3,4.8-12.9,6.3,0,.8-.3,2.1-.3,3.1l-2.4-.7c-.1-2-1-3-2.7-3.2-.7.3-1.4.5-2.1.4-3.6-.9-13.6-4.3-12.8-8.3-2.5.8-4.1-.8-4.8-5.1-.9-2.5-.3-4.9,1.8-7.1,4.2-10.8,26.1-7.7,35-6Z"/>
  <path class="st29" d="M167.1,216.7c2.3,6,9.1,8.4,15.9,9,11.7,1.1,10-9.2,14.2-8s1.7,1.8,1.8,2.9c-1.6,3.8-4.2,7.9-8.8,9.1-9.4,2.4-18.8-.8-25.9-7.1-9.5,9.1-27.3,12-34.3,0-5.4-1,.6-10.1,3.3-4.5l2.3-.3c3.4,10.3,24.1,6.1,24.4-3.7l2-1.3c1-.5,2.5-3,3.9-1.9-.1,2.6.6,4.1,1.2,5.8Z"/>
  <path class="st2" d="M167.3,213.6c0-.5-.5-2,0-2.4,5.6-.9,9.9-3.5,14.5-6.2-.8,1.6-.4,3.5-2.7,5.1-3.5,2.5-7.7,3.7-11.9,3.5Z"/>
  <path class="st45" d="M144.1,192.8c-.9,3.6,0,9.1,3,12.1l1.2,2.1c-2.1,2-4.4,3.8-6.9,5.4-2.6,5.5-5.3,7.4-8.1,5.8-.9.2-2.3-.3-2.9.6s-.5,2.7-.4,3.9c-14.9,4.8-9.8.5-18.9-1-1.3-11.7,3.7-23.6,13-30.8,4,0,13.4,2.9,18.3,4.2.5-1.1,1.4-1.5,1.7-2.3Z"/>
  <path class="st25" d="M162,212.8c-.1,2,.5,4.6-1.4,6.5-5.4,5.6-14.3,7.9-21.6,5.2s-3.9-4.5-5.7-6.5c3.6-.8,4.4-4.6,6.6-7.1s6.2-3,7.1-6.1c4.4,4.4,15.7,5.9,14.9,7.9Z"/>
  <path class="st22" d="M152,194.8c1.2-1.7,3.4-2.2,6.7-1.5,3.4.2,4.9-1,4.4-3.5,4.2-1.3,9.5-1,12.8,1.9s-.6,4.3-2.3,5c-5.8,2.4-18.8,3.3-21.7-1.8Z"/>
  <path class="st6" d="M163.1,189.8c.9.6,3.3,2.3,2.7,3.5-4.5,2.5-9.5,2.2-13.9,1.5-.8-1.3-1.2-2.3-.5-3,2.5-2.7,8.2-1.7,11.6-2Z"/>
</svg>